<?xml version="1.0" encoding="UTF-8"?>
<svg id="_x5F__x5F__x5F__x5F__x5F__x5F___x5F__x5F__x5F__x5F__x5F__x5F__x5F__x5F__x5F_" xmlns="http://www.w3.org/2000/svg" xmlns:xlink="http://www.w3.org/1999/xlink" viewBox="0 0 3840 2160">
  <defs>
    <style>
      .cls-1 {
        fill: url(#Degradado_sin_nombre_13-5);
      }

      .cls-2 {
        fill: url(#Degradado_sin_nombre_13-26);
      }

      .cls-3 {
        fill: url(#Degradado_sin_nombre_13-11);
      }

      .cls-4 {
        fill: url(#Degradado_sin_nombre_13-43);
      }

      .cls-5 {
        fill: url(#Degradado_sin_nombre_13-17);
      }

      .cls-6 {
        fill: url(#Degradado_sin_nombre_13-2);
      }

      .cls-7 {
        fill: url(#Degradado_sin_nombre_13-35);
      }

      .cls-8 {
        fill: url(#Degradado_sin_nombre_13-25);
      }

      .cls-9 {
        fill: url(#Degradado_sin_nombre_13-23);
      }

      .cls-10 {
        fill: url(#Degradado_sin_nombre_13-4);
      }

      .cls-11 {
        fill: url(#Degradado_sin_nombre_13-27);
      }

      .cls-12 {
        fill: url(#Degradado_sin_nombre_13-7);
      }

      .cls-13 {
        fill: url(#Degradado_sin_nombre_13-12);
      }

      .cls-14 {
        fill: url(#Degradado_sin_nombre_13-24);
      }

      .cls-15 {
        fill: #fff;
      }

      .cls-16 {
        fill: url(#Degradado_sin_nombre_13-34);
      }

      .cls-17 {
        fill: url(#Degradado_sin_nombre_13-3);
      }

      .cls-18 {
        fill: url(#Degradado_sin_nombre_13-15);
      }

      .cls-19 {
        fill: url(#Degradado_sin_nombre_13-33);
      }

      .cls-20 {
        fill: url(#Degradado_sin_nombre_13-9);
      }

      .cls-21 {
        fill: url(#Degradado_sin_nombre_13-37);
      }

      .cls-22 {
        fill: url(#Degradado_sin_nombre_13-38);
      }

      .cls-23 {
        fill: url(#Degradado_sin_nombre_13-29);
      }

      .cls-24 {
        fill: url(#Degradado_sin_nombre_13-13);
      }

      .cls-25 {
        fill: url(#Degradado_sin_nombre_13-20);
      }

      .cls-26 {
        fill: url(#Degradado_sin_nombre_13-8);
      }

      .cls-27 {
        fill: url(#Degradado_sin_nombre_13-42);
      }

      .cls-28 {
        fill: url(#Degradado_sin_nombre_13-19);
      }

      .cls-29 {
        fill: url(#Degradado_sin_nombre_13);
      }

      .cls-30 {
        fill: url(#Degradado_sin_nombre_13-40);
      }

      .cls-31 {
        fill: url(#Degradado_sin_nombre_13-22);
      }

      .cls-32 {
        fill: url(#Degradado_sin_nombre_13-36);
      }

      .cls-33 {
        fill: url(#Degradado_sin_nombre_13-44);
      }

      .cls-34 {
        fill: url(#Degradado_sin_nombre_13-6);
      }

      .cls-35 {
        fill: url(#Degradado_sin_nombre_13-30);
      }

      .cls-36 {
        fill: url(#Degradado_sin_nombre_13-28);
      }

      .cls-37 {
        fill: url(#Degradado_sin_nombre_13-41);
      }

      .cls-38 {
        fill: url(#Degradado_sin_nombre_13-32);
      }

      .cls-39 {
        fill: url(#Degradado_sin_nombre_13-16);
      }

      .cls-40 {
        fill: url(#Degradado_sin_nombre_13-10);
      }

      .cls-41 {
        clip-path: url(#clippath);
      }

      .cls-42 {
        fill: url(#Degradado_sin_nombre_13-14);
      }

      .cls-43 {
        fill: url(#Degradado_sin_nombre_13-21);
      }

      .cls-44 {
        fill: url(#Degradado_sin_nombre_13-39);
      }

      .cls-45 {
        fill: url(#Degradado_sin_nombre_13-18);
      }

      .cls-46 {
        fill: url(#Degradado_sin_nombre_13-31);
      }
    </style>
    <clipPath id="clippath">
      <rect class="cls-15" width="3840" height="2160"/>
    </clipPath>
    <linearGradient id="Degradado_sin_nombre_13" data-name="Degradado sin nombre 13" x1="-294.864" y1="-302.097" x2="3912.44" y2="2433.903" gradientUnits="userSpaceOnUse">
      <stop offset="0" stop-color="#fff"/>
      <stop offset="1" stop-color="#1e3968"/>
    </linearGradient>
    <linearGradient id="Degradado_sin_nombre_13-2" data-name="Degradado sin nombre 13" x1="-1169.685" y1="1043.164" x2="3037.62" y2="3779.164" xlink:href="#Degradado_sin_nombre_13"/>
    <linearGradient id="Degradado_sin_nombre_13-3" data-name="Degradado sin nombre 13" x1="-67.008" y1="-652.486" x2="4140.297" y2="2083.514" xlink:href="#Degradado_sin_nombre_13"/>
    <linearGradient id="Degradado_sin_nombre_13-4" data-name="Degradado sin nombre 13" x1="-755.983" y1="406.991" x2="3451.322" y2="3142.991" xlink:href="#Degradado_sin_nombre_13"/>
    <linearGradient id="Degradado_sin_nombre_13-5" data-name="Degradado sin nombre 13" x1="-206.344" y1="-438.22" x2="4000.96" y2="2297.78" xlink:href="#Degradado_sin_nombre_13"/>
    <linearGradient id="Degradado_sin_nombre_13-6" data-name="Degradado sin nombre 13" x1="55.122" y1="-840.292" x2="4262.427" y2="1895.708" xlink:href="#Degradado_sin_nombre_13"/>
    <linearGradient id="Degradado_sin_nombre_13-7" data-name="Degradado sin nombre 13" x1="-446.637" y1="-68.708" x2="3760.667" y2="2667.292" xlink:href="#Degradado_sin_nombre_13"/>
    <linearGradient id="Degradado_sin_nombre_13-8" data-name="Degradado sin nombre 13" x1="-329.312" y1="-249.126" x2="3877.993" y2="2486.874" xlink:href="#Degradado_sin_nombre_13"/>
    <linearGradient id="Degradado_sin_nombre_13-9" data-name="Degradado sin nombre 13" x1="-470.929" y1="-31.353" x2="3736.376" y2="2704.647" xlink:href="#Degradado_sin_nombre_13"/>
    <linearGradient id="Degradado_sin_nombre_13-10" data-name="Degradado sin nombre 13" x1="-13.239" y1="-735.17" x2="4194.066" y2="2000.83" xlink:href="#Degradado_sin_nombre_13"/>
    <linearGradient id="Degradado_sin_nombre_13-11" data-name="Degradado sin nombre 13" x1="120.143" y1="-940.278" x2="4327.447" y2="1795.722" xlink:href="#Degradado_sin_nombre_13"/>
    <linearGradient id="Degradado_sin_nombre_13-12" data-name="Degradado sin nombre 13" x1="167.369" y1="-1012.9" x2="4374.673" y2="1723.1" xlink:href="#Degradado_sin_nombre_13"/>
    <linearGradient id="Degradado_sin_nombre_13-13" data-name="Degradado sin nombre 13" x1="77.718" y1="-875.039" x2="4285.023" y2="1860.961" xlink:href="#Degradado_sin_nombre_13"/>
    <linearGradient id="Degradado_sin_nombre_13-14" data-name="Degradado sin nombre 13" x1="203.916" y1="-1069.1" x2="4411.22" y2="1666.9" xlink:href="#Degradado_sin_nombre_13"/>
    <linearGradient id="Degradado_sin_nombre_13-15" data-name="Degradado sin nombre 13" x1="-344.945" y1="-225.085" x2="3862.359" y2="2510.915" xlink:href="#Degradado_sin_nombre_13"/>
    <linearGradient id="Degradado_sin_nombre_13-16" data-name="Degradado sin nombre 13" x1="-117.271" y1="-575.194" x2="4090.034" y2="2160.806" xlink:href="#Degradado_sin_nombre_13"/>
    <linearGradient id="Degradado_sin_nombre_13-17" data-name="Degradado sin nombre 13" x1="139.499" y1="-970.042" x2="4346.803" y2="1765.958" xlink:href="#Degradado_sin_nombre_13"/>
    <linearGradient id="Degradado_sin_nombre_13-18" data-name="Degradado sin nombre 13" x1="223.755" y1="-1099.608" x2="4431.059" y2="1636.392" xlink:href="#Degradado_sin_nombre_13"/>
    <linearGradient id="Degradado_sin_nombre_13-19" data-name="Degradado sin nombre 13" x1="239.584" y1="-1123.949" x2="4446.888" y2="1612.051" xlink:href="#Degradado_sin_nombre_13"/>
    <linearGradient id="Degradado_sin_nombre_13-20" data-name="Degradado sin nombre 13" x1="177.497" y1="-1028.475" x2="4384.801" y2="1707.525" xlink:href="#Degradado_sin_nombre_13"/>
    <linearGradient id="Degradado_sin_nombre_13-21" data-name="Degradado sin nombre 13" x1="-77.504" y1="-636.346" x2="4129.801" y2="2099.654" xlink:href="#Degradado_sin_nombre_13"/>
    <linearGradient id="Degradado_sin_nombre_13-22" data-name="Degradado sin nombre 13" x1="19.144" y1="-784.966" x2="4226.449" y2="1951.034" xlink:href="#Degradado_sin_nombre_13"/>
    <linearGradient id="Degradado_sin_nombre_13-23" data-name="Degradado sin nombre 13" x1="202.84" y1="-1067.447" x2="4410.145" y2="1668.553" xlink:href="#Degradado_sin_nombre_13"/>
    <linearGradient id="Degradado_sin_nombre_13-24" data-name="Degradado sin nombre 13" x1="258.057" y1="-1152.356" x2="4465.361" y2="1583.644" xlink:href="#Degradado_sin_nombre_13"/>
    <linearGradient id="Degradado_sin_nombre_13-25" data-name="Degradado sin nombre 13" x1="224.654" y1="-1100.991" x2="4431.958" y2="1635.009" xlink:href="#Degradado_sin_nombre_13"/>
    <linearGradient id="Degradado_sin_nombre_13-26" data-name="Degradado sin nombre 13" x1="-105.168" y1="-593.804" x2="4102.136" y2="2142.196" xlink:href="#Degradado_sin_nombre_13"/>
    <linearGradient id="Degradado_sin_nombre_13-27" data-name="Degradado sin nombre 13" x1="103.483" y1="-914.659" x2="4310.787" y2="1821.341" xlink:href="#Degradado_sin_nombre_13"/>
    <linearGradient id="Degradado_sin_nombre_13-28" data-name="Degradado sin nombre 13" x1="240.177" y1="-1124.861" x2="4447.481" y2="1611.139" xlink:href="#Degradado_sin_nombre_13"/>
    <linearGradient id="Degradado_sin_nombre_13-29" data-name="Degradado sin nombre 13" x1="244.635" y1="-1131.716" x2="4451.939" y2="1604.284" xlink:href="#Degradado_sin_nombre_13"/>
    <linearGradient id="Degradado_sin_nombre_13-30" data-name="Degradado sin nombre 13" x1="55.991" y1="-841.628" x2="4263.295" y2="1894.372" xlink:href="#Degradado_sin_nombre_13"/>
    <linearGradient id="Degradado_sin_nombre_13-31" data-name="Degradado sin nombre 13" x1="152.291" y1="-989.714" x2="4359.596" y2="1746.286" xlink:href="#Degradado_sin_nombre_13"/>
    <linearGradient id="Degradado_sin_nombre_13-32" data-name="Degradado sin nombre 13" x1="40.169" y1="-817.297" x2="4247.473" y2="1918.703" xlink:href="#Degradado_sin_nombre_13"/>
    <linearGradient id="Degradado_sin_nombre_13-33" data-name="Degradado sin nombre 13" x1="186.708" y1="-1042.638" x2="4394.012" y2="1693.362" xlink:href="#Degradado_sin_nombre_13"/>
    <linearGradient id="Degradado_sin_nombre_13-34" data-name="Degradado sin nombre 13" x1="129.085" y1="-954.028" x2="4336.389" y2="1781.972" xlink:href="#Degradado_sin_nombre_13"/>
    <linearGradient id="Degradado_sin_nombre_13-35" data-name="Degradado sin nombre 13" x1="212.282" y1="-1081.966" x2="4419.587" y2="1654.034" xlink:href="#Degradado_sin_nombre_13"/>
    <linearGradient id="Degradado_sin_nombre_13-36" data-name="Degradado sin nombre 13" x1="249.215" y1="-1138.76" x2="4456.52" y2="1597.24" xlink:href="#Degradado_sin_nombre_13"/>
    <linearGradient id="Degradado_sin_nombre_13-37" data-name="Degradado sin nombre 13" x1="119.109" y1="-938.688" x2="4326.413" y2="1797.312" xlink:href="#Degradado_sin_nombre_13"/>
    <linearGradient id="Degradado_sin_nombre_13-38" data-name="Degradado sin nombre 13" x1="230.194" y1="-1109.51" x2="4437.498" y2="1626.49" xlink:href="#Degradado_sin_nombre_13"/>
    <linearGradient id="Degradado_sin_nombre_13-39" data-name="Degradado sin nombre 13" x1="175.467" y1="-1025.352" x2="4382.771" y2="1710.648" xlink:href="#Degradado_sin_nombre_13"/>
    <linearGradient id="Degradado_sin_nombre_13-40" data-name="Degradado sin nombre 13" x1="168.693" y1="-1014.936" x2="4375.997" y2="1721.064" xlink:href="#Degradado_sin_nombre_13"/>
    <linearGradient id="Degradado_sin_nombre_13-41" data-name="Degradado sin nombre 13" x1="207.58" y1="-1074.735" x2="4414.885" y2="1661.265" xlink:href="#Degradado_sin_nombre_13"/>
    <linearGradient id="Degradado_sin_nombre_13-42" data-name="Degradado sin nombre 13" x1="202.734" y1="-1067.282" x2="4410.038" y2="1668.718" xlink:href="#Degradado_sin_nombre_13"/>
    <linearGradient id="Degradado_sin_nombre_13-43" data-name="Degradado sin nombre 13" x1="231.159" y1="-1110.993" x2="4438.463" y2="1625.007" xlink:href="#Degradado_sin_nombre_13"/>
    <linearGradient id="Degradado_sin_nombre_13-44" data-name="Degradado sin nombre 13" x1="227.553" y1="-1105.449" x2="4434.858" y2="1630.551" xlink:href="#Degradado_sin_nombre_13"/>
  </defs>
  <g id="_x5F__x5F__x5F__x5F__x28_0_x29_">
    <g id="_x5F__x5F__x5F__x5F__x5F_">
      <g>
        <rect class="cls-15" width="3840" height="2160"/>
        <g class="cls-41">
          <g>
            <path class="cls-29" d="M.5,1355.668c-.216,0-.415-.141-.479-.358-.078-.265.073-.543.338-.621l621.615-183.306,521.655-153.827,780.33-230.11c.091-.027.189-.027.282,0l356.325,103.948,294.388-104.366c.092-.033.192-.038.289-.014l415.572,103.87,234.643-104.268c.098-.043.207-.054.31-.032l474.89,103.83,138.95,30.378c.27.059.44.326.381.596-.059.269-.327.439-.595.381l-613.68-134.173-234.65,104.272c-.102.044-.215.056-.325.028l-415.593-103.875-294.398,104.369c-.099.035-.206.039-.307.009l-356.339-103.952L.642,1355.648c-.047.014-.095.02-.142.02Z"/>
            <path class="cls-6" d="M136.028,2160.5c-.192,0-.374-.11-.457-.297-.112-.252.001-.548.254-.66l489.162-217.367c.179-.078.387-.048.533.081l246.979,217.367c.207.183.227.499.045.706-.182.207-.498.228-.706.045l-246.738-217.156-488.869,217.237c-.066.029-.135.043-.203.043Z"/>
            <path class="cls-17" d="M.499,783.357c-.234,0-.443-.166-.489-.404-.053-.271.124-.533.395-.586l419.113-82.144,1013.536-198.653,257.831-50.52,229.01-44.893c.064-.013.129-.012.191,0l229.808,44.662,203.199-44.841c.064-.014.131-.015.194-.004l255.265,44.634,177.516-44.822c.065-.016.134-.02.201-.009l280.699,44.605,151.862-44.771c.068-.021.141-.026.213-.015l306.22,44.592,314.31,45.784c.274.04.463.294.423.567-.04.273-.289.461-.567.423l-314.31-45.784-306.111-44.576-151.865,44.772c-.071.021-.146.025-.22.014l-280.708-44.606-177.521,44.823c-.068.018-.139.02-.208.008l-255.272-44.635-203.205,44.842c-.066.015-.136.016-.203.003l-229.815-44.664-228.914,44.875-257.83,50.521-292.46,57.323L.596,783.347c-.032.006-.065.01-.097.01Z"/>
            <path class="cls-10" d="M1568.44,2160.5c-.17,0-.337-.087-.43-.244-.141-.237-.063-.544.174-.686l368.09-219.098c.157-.094.351-.094.508-.002l374.47,219.098c.238.14.318.446.179.684-.14.238-.447.318-.684.179l-374.216-218.949-367.836,218.947c-.08.048-.168.07-.255.07Z"/>
            <path class="cls-1" d="M.499,1109.963c-.224,0-.427-.151-.484-.378-.067-.268.095-.54.363-.607l1622.15-409.477,299.69-75.645c.08-.02.163-.02.244,0l301.068,75.248,256.239-75.56c.081-.024.166-.026.249-.009l343.971,75.204,212.975-75.504c.084-.03.174-.037.263-.019l802.37,155.902c.271.053.448.315.396.587-.054.271-.314.447-.587.395l-802.236-155.876-212.981,75.506c-.087.031-.183.037-.274.017l-343.984-75.207-256.248,75.562c-.085.025-.175.028-.263.005l-301.079-75.251-299.567,75.614L.623,1109.948c-.041.011-.083.016-.123.016Z"/>
            <path class="cls-34" d="M.5,498.503c-.244,0-.458-.179-.494-.427-.041-.273.148-.528.422-.568l312.288-45.829,306.276-44.954,520.096-76.331,222.67-32.69,202.32-29.688,184.63-27.108,169.161-24.815c.047-.007.095-.008.145,0l169.584,24.698,154.874-24.803c.049-.008.097-.008.146-.002l183.672,24.685,140.654-24.787c.05-.009.1-.01.148-.004l197.751,24.67,126.452-24.769c.05-.01.102-.012.154-.006l211.815,24.67,112.259-24.767c.053-.012.107-.015.162-.009l225.87,24.655,98.074-24.763c.058-.015.117-.018.173-.013l240,24.68,59.75,6.139c.275.028.475.274.447.549-.029.274-.28.475-.548.446l-59.75-6.139-239.912-24.67-98.075,24.763c-.059.015-.119.019-.177.013l-225.877-24.656-112.26,24.768c-.055.011-.111.014-.166.008l-211.822-24.671-126.454,24.77c-.052.011-.106.011-.158.006l-197.756-24.67-140.655,24.787c-.051.009-.102.011-.154.003l-183.677-24.685-154.877,24.803c-.05.008-.101.008-.151.001l-169.587-24.699-169.088,24.805-184.63,27.108-202.32,29.688-222.67,32.69L.573,498.497c-.025.004-.049.005-.073.005Z"/>
            <path class="cls-12" d="M625.19,1943.133c-.12,0-.237-.042-.33-.124L.169,1393.217c-.207-.183-.228-.499-.045-.706s.498-.227.706-.045l624.449,549.579,746.677-331.8c.147-.064.316-.056.456.026l564.115,330.05,556.616-331.314c.138-.082.309-.094.457-.028l752.195,329.61,367.06-330.787,226.31-203.95c.205-.186.521-.168.706.036.185.205.168.521-.037.706l-226.31,203.951-367.299,331.002c-.146.131-.356.165-.536.086l-752.254-329.637-556.65,331.334c-.157.093-.351.093-.508.002l-564.148-330.07-746.736,331.826c-.065.029-.135.043-.203.043Z"/>
            <path class="cls-26" d="M3749.83,2160.5c-.067,0-.135-.014-.2-.042l-503.645-220.694-244.8,220.607c-.205.184-.521.168-.707-.037-.185-.206-.168-.521.037-.707l245.04-220.823c.146-.131.356-.165.536-.086l503.94,220.823c.253.111.368.406.257.659-.082.188-.266.299-.458.299Z"/>
            <path class="cls-20" d="M.5,1700.736c-.206,0-.399-.128-.471-.333-.092-.26.044-.546.304-.638l1926.07-682.818c.108-.038.226-.039.332,0l436.403,152.853,345.329-153.455c.108-.048.23-.058.343-.023l523.7,152.775,607.13,177.111c.265.078.417.355.34.62-.078.265-.353.417-.62.34l-607.13-177.111-523.524-152.724-345.343,153.461c-.116.052-.248.057-.368.015l-436.425-152.861-433.333,153.622-543.151,192.557L.667,1700.708c-.055.02-.112.029-.167.029Z"/>
            <path class="cls-40" d="M.5,669.313c-.239,0-.45-.171-.493-.414-.048-.272.134-.531.406-.579l246.96-43.536,372.212-65.621,325.348-57.354,286.81-50.551,687.34-121.179c.058-.01.116-.01.173,0l205.488,35.932,184.07-36.081c.058-.011.118-.012.174-.003l225.976,35.918,163.408-36.064c.059-.013.12-.015.18-.007l246.432,35.904,142.764-36.045c.062-.016.126-.019.189-.011l266.884,35.873,122.128-36.008c.066-.019.137-.025.203-.016l287.419,35.872,74.991,9.368c.274.034.468.284.434.558-.034.274-.284.469-.558.434l-74.99-9.368-287.318-35.86-122.128,36.009c-.067.019-.138.025-.208.016l-266.894-35.874-142.768,36.045c-.063.016-.129.02-.194.01l-246.439-35.905-163.411,36.064c-.061.014-.123.016-.186.006l-225.983-35.919-184.072,36.082c-.06.012-.123.012-.182.002l-205.494-35.933-687.253,121.164-286.81,50.551-325.348,57.354L.587,669.305c-.029.005-.058.008-.087.008Z"/>
            <path class="cls-3" d="M.5,328.01c-.25,0-.466-.187-.496-.442-.032-.274.164-.523.438-.555l246.291-28.889,253.444-29.733,231.273-27.138,211.888-24.845,973.314-114.18c.038-.004.077-.004.117,0l134.379,15.652,125.04-15.727c.039-.005.078-.005.117,0l143.31,15.652,116.028-15.711c.039-.005.078-.006.118-.002l152.227,15.637,107.039-15.71c.04-.006.08-.008.121-.003l161.136,15.637,98.046-15.693c.042-.007.083-.008.125-.004l170.043,15.637,89.055-15.707c.042-.008.084-.01.13-.006l179.02,15.644,191.724,16.738,76.175-16.803c.048-.011.099-.014.149-.01l178.79,14.874c.275.023.48.265.457.539-.023.275-.255.479-.54.457l-178.715-14.868-76.176,16.804c-.049.011-.102.014-.151.01l-191.8-16.745-178.956-15.637-89.054,15.707c-.044.007-.088.01-.133.005l-170.046-15.637-98.049,15.694c-.042.007-.085.009-.127.004l-161.137-15.638-107.042,15.71c-.04.006-.083.007-.123.002l-152.231-15.637-116.031,15.711c-.04.005-.08.006-.121.002l-143.312-15.652-125.041,15.727c-.041.005-.082.005-.121,0l-134.381-15.652-973.256,114.173-211.888,24.845-231.273,27.139-253.444,29.733L.558,328.006c-.02.002-.039.003-.059.003Z"/>
            <path class="cls-13" d="M.5,214.524c-.254,0-.473-.193-.498-.451-.027-.275.174-.52.449-.546l201.47-19.687,216.09-21.104,199.993-19.551,944.247-92.246,242.49-23.699,111.11-10.846,111.407,10.801,104.79-10.846,117.528,10.796,98.619-10.841,123.677,10.796,92.409-10.841,129.837,10.78,86.199-10.84c.035-.005.069-.005.102-.002l135.897,10.797,79.987-10.839c.034-.005.068-.006.105-.003l142.035,10.797,73.794-10.838c.037-.005.074-.006.109-.004l148.172,10.781,67.592-10.822c.038-.006.076-.007.114-.005l154.309,10.782,61.389-10.821c.04-.007.081-.009.121-.006l160.52,10.786,34.97,2.338c.275.018.484.257.465.532-.018.275-.251.488-.533.465l-34.97-2.338-160.458-10.782-61.392,10.821c-.041.007-.08.009-.122.006l-154.312-10.782-67.593,10.822c-.038.006-.074.008-.115.005l-148.176-10.782-73.795,10.839c-.036.005-.073.007-.111.003l-142.037-10.797-79.988,10.839c-.035.005-.071.006-.107.003l-135.9-10.797-86.198,10.84c-.035.004-.069.005-.104.002l-129.79-10.786-92.36,10.845c-.034.004-.067.005-.102.001l-123.63-10.801-98.572,10.846c-.032.003-.066.004-.1.001l-117.48-10.801-104.793,10.846-111.41-10.801-1297.75,126.791-199.993,19.55-216.09,21.104L.549,214.522c-.016.002-.033.002-.049.002Z"/>
            <path class="cls-24" d="M.499,432.897c-.246,0-.46-.182-.494-.433-.037-.274.155-.525.429-.562l184.49-24.996,563.899-76.361,241.422-32.705,927.159-125.554c.044-.006.088-.006.134,0l155.959,20.959,143.472-21.048c.045-.007.09-.008.135-.001l167.919,20.959,131.41-21.048c.045-.007.091-.008.137-.002l179.869,20.945,119.347-21.031c.046-.008.095-.009.141-.004l191.814,20.945,107.295-21.029c.049-.009.098-.011.147-.007l203.82,20.938,220.711,22.679,90.205-22.757c.056-.014.114-.02.171-.013l209.46,20.32c.275.027.476.271.449.546-.026.275-.281.478-.546.449l-209.374-20.311-90.206,22.757c-.057.014-.117.019-.173.012l-220.8-22.688-203.745-20.931-107.298,21.03c-.049.01-.101.011-.15.006l-191.82-20.945-119.349,21.031c-.049.008-.098.01-.145.005l-179.872-20.946-131.412,21.048c-.047.008-.094.008-.141.003l-167.923-20.96-143.473,21.049c-.045.007-.093.007-.139.001l-155.963-20.959-927.093,125.545-241.422,32.705-267.009,36.159-296.89,40.202L.567,432.893c-.023.003-.046.005-.068.005Z"/>
            <path class="cls-42" d="M.499,133.547c-.257,0-.476-.198-.498-.458-.023-.275.182-.517.457-.54L1505.888,6.526l110.251-9.217,104.72-8.779,99.581-8.327,95.095,8.297,94.722-8.342,99.815,8.297,89.953-8.327,104.556,8.296,85.171-8.326,109.287,8.281,80.401-8.326,114.007,8.295,75.639-8.325,118.729,8.28,70.877-8.324,123.452,8.294,66.114-8.324,128.175,8.279,61.341-8.309,132.845,8.275,110.609-16.239c.034-.005.067-.007.102-.005l135.405,7.887,122.686-19.648c.271-.042.529.142.573.415.044.273-.142.529-.415.573l-122.74,19.656c-.036.005-.073.008-.108.005l-135.409-7.886-110.609,16.239c-.034.005-.069.007-.104.005l-132.8-8.282-61.342,8.308-128.179-8.278-66.115,8.324-123.456-8.295-70.878,8.325-118.732-8.28-75.641,8.325-114.011-8.295-80.403,8.326-109.289-8.281-85.174,8.326-104.559-8.296-89.954,8.327-99.818-8.296-94.724,8.341-95.098-8.297-99.495,8.327-104.72,8.779-110.25,9.217L.542,133.545c-.014.001-.028.002-.042.002Z"/>
            <path class="cls-18" d="M3839.5,1687.942c-.055,0-.111-.009-.165-.028l-929.719-325.642-415.96,247.595c-.137.083-.308.094-.456.028l-562.908-246.661-557.928,247.925c-.147.065-.317.056-.456-.025L.248,808.597c-.239-.139-.319-.446-.179-.684.14-.239.446-.318.684-.179l1371.439,802.408,557.896-247.91c.129-.058.275-.058.404-.001l562.874,246.646,415.94-247.583c.127-.076.281-.091.421-.042l703.629,246.452,226.31,79.269c.26.091.398.376.307.637-.072.206-.266.334-.472.334Z"/>
            <path class="cls-39" d="M.5,926.107c-.229,0-.437-.159-.488-.392-.06-.27.111-.537.381-.596l1020.84-225.257,343.06-75.707,556.61-122.808c.07-.016.144-.016.215,0l260.665,56.982,226.696-57.219c.071-.018.146-.02.218-.006l293.151,56.953,193.922-57.183c.074-.022.152-.026.228-.013l325.6,56.924,161.187-57.144c.079-.027.163-.036.245-.022l358.15,56.916,98.4,15.644c.272.044.458.299.415.572-.044.273-.3.459-.573.415l-98.4-15.643-358.025-56.897-161.19,57.145c-.081.029-.169.036-.253.022l-325.615-56.927-193.927,57.185c-.077.023-.157.027-.237.011l-293.161-56.955-226.702,57.221c-.075.019-.153.021-.229.004l-260.673-56.983-556.503,122.785-343.06,75.707L.607,926.095c-.036.008-.072.012-.108.012Z"/>
            <path class="cls-5" d="M.499,285.44c-.251,0-.468-.19-.496-.445-.03-.275.168-.521.443-.552l144.808-15.93,472.997-51.998,207.957-22.869,191.868-21.089,177.59-19.535,318.24-34.983,143.14-15.749,133.85-14.708,125.46-13.803c.037-.004.073-.004.109,0l125.674,13.721,117.493-13.781c.038-.004.074-.004.11,0l133.502,13.721,109.605-13.781c.037-.004.073-.005.11-.002l141.321,13.722,101.713-13.78c.038-.005.075-.005.113-.002l149.139,13.722,93.822-13.78c.039-.006.077-.007.116-.003l156.947,13.722,85.94-13.778c.04-.006.08-.008.121-.004l164.766,13.707,78.045-13.747c.042-.007.085-.008.127-.006l172.573,13.692,70.172-13.745c.044-.008.089-.011.134-.007l221.53,16.82c.275.021.481.261.46.537-.021.275-.254.48-.537.46l-221.462-16.815-70.173,13.745c-.045.009-.09.011-.136.008l-172.577-13.692-78.047,13.747c-.041.008-.085.009-.128.006l-164.769-13.707-85.94,13.778c-.04.006-.08.008-.123.004l-156.952-13.722-93.822,13.779c-.04.005-.079.007-.119.003l-149.144-13.722-101.713,13.78c-.038.005-.077.006-.115.002l-141.324-13.722-109.605,13.781c-.038.005-.076.005-.113,0l-133.504-13.722-117.496,13.781c-.038.005-.076.005-.113,0l-125.675-13.721-125.406,13.797-133.85,14.708-143.14,15.749-318.24,34.983-177.59,19.535-191.868,21.09-207.957,22.869-472.997,51.999L.554,285.436c-.019.002-.037.003-.056.003Z"/>
            <path class="cls-45" d="M.5,72.859c-.26,0-.479-.201-.498-.464-.021-.275.187-.515.462-.535l144.493-10.59,166.833-12.219,305.722-22.371,140.407-10.288,132.982-9.73,126.133-9.247,544.31-39.84,94.29-6.909,82.688,6.879,90.261-6.909,86.608,6.864,86.301-6.894,90.538,6.864,82.341-6.894,94.447,6.864,78.4-6.894,98.369,6.863,74.439-6.893,102.28,6.862,70.498-6.892,106.191,6.862,66.546-6.892,110.103,6.862,62.604-6.892,114.015,6.862,58.662-6.892,117.918,6.861,54.719-6.891,121.831,6.861,99.415-13.483,124.013,6.558,110.611-16.242c.272-.042.527.149.567.422.04.273-.149.527-.422.567l-110.71,16.247-124.019-6.557-99.416,13.482-121.835-6.86-54.719,6.891-117.921-6.861-58.663,6.891-114.019-6.861-62.605,6.891-110.106-6.861-66.547,6.892-106.194-6.862-70.499,6.893-102.282-6.862-74.44,6.893-98.371-6.863-78.401,6.894-94.45-6.863-82.342,6.894-90.54-6.864-86.303,6.894-86.609-6.864-90.263,6.909-82.69-6.879-94.212,6.909L1017.106-1.588l-126.133,9.247-132.982,9.73-140.407,10.288-305.722,22.372-166.833,12.219L.537,72.857c-.012.001-.025.001-.037.001Z"/>
            <path class="cls-28" d="M.5,25.672c-.261,0-.482-.203-.499-.468-.018-.276.191-.513.467-.531L275.478,6.782,417.511-2.465l134.897-8.764,250.435-16.307,714.894-46.508,72.932,5.778,85.907-5.809,76.232,5.793,82.577-5.807,79.522,5.777,79.257-5.808,82.821,5.777,75.927-5.807,86.122,5.777,72.596-5.807,89.412,5.793,69.276-5.808,92.713,5.777,65.945-5.807,96.014,5.777,62.624-5.806,99.295,5.776,59.302-5.791,102.597,5.776,55.98-5.806,105.879,5.776,52.668-5.806,109.171,5.775,49.346-5.79,112.454,5.76,90.292-11.356,114.286,5.533,100.549-13.618c.27-.038.525.155.562.428s-.155.525-.429.562l-100.64,13.622-114.291-5.532-90.294,11.356-112.458-5.76-49.346,5.79-109.175-5.775-52.668,5.806-105.882-5.776-55.981,5.806-102.6-5.776-59.303,5.791-99.298-5.776-62.625,5.807-96.016-5.777-65.946,5.807-92.715-5.777-69.277,5.807-89.414-5.792-72.598,5.807-86.124-5.777-75.928,5.807-82.823-5.778-79.259,5.808-79.523-5.778-82.578,5.808-76.233-5.793-85.908,5.808-72.933-5.778L552.473-10.232,417.576-1.467,125.793,17.525.532,25.671c-.011,0-.021.001-.032.001Z"/>
            <path class="cls-25" d="M.499,184.685c-.255,0-.473-.194-.497-.454-.025-.275.177-.518.452-.544L1810.543,16.166l105.09-9.715,105.382,9.67,99.415-9.715,110.902,9.669,93.855-9.714,116.413,9.668,88.294-9.714,121.924,9.683,82.732-9.728,127.387,9.679,77.22-9.709,132.895,9.663,71.659-9.708c.035-.004.068-.006.102-.003l138.306,9.666,66.097-9.707c.036-.006.071-.007.106-.005l143.87,9.67,151.788,10.193,58.062-10.232c.04-.007.08-.009.119-.007l137.371,8.885c.275.018.484.256.466.532-.018.275-.246.485-.532.466l-137.31-8.881-58.061,10.232c-.04.007-.08.008-.12.006l-151.85-10.198-143.818-9.666-66.095,9.707c-.036.005-.071.006-.107.004l-138.308-9.666-71.661,9.708c-.033.005-.068.007-.104.003l-132.85-9.67-77.171,9.712c-.033.004-.067.005-.1.002l-127.341-9.684-82.734,9.727-121.927-9.682-88.296,9.713-116.415-9.669-93.858,9.714-110.905-9.669-99.417,9.714-105.385-9.669L.546,184.683c-.016.001-.031.002-.047.002Z"/>
            <path class="cls-43" d="M1930.29,1363.188c-.068,0-.137-.014-.201-.042L247.259,625.735.3,517.514c-.253-.111-.369-.406-.258-.659.111-.253.406-.368.658-.257l1492.57,654.043,437.018,191.501,432.668-192.262c.117-.052.248-.057.369-.015l546.18,191.308,929.739-553.406c.237-.141.543-.063.685.174.141.237.064.544-.174.685l-929.94,553.525c-.128.076-.282.091-.421.043l-546.212-191.32-432.689,192.27c-.065.029-.134.043-.203.043Z"/>
            <path class="cls-31" d="M.5,576.101c-.241,0-.454-.175-.493-.421-.044-.273.141-.53.414-.573l456.111-73.058,315.819-50.581,280.49-44.938,250.78-40.157,225.55-36.129,389.25-62.363c.052-.008.106-.008.158,0l185.817,29.539,168.217-29.658c.053-.009.107-.01.159-.002l202.665,29.525,151.226-29.641c.053-.011.108-.012.163-.005l219.481,29.495,134.264-29.624c.056-.012.114-.014.17-.008l236.38,29.507,259.926,32.451,110.44-32.57c.065-.019.133-.025.199-.017l251.871,29.341c.274.032.47.28.439.554-.032.274-.272.471-.555.439l-251.768-29.329-110.442,32.57c-.066.02-.135.025-.204.017l-260.03-32.464-236.294-29.496-134.266,29.624c-.058.012-.117.015-.174.007l-219.489-29.495-151.228,29.641c-.055.011-.112.012-.168.004l-202.67-29.525-168.221,29.659c-.055.01-.111.01-.165.001l-185.821-29.54-389.171,62.35-225.55,36.129-250.78,40.157-280.49,44.939-315.819,50.581L.579,576.095c-.027.004-.053.006-.08.006Z"/>
            <path class="cls-9" d="M.5,111.462c-.258,0-.477-.199-.498-.46-.022-.275.184-.517.458-.539l617.186-49.298,152.816-12.219,144.042-11.495,136.006-10.876,679.45-54.277,90.563,7.905,94.745-7.935,95.072,7.89,90.196-7.935,99.573,7.904,85.655-7.935,104.073,7.904,81.114-7.934,108.575,7.888,76.562-7.918,113.086,7.888,72.02-7.933,117.588,7.887,67.478-7.917,122.09,7.888,62.945-7.917,126.574,7.887,58.412-7.931,268.533,16.164,51.865-8.303c.036-.006.073-.007.108-.006l122.74,7.136c.276.016.486.253.47.528s-.251.49-.528.47l-122.686-7.132-51.866,8.303c-.036.005-.073.007-.109.005l-268.49-16.171-58.413,7.931-126.579-7.886-62.947,7.917-122.094-7.887-67.479,7.917-117.592-7.887-72.021,7.933-113.089-7.888-76.564,7.918-108.578-7.888-81.115,7.934-104.077-7.904-85.656,7.934-99.576-7.904-90.197,7.935-95.075-7.89-94.747,7.935-90.565-7.904L914.584,38.448l-144.043,11.495-152.815,12.219L.54,111.46c-.014.001-.027.002-.041.002Z"/>
            <path class="cls-14" d="M1915.949,27.389l-205.167-19.912-94.651-9.172-89.92-8.734-457.419-44.395-127.062-12.34-59.644-5.778L177.334-141.354.519-134.744c-.286.009-.508-.205-.518-.481-.01-.276.205-.508.481-.518l176.882-6.607L1915.948,26.394l104.973-10.273,111.225,10.228,99.092-10.273,117.055,10.227,93.212-10.272,122.876,10.227,87.34-10.257,128.647,10.192,81.519-10.237c.033-.004.066-.005.1-.003l134.367,10.193,75.648-10.235c.035-.005.069-.005.103-.003l140.186,10.194,69.775-10.235c.036-.005.071-.006.107-.004l145.993,10.193,124.513-19.949c.037-.006.075-.007.111-.005l149.31,9.666,137.311-24.217c.272-.048.531.133.58.406.048.272-.134.531-.406.579l-137.371,24.227c-.039.007-.08.01-.119.007l-149.315-9.666-124.514,19.949c-.038.006-.076.007-.114.005l-145.998-10.194-69.775,10.235c-.036.006-.073.007-.108.004l-140.188-10.194-75.649,10.236c-.035.005-.07.006-.104.003l-134.37-10.194-81.521,10.237c-.033.005-.066.005-.102.003l-128.6-10.198-87.343,10.256-122.879-10.226-93.214,10.271-117.058-10.227-99.095,10.272-111.227-10.227-104.976,10.272Z"/>
            <path class="cls-8" d="M.499,55.873c-.26,0-.48-.201-.498-.465-.019-.275.188-.514.464-.534l81.897-5.762,163.861-11.51L685.809,6.692l256.257-17.997,118.709-8.357,323.63-22.734,282.14-19.837,79.334,6.291,86.244-6.321,82.924,6.291,82.624-6.321,86.504,6.29,79.004-6.305,90.094,6.29,75.393-6.32,93.675,6.29,71.773-6.32,97.266,6.289,68.152-6.32,100.847,6.29,64.54-6.32,104.429,6.289,60.918-6.303,108.01,6.273,57.317-6.303,111.592,6.273,53.693-6.303,115.176,6.273,50.081-6.302,118.758,6.272,46.476-6.301,122.322,6.271,65.83,3.394c.276.015.488.249.474.525-.015.276-.274.486-.525.474l-65.831-3.394-122.229-6.275-46.478,6.302-118.763-6.272-50.082,6.303-115.179-6.273-53.694,6.303-111.596-6.273-57.317,6.303-108.014-6.273-60.92,6.304-104.431-6.289-64.541,6.32-100.85-6.289-68.153,6.319-97.268-6.289-71.774,6.319-93.678-6.289-75.394,6.32-90.097-6.29-79.005,6.306-86.507-6.291-82.625,6.32-82.925-6.291-86.246,6.321-79.336-6.291-492.655,34.636-113.04,7.935-118.709,8.357L685.879,7.69l-439.586,30.91-163.86,11.51L.535,55.872c-.012,0-.024.001-.036.001Z"/>
            <path class="cls-2" d="M3839.5,1104.024c-.04,0-.081-.004-.121-.015l-848.473-212.073-282.033,125.322c-.108.047-.23.056-.343.023l-427.935-124.838-353.858,125.446c-.107.038-.225.039-.333,0l-905.229-317.068-564.729-197.807-143.823-50.369-127.799-44.773L.335,343.263c-.261-.091-.398-.377-.307-.637.092-.26.376-.398.637-.306l184.49,64.61,127.798,44.773,306.884,107.483,1306.731,457.704,353.844-125.441c.099-.035.207-.037.307-.009l427.914,124.832,282.023-125.317c.101-.045.215-.056.324-.028l848.64,212.114c.268.067.431.339.364.606-.057.227-.261.379-.485.379Z"/>
            <path class="cls-11" d="M.5,376.69c-.249,0-.464-.185-.496-.438-.034-.274.16-.524.434-.558l1916.56-240.956c.041-.006.083-.005.124,0l144.365,18.019,133.636-18.093c.041-.006.083-.006.125-.001l154.645,18.019,123.254-18.092c.042-.007.085-.007.127-.003l164.914,18.004,112.893-18.076c.042-.007.086-.009.13-.004l175.181,18.005,102.541-18.075c.044-.007.09-.01.135-.005l185.427,17.99,92.198-18.058c.047-.009.095-.011.142-.007l195.672,17.989,81.844-18.07c.049-.011.1-.015.151-.01l255.04,22.281c.275.024.479.266.454.541-.024.275-.269.482-.541.454l-254.962-22.274-81.846,18.071c-.051.011-.103.015-.153.01l-195.678-17.99-92.2,18.058c-.047.009-.096.012-.145.007l-185.433-17.99-102.541,18.075c-.045.008-.092.01-.138.005l-175.184-18.005-112.896,18.077c-.044.007-.089.008-.133.003l-164.917-18.005-123.256,18.093c-.043.007-.087.007-.131.002l-154.647-18.02-133.638,18.094c-.043.005-.087.005-.129,0l-144.368-18.019-299.208,37.63-167.68,21.074-181.74,22.854-197.64,24.846-452.101,56.841L.562,376.686c-.021.003-.042.004-.062.004Z"/>
            <path class="cls-36" d="M.499,12.201c-.262,0-.481-.204-.498-.468-.018-.275.192-.513.468-.53L617.3-27.492l120.789-7.588,431.539-27.063,363.59-22.808,70.32,5.325,82.279-5.355,73.359,5.34,79.21-5.37,76.399,5.341,76.14-5.355,79.449,5.325,73.07-5.355,82.479,5.34,70.01-5.355,85.519,5.325,66.939-5.354,88.569,5.324,63.869-5.339,91.601,5.324,60.807-5.355,94.642,5.325,57.736-5.339,97.673,5.324,54.685-5.353,100.705,5.323,51.622-5.354,103.747,5.323,48.55-5.338,106.779,5.323,45.497-5.353,109.812,5.322,42.434-5.336,172.405,8.127c.276.013.489.247.476.523-.013.276-.256.49-.523.476l-172.32-8.131-42.434,5.337-109.817-5.322-45.497,5.353-106.784-5.322-48.55,5.337-103.75-5.323-51.623,5.353-100.708-5.323-54.685,5.354-97.676-5.324-57.737,5.339-94.645-5.324-60.808,5.354-91.603-5.324-63.869,5.339-88.572-5.324-66.94,5.355-85.521-5.325-70.011,5.355-82.481-5.34-73.071,5.355-79.45-5.325-76.141,5.355-76.4-5.34-79.211,5.37-73.36-5.34-82.282,5.356-70.321-5.326L.531,12.2c-.011,0-.021,0-.032,0Z"/>
            <path class="cls-23" d="M3839.501,55.797c-.012,0-.024,0-.036-.001l-256.879-17.947-65.009,11.469c-.041.007-.081.01-.123.007l-156.893-11.43-71.583,11.471c-.038.006-.076.007-.117.004l-150.385-11.415-78.145,11.457c-.038.006-.075.007-.112.004l-143.876-11.415-84.717,11.472c-.036.005-.072.007-.108.003l-137.38-11.43-91.286,11.473c-.036.004-.072.005-.106.002l-130.859-11.415-97.859,11.474c-.034.004-.069.004-.104.001l-124.34-11.43-104.45,11.475c-.034.004-.068.004-.102,0l-117.871-11.435-110.97,11.495c-.034.003-.068.003-.102,0l-111.35-11.45-105.15-10.801L1416.469-1.665l-84.93-8.719-608.44-62.543-379.544-38.995-40.082-4.134-246.042-25.283-56.913,2.084c-.271.007-.508-.205-.518-.481-.01-.276.206-.508.481-.518l56.983-2.082L1916.14,48.685l111.019-11.489,117.917,11.429,104.449-11.475c.034-.003.067-.003.101,0l124.336,11.43,97.859-11.474c.035-.003.069-.004.102-.002l130.857,11.415,91.287-11.473c.035-.004.07-.005.104-.002l137.375,11.43,84.717-11.472c.035-.005.07-.006.106-.003l143.873,11.415,78.145-11.457c.036-.005.074-.006.11-.004l150.381,11.415,71.582-11.471c.038-.006.076-.008.116-.005l156.889,11.43,65.008-11.469c.04-.007.08-.01.122-.007l256.94,17.952c.275.019.483.258.464.533-.019.263-.238.465-.498.465Z"/>
            <path class="cls-35" d="M1924.1,788.425c-.047,0-.094-.007-.14-.02l-301.45-87.939-258.25-75.343-419.38-122.341-172.59-50.34L145.168,269.489.36,227.251c-.265-.078-.418-.355-.34-.62.077-.265.356-.416.62-.34l771.93,225.192,172.59,50.34,978.939,285.582,299.299-88.261c.086-.025.176-.028.263-.005l351.434,87.839,248.758-88.189c.087-.031.182-.037.274-.017l401.48,87.777,198.28-88.109,169.9-75.505,147.11-65.364,98.4-43.733c.251-.112.548.002.66.254.112.253-.001.548-.254.66l-98.4,43.732-147.11,65.364-169.9,75.505-198.43,88.176c-.097.043-.205.054-.309.032l-401.502-87.782-248.765,88.192c-.093.033-.193.037-.288.014l-351.448-87.843-299.309,88.264c-.046.014-.094.021-.142.021Z"/>
            <path class="cls-46" d="M.5,247.893c-.253,0-.47-.192-.497-.449-.028-.274.172-.52.446-.549L1916.088,48.69c.035-.004.068-.004.102,0l118.028,12.123,110.806-12.183c.035-.004.068-.004.103,0l124.956,12.138,103.828-12.182c.034-.004.068-.004.104-.002l131.866,12.124,96.845-12.182c.035-.005.07-.005.106-.002l138.784,12.124,89.876-12.167c.036-.005.072-.005.108-.003l145.682,12.124,82.903-12.181c.038-.006.076-.007.112-.004l152.59,12.124,75.932-12.164c.039-.006.079-.008.117-.005l159.56,12.114,169.441,12.878,65.905-12.915c.043-.008.088-.011.132-.008l155.56,11.314c.275.02.482.26.462.535-.02.276-.257.477-.535.463l-155.493-11.309-65.904,12.915c-.044.008-.089.011-.134.008l-169.511-12.883-159.502-12.109-75.932,12.164c-.039.006-.079.008-.118.005l-152.595-12.124-82.903,12.181c-.038.005-.075.007-.114.003l-145.686-12.124-89.875,12.167c-.037.005-.073.006-.11.003l-138.787-12.124-96.847,12.182c-.037.005-.073.005-.108.002l-131.869-12.124-103.828,12.183c-.036.004-.071.005-.106.001l-124.96-12.139-110.807,12.183c-.035.004-.071.004-.106,0l-118.028-12.123-243.039,25.141-275.65,28.527-152.16,15.733-527.092,54.549L.552,247.89c-.018.002-.035.003-.052.003Z"/>
            <path class="cls-38" d="M3839.501,666.822c-.028,0-.058-.002-.086-.007l-245.51-42.931-372.221-65.07-184.386,65.366c-.085.029-.176.037-.262.019l-335.14-65.115-221.844,65.42c-.081.024-.166.027-.248.009l-298.005-65.158-259.336,65.471c-.079.02-.164.02-.244,0l-260.94-65.229-228.25-57.052-201.32-50.309-178.91-44.728-160.032-39.991L201.848,194.823l-84.102-21.013-77.863-19.475L.379,144.468c-.268-.066-.431-.338-.364-.606.067-.268.339-.431.606-.364l39.504,9.865,77.863,19.476,274.285,68.547,500.735,125.162,160.032,39.991,178.91,44.727,201.32,50.309,489.069,122.25,259.328-65.469c.075-.019.154-.02.23-.004l297.995,65.156,221.837-65.419c.076-.022.159-.027.237-.011l335.126,65.112,184.382-65.364c.081-.03.169-.037.253-.021l372.351,65.093,245.509,42.931c.272.048.454.306.407.579-.043.243-.254.414-.492.414Z"/>
            <path class="cls-19" d="M.499,157.833c-.256,0-.474-.196-.497-.456-.024-.275.179-.517.454-.542l39.504-3.485,206.453-18.147,192.136-16.88,346.889-30.502,157.103-13.803,286.354-25.177,254.391-22.356,227.5-20.003,104.96-9.217,99.979,9.187,99.588-9.232,105.209,9.187,94.308-9.216,110.45,9.171,89.017-9.216,115.691,9.17,83.736-9.215,120.922,9.171,78.464-9.201,126.145,9.17,73.181-9.215,131.327,9.165,67.959-9.21c.032-.005.065-.006.101-.003l136.448,9.168,62.695-9.194c.035-.005.071-.007.105-.004l141.663,9.153,57.426-9.193c.036-.005.073-.008.11-.005l146.94,9.172,82.319,5.129c.276.018.485.255.468.53-.018.276-.271.486-.53.468l-82.32-5.129-146.885-9.168-57.425,9.193c-.037.006-.074.008-.111.006l-141.666-9.154-62.699,9.194c-.034.006-.068.008-.106.005l-136.45-9.168-67.959,9.21c-.034.005-.068.006-.102.003l-131.28-9.171-73.182,9.214-126.149-9.169-78.465,9.2-120.926-9.17-83.737,9.216-115.694-9.171-89.019,9.216-110.453-9.171-94.31,9.216-105.212-9.187-99.59,9.232-99.983-9.186L40.048,154.347l-39.504,3.485c-.015.001-.03.002-.045.002Z"/>
            <path class="cls-16" d="M1921.01,502.334c-.036,0-.072-.004-.108-.012l-434.449-94.992-182.861-39.976-164.54-35.979-148.849-32.554-135.292-29.566-123.511-27.018-217.335-47.503-267.715-58.546-76.914-16.805L.394,82.426c-.27-.059-.441-.325-.382-.595.059-.27.326-.44.595-.382l731.009,159.813,123.51,27.018,135.293,29.567,148.849,32.553,164.54,35.979,182.86,39.975,434.342,94.969,228.783-50.482c.067-.015.137-.016.204-.003l258.59,50.243,199.861-50.448c.069-.018.14-.02.209-.008l287.225,50.214,170.978-50.427c.071-.02.145-.026.22-.014l315.824,50.199,456.43-161.807c.261-.092.546.044.639.304.092.26-.044.546-.305.639l-314.31,111.419-142.239,50.43c-.08.028-.165.035-.246.022l-315.838-50.201-170.982,50.428c-.074.022-.153.026-.227.013l-287.235-50.215-199.867,50.449c-.072.018-.146.02-.218.006l-258.598-50.244-228.789,50.483c-.036.008-.071.012-.107.012Z"/>
            <path class="cls-7" d="M.5,91.323c-.259,0-.478-.2-.498-.462-.021-.275.185-.516.46-.537l30.118-2.308,350.753-26.792,159.823-12.219,150.645-11.51,142.235-10.877,606.656-46.342,203-15.523,94.55-7.211,86.539,7.181,90.328-7.226,90.64,7.196,86.199-7.226,94.729,7.195,82.058-7.225,98.841,7.195,77.927-7.225,102.932,7.195,73.787-7.224,107.032,7.179,69.655-7.209,111.124,7.179,65.523-7.209,115.226,7.179,61.391-7.208,119.309,7.178,57.267-7.208,123.401,7.178,53.144-7.207,127.445,7.159,49.06-7.188,131.58,7.161,26.15,1.433c.276.015.487.251.472.527-.016.276-.257.488-.527.472l-26.15-1.433-131.479-7.166-49.01,7.191c-.033.005-.065.006-.101.005l-127.399-7.166-53.145,7.207-123.406-7.177-57.268,7.207-119.312-7.178-61.392,7.209-115.229-7.179-65.524,7.209-111.127-7.178-69.656,7.209-107.035-7.179-73.788,7.225-102.934-7.195-77.929,7.225-98.842-7.195-82.06,7.226-94.731-7.195-86.201,7.225-90.641-7.195-90.331,7.226-86.542-7.181-94.47,7.211L381.409,62.222,30.656,89.013l-30.118,2.308c-.013.001-.026.002-.039.002Z"/>
            <path class="cls-32" d="M1916.41,74.774c-.018,0-.036-.001-.054-.003l-229.281-25.042-104.809-11.435L30.361-131.187l-29.915-3.258c-.275-.03-.473-.277-.443-.552.03-.274.273-.471.551-.442L1483.385,26.486l98.99,10.816,104.81,11.435,229.226,25.035,117.756-12.952c.035-.004.071-.004.106,0l125.415,12.892,110.345-12.936c.035-.004.071-.004.107-.001l132.765,12.877,102.925-12.936c.035-.005.072-.006.108-.001l140.114,12.877,95.513-12.935c.037-.005.073-.006.11-.002l147.453,12.877,88.102-12.919c.038-.006.076-.006.113-.004l154.79,12.863,80.7-12.918c.039-.007.079-.008.119-.005l162.116,12.878,73.307-12.932,69.03-12.159c.04-.007.081-.009.123-.006l166.383,12.109,155.494-30.489c.274-.054.534.124.587.395.053.271-.123.533-.394.587l-155.561,30.502c-.044.009-.088.011-.133.008l-166.388-12.109-68.969,12.148-73.37,12.943c-.041.007-.082.01-.126.006l-162.119-12.878-80.702,12.919c-.04.006-.081.007-.121.004l-154.793-12.863-88.103,12.92c-.038.006-.077.007-.116.003l-147.454-12.878-95.516,12.936c-.038.005-.076.006-.112.003l-140.115-12.878-102.927,12.936c-.036.005-.074.005-.111.002l-132.767-12.878-110.347,12.937c-.036.004-.073.004-.109.001l-125.417-12.892-117.757,12.952c-.018.002-.036.003-.055.003Z"/>
            <path class="cls-21" d="M3839.501,431.66c-.022,0-.045-.002-.067-.005l-187.971-25.268-296.564-39.871-135.788,40.051c-.069.02-.142.025-.213.015l-273.862-39.886-158.723,40.057c-.066.017-.133.02-.201.009l-251.116-39.9-181.687,40.091c-.064.014-.129.016-.194.004l-228.359-39.93-204.668,40.109c-.064.012-.128.012-.191,0l-205.67-39.961-185.07-35.948-167.42-32.539-152.17-29.567-266.264-51.727-117.134-22.764-108.114-20.999-100.095-19.46L.405,34.186c-.271-.053-.448-.315-.396-.586.053-.271.319-.449.586-.395l1528.75,297.043,185.069,35.948,205.576,39.942,204.663-40.108c.06-.012.122-.013.182-.002l228.354,39.928,181.683-40.09c.061-.013.124-.016.186-.006l251.108,39.899,158.721-40.056c.064-.015.13-.018.194-.01l273.853,39.885,135.784-40.05c.068-.02.139-.026.208-.016l296.67,39.885,187.97,25.268c.274.036.466.288.429.562-.034.251-.248.433-.495.434Z"/>
            <path class="cls-22" d="M.5,40.184c-.261,0-.481-.202-.499-.466-.019-.276.19-.514.466-.533l22.881-1.539L480.668,6.737l136.73-9.232,973.198-65.771,76.023,6.035,86.116-6.049,79.463,6.019,82.635-6.05,82.913,6.019,79.166-6.049,86.343,6.034,75.705-6.064,89.784,6.033,72.224-6.048,93.225,6.019,68.764-6.048,96.655,6.018,65.303-6.048,100.086,6.018,61.831-6.048,103.518,6.033,58.379-6.047,106.95,6.017,54.907-6.047,110.381,6.017,51.455-6.047,113.805,6.017,47.991-6.046,117.248,6.016,44.528-6.03,120.672,6,22.86,1.146c.276.014.488.249.475.524-.014.276-.239.486-.524.475l-143.44-7.151-44.528,6.03-117.253-6.015-47.991,6.046-113.809-6.016-51.456,6.046-110.385-6.016-54.908,6.046-106.953-6.017-58.38,6.048-103.521-6.032-61.832,6.047-100.089-6.017-65.304,6.048-96.657-6.018-68.765,6.048-93.227-6.018-72.226,6.048-89.785-6.033-75.707,6.063-86.344-6.033-79.167,6.049-82.914-6.019-82.638,6.049-79.464-6.019-86.117,6.049-76.024-6.034-89.577,6.065L.533,40.183c-.011.001-.023.001-.034.001Z"/>
            <path class="cls-44" d="M1919.17,331.072c-.029,0-.058-.003-.086-.008l-355.02-62.061-154.33-26.988-391.69-68.471-400.279-69.996-83.917-14.663-222.108-38.845-65.567-11.449L.414-4.385c-.272-.048-.454-.307-.406-.579.047-.272.309-.455.579-.406l1137.739,198.929,271.58,47.473,154.33,26.988,354.933,62.045,185.144-32.629c.054-.01.11-.01.166,0l204.423,32.479,166.452-32.612c.056-.011.113-.012.168-.004l222.939,32.465,147.761-32.61c.057-.012.116-.015.174-.007l241.444,32.465,246.488-62.218c.059-.015.12-.019.18-.012l253.079,29.48,251.772-74.236c.267-.078.543.074.621.338.078.265-.073.543-.338.621l-251.87,74.264c-.065.019-.131.025-.2.017l-253.089-29.481-117.3,29.605-129.19,32.614c-.062.015-.127.019-.189.011l-241.453-32.467-147.763,32.61c-.06.013-.12.015-.179.006l-222.945-32.466-166.457,32.612c-.058.012-.116.013-.175.004l-204.428-32.48-185.148,32.63c-.028.005-.057.008-.086.008Z"/>
            <path class="cls-30" d="M3839.499,284.791c-.018,0-.036-.001-.054-.003l-151.419-16.533-246.402-26.917-107.052,27.025c-.059.015-.121.019-.18.012l-231.078-26.917-122.527,27.03c-.056.013-.113.015-.17.008l-215.741-26.933-138.021,27.062c-.054.011-.11.012-.163.005l-200.382-26.947-153.523,27.065c-.053.009-.106.01-.159.002l-185.024-26.946-169.025,27.066c-.052.007-.105.008-.158,0l-169.72-26.972-155.57-24.71-143.1-22.748-132.1-20.983-122.29-19.445-113.56-18.042-105.717-16.805-98.665-15.674-92.295-14.678L60.383-26.393.421-35.927c-.272-.043-.458-.3-.415-.572.043-.274.299-.458.573-.416l1917.921,304.784,169.022-27.065c.05-.008.102-.008.151-.001l185.019,26.946,153.522-27.064c.051-.009.103-.01.154-.003l200.378,26.947,138.019-27.062c.051-.011.105-.012.158-.006l215.735,26.932,122.526-27.029c.054-.012.108-.015.165-.008l231.069,26.917,107.05-27.025c.057-.014.117-.018.177-.012l246.49,26.927,151.42,16.533c.274.03.472.277.442.552-.028.256-.245.446-.498.446Z"/>
            <path class="cls-37" d="M1917.94,217.088c-.024,0-.048-.002-.072-.005l-557.39-81.188-115.31-16.805L9-60.968l-8.572-1.237c-.273-.04-.463-.293-.424-.566.04-.273.293-.466.567-.423l8.573,1.237L1917.94,216.083l155.488-22.828c.045-.007.093-.007.139,0l168.978,22.724,142.407-22.812c.047-.008.095-.008.141-.002l181.925,22.709,129.347-22.811c.048-.008.098-.01.144-.004l194.861,22.709,116.294-22.794c.05-.01.102-.012.15-.007l207.788,22.695,103.241-22.791,95.34-21.029c.051-.012.104-.014.156-.009l215.663,20.93,209.376-52.853c.267-.066.54.094.607.363.068.268-.095.54-.362.607l-49.04,12.37-160.42,40.504c-.056.014-.115.018-.171.013l-215.672-20.93-95.262,21.012-103.321,22.809c-.053.012-.109.015-.162.009l-207.795-22.695-116.294,22.794c-.051.01-.103.012-.154.006l-194.868-22.71-129.348,22.811c-.049.009-.098.01-.149.004l-181.929-22.71-142.41,22.813c-.048.007-.098.008-.146.001l-168.978-22.724-155.492,22.829c-.024.004-.048.005-.072.005Z"/>
            <path class="cls-27" d="M3839.501,184.338c-.015,0-.031,0-.046-.002l-336.882-30.978-88.174,19.458c-.052.012-.104.014-.156.01l-199.697-19.393-99.318,19.476c-.049.01-.099.011-.147.007l-188.651-19.393-110.471,19.478c-.047.008-.094.01-.141.004l-177.601-19.407-121.626,19.495c-.045.007-.091.008-.137.003l-166.545-19.407-132.795,19.495c-.044.007-.09.007-.134.002l-155.484-19.422-143.956,19.511c-.045.006-.09.006-.134,0l-144.47-19.429-259.04-34.816-423.84-56.992-175.576-23.593-80.47-10.831L.434-84.44c-.274-.036-.466-.288-.429-.562.037-.274.291-.467.562-.429L685.91,6.695l953.006,128.133,134.15,18.027,144.403,19.42,143.953-19.511c.042-.006.086-.006.129,0l155.483,19.422,132.793-19.495c.043-.006.086-.007.13-.002l166.541,19.407,121.622-19.494c.044-.007.09-.008.133-.003l177.599,19.407,110.471-19.478c.045-.008.091-.01.138-.005l188.646,19.392,99.316-19.475c.047-.009.096-.012.145-.007l199.692,19.392,88.172-19.458c.05-.012.102-.016.153-.01l336.96,30.985c.275.025.477.269.452.544-.024.259-.242.454-.497.454Z"/>
            <path class="cls-4" d="M1917.06,135.734c-.021,0-.042-.002-.062-.004l-134.46-16.774-125.5-15.674-117.41-14.648-110.06-13.742-103.39-12.898-97.3-12.159L340.766-61.011.44-103.491c-.274-.033-.469-.282-.437-.556s.283-.47.557-.436l2.506.301L617.394-27.489,817.335-2.538l73.664,9.202,338.003,42.178,97.3,12.159,103.39,12.898,110.06,13.743,117.41,14.648,125.5,15.674,134.398,16.767,134.028-16.843c.04-.004.082-.005.12,0l143.977,16.768,124.369-16.842c.041-.005.082-.006.121-.001l153.537,16.768,114.716-16.841c.041-.006.084-.006.123-.002l163.095,16.768,105.075-16.84c.042-.006.084-.008.127-.003l172.653,16.768,95.432-16.824c.043-.007.088-.01.133-.005l182.198,16.753,165.93-32.525c.045-.009.091-.012.138-.008l187.844,15.622,178.717-39.432c.266-.06.536.111.596.381.06.269-.111.536-.381.596l-178.79,39.448c-.048.011-.098.013-.149.01l-187.852-15.622-165.93,32.525c-.046.009-.095.012-.142.007l-182.204-16.754-95.434,16.823c-.045.008-.091.01-.135.005l-172.656-16.769-105.076,16.84c-.044.007-.087.008-.13.004l-163.099-16.768-114.717,16.841c-.041.006-.084.007-.127.002l-153.539-16.768-124.37,16.842c-.041.005-.082.006-.125.002l-143.979-16.768-134.03,16.842c-.021.003-.042.004-.062.004Z"/>
            <path class="cls-33" d="M3839.501,111.296c-.014,0-.027,0-.041-.002l-107.64-8.553-184.062-14.612-74.872,14.68c-.045.009-.092.011-.138.007l-175.746-14.627-83.275,14.682c-.043.008-.088.01-.13.006l-167.429-14.612-91.679,14.683c-.04.006-.082.008-.124.004l-159.092-14.627-100.1,14.684c-.04.006-.081.007-.121.003l-150.752-14.627-108.523,14.7c-.039.005-.08.006-.118.001l-142.404-14.642-116.942,14.701c-.04.005-.079.006-.117,0l-134.053-14.641-125.374,14.716c-.039.005-.078.005-.117,0l-125.759-14.647-117.901-13.743L1095.922,7.612l-78.91-9.203-74.969-8.719L.533-119.994c-.008-.001-.107-.017-.115-.019-.272-.045-.457-.302-.412-.574.045-.273.302-.455.575-.412l.092.015L1916.709,102.222l125.373-14.716c.037-.005.075-.004.112,0l134.052,14.641,116.941-14.701c.038-.004.076-.005.113-.001l142.401,14.641,108.521-14.7c.037-.005.075-.006.115-.003l150.749,14.627,100.099-14.684c.04-.006.079-.007.119-.003l159.089,14.627,91.676-14.683c.042-.007.084-.008.123-.005l167.424,14.612,83.276-14.681c.042-.008.086-.01.128-.006l175.74,14.627,74.872-14.679c.045-.009.09-.012.136-.008l184.13,14.618,107.64,8.553c.275.022.481.263.459.538-.021.262-.24.461-.497.461Z"/>
          </g>
        </g>
      </g>
    </g>
  </g>
</svg>