<?xml version="1.0" encoding="UTF-8"?>
<svg id="_x5F__x5F__x5F__x5F__x5F__x5F___x5F__x5F__x5F__x5F__x5F__x5F__x5F__x5F__x5F_" xmlns="http://www.w3.org/2000/svg" xmlns:xlink="http://www.w3.org/1999/xlink" viewBox="0 0 3840 2160">
  <defs>
    <style>
      .cls-1 {
        fill: url(#Degradado_sin_nombre_13-5);
      }

      .cls-2 {
        fill: url(#Degradado_sin_nombre_13-26);
      }

      .cls-3 {
        fill: url(#Degradado_sin_nombre_13-11);
      }

      .cls-4 {
        fill: url(#Degradado_sin_nombre_13-43);
      }

      .cls-5 {
        fill: url(#Degradado_sin_nombre_13-17);
      }

      .cls-6 {
        fill: url(#Degradado_sin_nombre_13-2);
      }

      .cls-7 {
        fill: url(#Degradado_sin_nombre_13-49);
      }

      .cls-8 {
        fill: url(#Degradado_sin_nombre_13-46);
      }

      .cls-9 {
        fill: url(#Degradado_sin_nombre_13-35);
      }

      .cls-10 {
        fill: url(#Degradado_sin_nombre_13-25);
      }

      .cls-11 {
        fill: url(#Degradado_sin_nombre_13-23);
      }

      .cls-12 {
        fill: url(#Degradado_sin_nombre_13-4);
      }

      .cls-13 {
        fill: url(#Degradado_sin_nombre_13-47);
      }

      .cls-14 {
        fill: url(#Degradado_sin_nombre_13-27);
      }

      .cls-15 {
        fill: url(#Degradado_sin_nombre_13-7);
      }

      .cls-16 {
        fill: url(#Degradado_sin_nombre_13-12);
      }

      .cls-17 {
        fill: url(#Degradado_sin_nombre_13-24);
      }

      .cls-18 {
        fill: #fff;
      }

      .cls-19 {
        fill: url(#Degradado_sin_nombre_13-34);
      }

      .cls-20 {
        fill: url(#Degradado_sin_nombre_13-53);
      }

      .cls-21 {
        fill: url(#Degradado_sin_nombre_13-3);
      }

      .cls-22 {
        fill: url(#Degradado_sin_nombre_13-15);
      }

      .cls-23 {
        fill: url(#Degradado_sin_nombre_13-33);
      }

      .cls-24 {
        fill: url(#Degradado_sin_nombre_13-45);
      }

      .cls-25 {
        fill: url(#Degradado_sin_nombre_13-9);
      }

      .cls-26 {
        fill: url(#Degradado_sin_nombre_13-50);
      }

      .cls-27 {
        fill: url(#Degradado_sin_nombre_13-37);
      }

      .cls-28 {
        fill: url(#Degradado_sin_nombre_13-38);
      }

      .cls-29 {
        fill: url(#Degradado_sin_nombre_13-54);
      }

      .cls-30 {
        fill: url(#Degradado_sin_nombre_13-29);
      }

      .cls-31 {
        fill: url(#Degradado_sin_nombre_13-52);
      }

      .cls-32 {
        fill: url(#Degradado_sin_nombre_13-13);
      }

      .cls-33 {
        fill: url(#Degradado_sin_nombre_13-20);
      }

      .cls-34 {
        fill: url(#Degradado_sin_nombre_13-8);
      }

      .cls-35 {
        fill: url(#Degradado_sin_nombre_13-42);
      }

      .cls-36 {
        fill: url(#Degradado_sin_nombre_13-19);
      }

      .cls-37 {
        fill: url(#Degradado_sin_nombre_13);
      }

      .cls-38 {
        fill: url(#Degradado_sin_nombre_13-40);
      }

      .cls-39 {
        fill: url(#Degradado_sin_nombre_13-22);
      }

      .cls-40 {
        fill: url(#Degradado_sin_nombre_13-36);
      }

      .cls-41 {
        fill: url(#Degradado_sin_nombre_13-44);
      }

      .cls-42 {
        fill: url(#Degradado_sin_nombre_13-6);
      }

      .cls-43 {
        fill: url(#Degradado_sin_nombre_13-51);
      }

      .cls-44 {
        fill: url(#Degradado_sin_nombre_13-30);
      }

      .cls-45 {
        fill: url(#Degradado_sin_nombre_13-28);
      }

      .cls-46 {
        fill: url(#Degradado_sin_nombre_13-41);
      }

      .cls-47 {
        fill: url(#Degradado_sin_nombre_13-48);
      }

      .cls-48 {
        fill: url(#Degradado_sin_nombre_13-32);
      }

      .cls-49 {
        fill: url(#Degradado_sin_nombre_13-16);
      }

      .cls-50 {
        fill: url(#Degradado_sin_nombre_13-10);
      }

      .cls-51 {
        clip-path: url(#clippath);
      }

      .cls-52 {
        fill: url(#Degradado_sin_nombre_13-14);
      }

      .cls-53 {
        fill: url(#Degradado_sin_nombre_13-21);
      }

      .cls-54 {
        fill: url(#Degradado_sin_nombre_13-39);
      }

      .cls-55 {
        fill: url(#Degradado_sin_nombre_13-18);
      }

      .cls-56 {
        fill: url(#Degradado_sin_nombre_13-31);
      }
    </style>
    <clipPath id="clippath">
      <rect class="cls-18" width="3840" height="2160"/>
    </clipPath>
    <linearGradient id="Degradado_sin_nombre_13" data-name="Degradado sin nombre 13" x1="-294.864" y1="-302.097" x2="3912.44" y2="2433.903" gradientTransform="translate(-1456.126 711.24) rotate(-43.475) scale(1.169 2.516)" gradientUnits="userSpaceOnUse">
      <stop offset="0" stop-color="#fff"/>
      <stop offset="1" stop-color="#1e3968"/>
    </linearGradient>
    <linearGradient id="Degradado_sin_nombre_13-2" data-name="Degradado sin nombre 13" x1="-67.008" y1="-652.486" x2="4140.297" y2="2083.514" xlink:href="#Degradado_sin_nombre_13"/>
    <linearGradient id="Degradado_sin_nombre_13-3" data-name="Degradado sin nombre 13" x1="-206.344" y1="-438.22" x2="4000.96" y2="2297.78" xlink:href="#Degradado_sin_nombre_13"/>
    <linearGradient id="Degradado_sin_nombre_13-4" data-name="Degradado sin nombre 13" x1="55.122" y1="-840.292" x2="4262.427" y2="1895.708" xlink:href="#Degradado_sin_nombre_13"/>
    <linearGradient id="Degradado_sin_nombre_13-5" data-name="Degradado sin nombre 13" x1="-446.637" y1="-68.708" x2="3760.667" y2="2667.292" xlink:href="#Degradado_sin_nombre_13"/>
    <linearGradient id="Degradado_sin_nombre_13-6" data-name="Degradado sin nombre 13" x1="-470.929" y1="-31.353" x2="3736.376" y2="2704.647" xlink:href="#Degradado_sin_nombre_13"/>
    <linearGradient id="Degradado_sin_nombre_13-7" data-name="Degradado sin nombre 13" x1="-13.239" y1="-735.17" x2="4194.066" y2="2000.83" xlink:href="#Degradado_sin_nombre_13"/>
    <linearGradient id="Degradado_sin_nombre_13-8" data-name="Degradado sin nombre 13" x1="120.143" y1="-940.278" x2="4327.447" y2="1795.722" xlink:href="#Degradado_sin_nombre_13"/>
    <linearGradient id="Degradado_sin_nombre_13-9" data-name="Degradado sin nombre 13" x1="167.369" y1="-1012.9" x2="4374.673" y2="1723.1" xlink:href="#Degradado_sin_nombre_13"/>
    <linearGradient id="Degradado_sin_nombre_13-10" data-name="Degradado sin nombre 13" x1="77.718" y1="-875.039" x2="4285.023" y2="1860.961" xlink:href="#Degradado_sin_nombre_13"/>
    <linearGradient id="Degradado_sin_nombre_13-11" data-name="Degradado sin nombre 13" x1="203.916" y1="-1069.1" x2="4411.22" y2="1666.9" xlink:href="#Degradado_sin_nombre_13"/>
    <linearGradient id="Degradado_sin_nombre_13-12" data-name="Degradado sin nombre 13" x1="-344.945" y1="-225.085" x2="3862.359" y2="2510.915" xlink:href="#Degradado_sin_nombre_13"/>
    <linearGradient id="Degradado_sin_nombre_13-13" data-name="Degradado sin nombre 13" x1="-117.271" y1="-575.194" x2="4090.034" y2="2160.806" xlink:href="#Degradado_sin_nombre_13"/>
    <linearGradient id="Degradado_sin_nombre_13-14" data-name="Degradado sin nombre 13" x1="139.499" y1="-970.042" x2="4346.803" y2="1765.958" xlink:href="#Degradado_sin_nombre_13"/>
    <linearGradient id="Degradado_sin_nombre_13-15" data-name="Degradado sin nombre 13" x1="223.755" y1="-1099.608" x2="4431.059" y2="1636.392" xlink:href="#Degradado_sin_nombre_13"/>
    <linearGradient id="Degradado_sin_nombre_13-16" data-name="Degradado sin nombre 13" x1="239.584" y1="-1123.949" x2="4446.888" y2="1612.051" xlink:href="#Degradado_sin_nombre_13"/>
    <linearGradient id="Degradado_sin_nombre_13-17" data-name="Degradado sin nombre 13" x1="177.497" y1="-1028.475" x2="4384.801" y2="1707.525" xlink:href="#Degradado_sin_nombre_13"/>
    <linearGradient id="Degradado_sin_nombre_13-18" data-name="Degradado sin nombre 13" x1="248.936" y1="-1138.331" x2="4456.24" y2="1597.669" xlink:href="#Degradado_sin_nombre_13"/>
    <linearGradient id="Degradado_sin_nombre_13-19" data-name="Degradado sin nombre 13" x1="-77.504" y1="-636.346" x2="4129.801" y2="2099.654" xlink:href="#Degradado_sin_nombre_13"/>
    <linearGradient id="Degradado_sin_nombre_13-20" data-name="Degradado sin nombre 13" x1="19.144" y1="-784.966" x2="4226.449" y2="1951.034" xlink:href="#Degradado_sin_nombre_13"/>
    <linearGradient id="Degradado_sin_nombre_13-21" data-name="Degradado sin nombre 13" x1="202.84" y1="-1067.447" x2="4410.145" y2="1668.553" xlink:href="#Degradado_sin_nombre_13"/>
    <linearGradient id="Degradado_sin_nombre_13-22" data-name="Degradado sin nombre 13" x1="260.246" y1="-1155.723" x2="4467.551" y2="1580.277" xlink:href="#Degradado_sin_nombre_13"/>
    <linearGradient id="Degradado_sin_nombre_13-23" data-name="Degradado sin nombre 13" x1="258.057" y1="-1152.356" x2="4465.361" y2="1583.644" xlink:href="#Degradado_sin_nombre_13"/>
    <linearGradient id="Degradado_sin_nombre_13-24" data-name="Degradado sin nombre 13" x1="269.805" y1="-1170.422" x2="4477.11" y2="1565.578" xlink:href="#Degradado_sin_nombre_13"/>
    <linearGradient id="Degradado_sin_nombre_13-25" data-name="Degradado sin nombre 13" x1="224.654" y1="-1100.991" x2="4431.958" y2="1635.009" xlink:href="#Degradado_sin_nombre_13"/>
    <linearGradient id="Degradado_sin_nombre_13-26" data-name="Degradado sin nombre 13" x1="-105.168" y1="-593.804" x2="4102.136" y2="2142.196" xlink:href="#Degradado_sin_nombre_13"/>
    <linearGradient id="Degradado_sin_nombre_13-27" data-name="Degradado sin nombre 13" x1="103.483" y1="-914.659" x2="4310.787" y2="1821.341" xlink:href="#Degradado_sin_nombre_13"/>
    <linearGradient id="Degradado_sin_nombre_13-28" data-name="Degradado sin nombre 13" x1="240.177" y1="-1124.861" x2="4447.481" y2="1611.139" xlink:href="#Degradado_sin_nombre_13"/>
    <linearGradient id="Degradado_sin_nombre_13-29" data-name="Degradado sin nombre 13" x1="266.123" y1="-1164.761" x2="4473.428" y2="1571.239" xlink:href="#Degradado_sin_nombre_13"/>
    <linearGradient id="Degradado_sin_nombre_13-30" data-name="Degradado sin nombre 13" x1="259.401" y1="-1154.423" x2="4466.705" y2="1581.577" xlink:href="#Degradado_sin_nombre_13"/>
    <linearGradient id="Degradado_sin_nombre_13-31" data-name="Degradado sin nombre 13" x1="252.928" y1="-1144.469" x2="4460.232" y2="1591.531" xlink:href="#Degradado_sin_nombre_13"/>
    <linearGradient id="Degradado_sin_nombre_13-32" data-name="Degradado sin nombre 13" x1="244.635" y1="-1131.716" x2="4451.939" y2="1604.284" xlink:href="#Degradado_sin_nombre_13"/>
    <linearGradient id="Degradado_sin_nombre_13-33" data-name="Degradado sin nombre 13" x1="55.991" y1="-841.628" x2="4263.295" y2="1894.372" xlink:href="#Degradado_sin_nombre_13"/>
    <linearGradient id="Degradado_sin_nombre_13-34" data-name="Degradado sin nombre 13" x1="152.291" y1="-989.714" x2="4359.596" y2="1746.286" xlink:href="#Degradado_sin_nombre_13"/>
    <linearGradient id="Degradado_sin_nombre_13-35" data-name="Degradado sin nombre 13" x1="263.604" y1="-1160.886" x2="4470.908" y2="1575.114" xlink:href="#Degradado_sin_nombre_13"/>
    <linearGradient id="Degradado_sin_nombre_13-36" data-name="Degradado sin nombre 13" x1="272.673" y1="-1174.833" x2="4479.978" y2="1561.167" xlink:href="#Degradado_sin_nombre_13"/>
    <linearGradient id="Degradado_sin_nombre_13-37" data-name="Degradado sin nombre 13" x1="40.169" y1="-817.297" x2="4247.473" y2="1918.703" xlink:href="#Degradado_sin_nombre_13"/>
    <linearGradient id="Degradado_sin_nombre_13-38" data-name="Degradado sin nombre 13" x1="186.708" y1="-1042.638" x2="4394.012" y2="1693.362" xlink:href="#Degradado_sin_nombre_13"/>
    <linearGradient id="Degradado_sin_nombre_13-39" data-name="Degradado sin nombre 13" x1="261.542" y1="-1157.715" x2="4468.846" y2="1578.285" xlink:href="#Degradado_sin_nombre_13"/>
    <linearGradient id="Degradado_sin_nombre_13-40" data-name="Degradado sin nombre 13" x1="129.085" y1="-954.028" x2="4336.389" y2="1781.972" xlink:href="#Degradado_sin_nombre_13"/>
    <linearGradient id="Degradado_sin_nombre_13-41" data-name="Degradado sin nombre 13" x1="212.282" y1="-1081.966" x2="4419.587" y2="1654.034" xlink:href="#Degradado_sin_nombre_13"/>
    <linearGradient id="Degradado_sin_nombre_13-42" data-name="Degradado sin nombre 13" x1="249.215" y1="-1138.76" x2="4456.52" y2="1597.24" xlink:href="#Degradado_sin_nombre_13"/>
    <linearGradient id="Degradado_sin_nombre_13-43" data-name="Degradado sin nombre 13" x1="255.355" y1="-1148.202" x2="4462.66" y2="1587.798" xlink:href="#Degradado_sin_nombre_13"/>
    <linearGradient id="Degradado_sin_nombre_13-44" data-name="Degradado sin nombre 13" x1="119.109" y1="-938.688" x2="4326.413" y2="1797.312" xlink:href="#Degradado_sin_nombre_13"/>
    <linearGradient id="Degradado_sin_nombre_13-45" data-name="Degradado sin nombre 13" x1="230.194" y1="-1109.51" x2="4437.498" y2="1626.49" xlink:href="#Degradado_sin_nombre_13"/>
    <linearGradient id="Degradado_sin_nombre_13-46" data-name="Degradado sin nombre 13" x1="175.467" y1="-1025.352" x2="4382.771" y2="1710.648" xlink:href="#Degradado_sin_nombre_13"/>
    <linearGradient id="Degradado_sin_nombre_13-47" data-name="Degradado sin nombre 13" x1="244.696" y1="-1131.81" x2="4452" y2="1604.19" xlink:href="#Degradado_sin_nombre_13"/>
    <linearGradient id="Degradado_sin_nombre_13-48" data-name="Degradado sin nombre 13" x1="168.693" y1="-1014.936" x2="4375.997" y2="1721.064" xlink:href="#Degradado_sin_nombre_13"/>
    <linearGradient id="Degradado_sin_nombre_13-49" data-name="Degradado sin nombre 13" x1="256.696" y1="-1150.263" x2="4464" y2="1585.737" xlink:href="#Degradado_sin_nombre_13"/>
    <linearGradient id="Degradado_sin_nombre_13-50" data-name="Degradado sin nombre 13" x1="207.58" y1="-1074.735" x2="4414.885" y2="1661.265" xlink:href="#Degradado_sin_nombre_13"/>
    <linearGradient id="Degradado_sin_nombre_13-51" data-name="Degradado sin nombre 13" x1="266.786" y1="-1165.779" x2="4474.09" y2="1570.221" xlink:href="#Degradado_sin_nombre_13"/>
    <linearGradient id="Degradado_sin_nombre_13-52" data-name="Degradado sin nombre 13" x1="202.734" y1="-1067.282" x2="4410.038" y2="1668.718" xlink:href="#Degradado_sin_nombre_13"/>
    <linearGradient id="Degradado_sin_nombre_13-53" data-name="Degradado sin nombre 13" x1="231.159" y1="-1110.993" x2="4438.463" y2="1625.007" xlink:href="#Degradado_sin_nombre_13"/>
    <linearGradient id="Degradado_sin_nombre_13-54" data-name="Degradado sin nombre 13" x1="227.553" y1="-1105.449" x2="4434.858" y2="1630.551" xlink:href="#Degradado_sin_nombre_13"/>
  </defs>
  <g id="_x5F__x5F__x5F__x5F__x28_0_x29_">
    <g id="_x5F__x5F__x5F__x5F__x5F_">
      <g>
        <rect class="cls-18" width="3840" height="2160"/>
        <g class="cls-51">
          <g>
            <path class="cls-37" d="M891.328,3186.234c-.183.174-.597.076-1.027-.269-.525-.421-.878-1.05-.789-1.406l210.103-834.813,176.322-700.565,263.747-1047.965c.031-.123.113-.202.238-.228l482.313-96.866,69.11-427.41c.021-.134.097-.224.221-.258l532.45-144.675,18.584-379.165c.009-.157.082-.265.208-.307l582.714-192.47,170.495-56.32c.331-.109.938.24,1.355.781.416.54.482,1.064.155,1.175l-753.013,248.725-18.585,379.177c-.009.163-.086.275-.227.312l-532.476,144.683-69.113,427.425c-.023.143-.108.236-.246.263l-482.332,96.871-650.124,2583.153c-.016.064-.045.114-.085.151Z"/>
            <path class="cls-6" d="M-99.499,2141.217c-.198.188-.662.054-1.115-.344-.515-.452-.819-1.073-.68-1.388l213.415-487.177L628.211,474.163l131.311-299.679,116.598-266.217c.032-.075.088-.127.162-.154l272.321-103.334,94.788-245.356c.031-.077.085-.133.157-.164l293.872-123.867,73.027-224.659c.027-.083.08-.144.155-.178l315.403-144.382,51.348-203.926c.022-.093.075-.161.154-.2l337.036-164.938,345.964-169.27c.302-.147.902.164,1.341.695.44.532.552,1.074.251,1.228l-345.964,169.27-336.916,164.88-51.349,203.931c-.023.097-.08.164-.162.203l-315.413,144.387-73.03,224.665c-.027.088-.083.148-.163.183l-293.88,123.869-94.791,245.362c-.03.082-.088.139-.167.168l-272.33,103.336-116.548,266.107-131.31,299.678-148.918,339.961L-99.433,2141.121c-.017.038-.039.07-.066.096Z"/>
            <path class="cls-21" d="M465.946,2737.587c-.19.18-.623.068-1.065-.3-.521-.435-.854-1.063-.744-1.401L1131.658,683.142l123.332-379.232c.033-.101.104-.168.207-.196l385.739-104.816,86.611-344.119c.028-.108.095-.181.195-.216l422.067-139.413,49.997-309.21c.019-.122.084-.208.189-.247l950.741-360.853c.322-.121.926.215,1.351.753.423.537.507,1.069.185,1.193l-950.582,360.793-49.999,309.219c-.02.127-.091.214-.203.252l-422.083,139.418-86.615,344.129c-.029.115-.1.192-.214.221l-385.753,104.82-123.282,379.077L466.024,2737.46c-.016.053-.043.095-.078.128Z"/>
            <path class="cls-12" d="M-592.658,1621.084c-.207.196-.698.042-1.159-.383-.508-.467-.787-1.083-.625-1.376l185.642-334.924,182.056-328.49L82.422,398.106l132.346-238.834,120.276-216.979,109.732-198.037,100.575-181.406c.027-.051.067-.09.123-.116l186.656-91.336,88.474-169.889c.028-.053.068-.093.12-.121l198.587-102.695,76.436-158.418c.027-.056.068-.098.119-.127l210.507-114.049,64.415-146.961c.025-.059.066-.104.12-.135l222.44-125.364,52.377-135.538c.024-.065.065-.114.122-.147l234.34-136.699,40.347-124.119c.024-.073.068-.128.125-.163l246.373-148.021,61.328-36.86c.282-.17.876.118,1.329.642.45.524.584,1.092.306,1.255l-61.328,36.86-246.283,147.967-40.347,124.12c-.024.074-.067.131-.128.165l-234.348,136.703-52.376,135.541c-.027.065-.069.115-.127.148l-222.448,125.368-64.416,146.964c-.026.061-.07.106-.125.138l-210.512,114.053-76.437,158.42c-.027.058-.068.101-.124.13l-198.591,102.699-88.476,169.891c-.029.054-.071.096-.127.124l-186.66,91.337-100.531,181.328-109.733,198.036-120.276,216.98-132.347,238.833-676.863,1221.221c-.015.027-.032.049-.053.069Z"/>
            <path class="cls-1" d="M2438.455,3756.344c-.101.096-.275.113-.496.038l-1481.903-501.319c-.492-.167-1.056-.727-1.261-1.253s.03-.815.521-.65l1481.332,501.126,59.139-1206.572c.013-.236.171-.357.431-.319l1050.073,148.815-101.292-1052.777c-.026-.262.1-.419.338-.419l1208.902-3.302-261.222-899.311-161.063-554.477c-.148-.505.151-.727.662-.502.512.225,1.046.817,1.192,1.32l161.064,554.477,261.392,899.898c.103.358-.017.587-.305.589l-1208.998,3.302,101.298,1052.84c.027.296-.136.453-.428.413l-1050.136-148.825-59.143,1206.667c-.005.105-.04.187-.098.242Z"/>
            <path class="cls-42" d="M1488.735,3816.315c-.175.166-.56.087-.977-.229-.529-.401-.908-1.032-.847-1.41l452.176-2796.366c.025-.156.125-.252.281-.268l634.93-71.993,27.349-558.027c.008-.175.095-.291.251-.319l708.868-142.366,821.793-165.053c.359-.071.969.312,1.362.859.393.547.422,1.045.062,1.12l-821.792,165.052-708.63,142.319-27.349,558.051c-.008.189-.111.304-.286.324l-634.961,71.996-101.734,629.133-127.51,788.578-222.893,1378.412c-.013.08-.045.142-.092.187Z"/>
            <path class="cls-15" d="M-296.939,1932.976c-.202.192-.677.05-1.134-.359-.512-.458-.806-1.077-.658-1.384l134.179-278.18,202.225-419.274,176.771-366.476,155.849-323.049L743.723-229.993c.032-.064.082-.111.147-.139l236.57-99.709,93.723-213.971c.029-.067.078-.117.142-.147l253.931-116.217,76.22-197.316c.028-.072.075-.125.141-.157l271.263-132.702,58.735-180.673c.026-.079.074-.136.142-.171l288.565-149.211,41.289-164.004c.023-.089.073-.155.144-.193l305.988-165.734,79.85-43.226c.291-.158.889.142,1.335.67.446.528.571,1.085.278,1.241l-79.848,43.226-305.88,165.675-41.287,164.007c-.024.089-.074.156-.149.196l-288.575,149.216-58.739,180.677c-.026.08-.076.14-.148.175l-271.271,132.705-76.222,197.32c-.028.074-.077.128-.148.16l-253.938,116.221-93.723,213.974c-.031.07-.083.121-.151.15l-236.576,99.712-373.385,774.151-155.848,323.049-176.771,366.476-336.404,697.453c-.016.033-.036.06-.061.083Z"/>
            <path class="cls-34" d="M-887.828,1309.771c-.212.201-.72.033-1.186-.408-.502-.474-.765-1.086-.588-1.365l158.97-250.896,163.578-258.193,149.258-235.617,136.778-215.835L347.187-644.085c.025-.039.058-.07.099-.094l141.122-79.532,78.873-129.314c.025-.04.057-.072.099-.095l148.7-86.717,71.253-122.034c.024-.041.056-.073.097-.098l156.241-93.917,63.628-114.801c.023-.043.055-.078.098-.103l163.8-101.086,56.026-107.536c.024-.045.057-.081.099-.108l171.358-108.251,48.372-100.327c.023-.048.054-.086.1-.115l178.986-115.461,191.661-123.684,35.545-91.967c.022-.059.06-.105.109-.138l177.459-116.681c.273-.179.865.097,1.322.617.457.521.613,1.079.333,1.269l-177.384,116.632-35.546,91.968c-.023.059-.062.107-.111.14l-191.737,123.731-178.921,115.421-48.371,100.327c-.025.049-.058.089-.104.117l-171.361,108.253-56.027,107.538c-.024.047-.057.084-.101.11l-163.802,101.085-63.63,114.804c-.023.043-.058.079-.1.103l-156.244,93.921-71.256,122.036c-.024.041-.057.076-.099.101l-148.702,86.718-78.874,129.315c-.027.041-.061.075-.101.098l-141.124,79.533L-279.199,349.177l-136.779,215.834-149.257,235.618-163.578,258.193-158.972,250.895c-.013.02-.027.038-.044.054Z"/>
            <path class="cls-25" d="M-1084.302,1102.55c-.216.205-.735.028-1.204-.424-.499-.48-.752-1.089-.565-1.359l136.87-198.034,146.821-212.384,135.852-196.597L-25.013-434.354l164.73-238.362,75.502-109.195,113.231-69.907,70.14-104.11,118.416-74.841,64.912-99.137,123.634-79.789,59.643-94.14,128.833-84.773,54.376-89.141c.022-.037.051-.064.082-.086l134.004-89.618,49.105-84.143c.021-.036.048-.066.084-.09l139.213-94.556,43.852-79.159c.023-.038.052-.07.086-.095l144.393-99.521,38.618-74.14c.022-.042.052-.074.088-.101l149.601-104.458,33.356-69.147c.022-.045.053-.081.091-.109l154.879-109.447,33.721-23.865c.265-.188.855.08,1.317.598.462.517.633,1.093.354,1.278l-33.721,23.864-154.819,109.405-33.359,69.149c-.023.045-.052.08-.093.11l-149.605,104.46-38.619,74.141c-.021.041-.049.074-.089.102l-144.398,99.523-43.853,79.161c-.022.038-.049.071-.088.095l-139.214,94.557-49.106,84.145c-.021.038-.05.068-.085.092l-134.007,89.619-54.374,89.142c-.023.035-.05.065-.085.087l-128.804,84.724-59.595,94.108c-.022.034-.049.063-.084.084l-123.603,79.741-64.865,99.107c-.021.032-.049.061-.083.082l-118.384,74.793-70.143,104.112-113.233,69.91L-664.722,495.491l-135.853,196.596-146.82,212.385-136.87,198.034c-.011.016-.023.031-.037.044Z"/>
            <path class="cls-50" d="M-706.24,1501.292c-.209.198-.706.038-1.169-.393-.506-.471-.778-1.084-.61-1.372l113.269-194.069L-248.469,712.357l148.231-253.947L469.113-516.768c.027-.047.064-.082.114-.108l168.621-87.202,85.299-153.86c.026-.049.063-.086.112-.111l178.769-96.824,75.065-144.154c.027-.048.063-.088.112-.115l188.884-106.465,64.858-134.42c.024-.052.064-.094.112-.121l199.021-116.075,54.635-124.72c.025-.056.064-.099.114-.131l209.197-125.745,226.543-136.156,37.143-114.125c.023-.071.063-.127.123-.161l212.911-131.412c.279-.173.873.112,1.326.635.454.524.589,1.098.315,1.26l-212.823,131.358-37.143,114.126c-.024.072-.067.128-.125.162l-226.634,136.211-209.12,125.699-54.637,124.723c-.025.057-.066.102-.117.132l-199.026,116.078-64.86,134.421c-.027.054-.067.096-.115.125l-188.888,106.465-75.067,144.156c-.025.053-.066.091-.115.118l-178.775,96.825-85.298,153.862c-.026.05-.067.088-.116.113l-168.625,87.204L-98.408,460.111l-148.232,253.947-163.963,280.84-182.318,312.262-113.269,194.068c-.014.024-.031.045-.05.063Z"/>
            <path class="cls-3" d="M-1224.497,954.689c-.218.207-.745.022-1.216-.437-.496-.484-.741-1.09-.547-1.353L-167.042-488.364l77.593-105.529,73.657-100.28,70.08-95.32,95.055-61.356,65.932-91.438,99.059-65.154,61.912-87.573,103.081-68.969,57.855-83.725,107.07-72.803,53.808-79.887,111.1-76.574,49.769-76.054,115.079-80.402,45.729-72.222,119.112-84.175,41.687-68.39,123.093-88.002,37.665-64.521,127.049-91.767,65.741-118.64c.019-.037.045-.067.079-.09l128.549-94.536,70.087-134.58c.157-.295.694-.166,1.204.296.51.463.796,1.081.64,1.38l-70.118,134.638c-.022.039-.048.073-.083.097l-128.551,94.539-65.74,118.639c-.02.037-.047.067-.08.092l-127.023,91.718-37.666,64.522-123.095,88.008-41.689,68.39-119.116,84.177-45.729,72.225-115.082,80.405-49.77,76.056-111.102,76.578-53.809,79.889-107.071,72.805-57.858,83.726-103.083,68.972-61.912,87.574-99.061,65.157-65.934,91.439-95.057,61.359-70.008,95.251-73.658,100.28-77.593,105.528L-1224.464,954.651c-.01.014-.021.026-.033.037Z"/>
            <path class="cls-16" d="M4724.076,704.392c-.046.044-.109.073-.189.081l-1352.666,153.37,75.701,786.747c.027.262-.098.419-.338.419l-904.678,2.479-44.191,901.568c-.012.238-.172.358-.43.32L-56.015,2187.506c-.444-.063-1.043-.558-1.336-1.105-.295-.548-.172-.939.27-.877l2552.887,361.812,44.189-901.514c.01-.209.134-.326.34-.327l904.624-2.479-75.698-786.71c-.023-.24.08-.393.284-.416l1023.722-116.075,329.266-37.331c.378-.044.989.368,1.363.917.295.434.354.825.178.991Z"/>
            <path class="cls-32" d="M147.641,2401.872c-.195.185-.646.061-1.094-.324-.518-.445-.835-1.069-.709-1.395l476.228-1232.599,160.026-414.236L1041.776,81.27c.032-.086.094-.145.181-.174l319.831-105.664,93.296-286.862c.03-.089.091-.153.174-.186l347.348-131.852,65.548-260.43c.025-.099.084-.17.171-.207l374.83-158.012,37.839-234.022c.02-.113.076-.196.169-.238l402.438-184.213,110.578-50.601c.307-.14.907.178,1.343.711.435.534.539,1.078.233,1.219l-110.577,50.602-402.297,184.148-37.84,234.025c-.019.118-.082.202-.177.243l-374.848,158.019-65.55,260.436c-.026.103-.087.175-.182.211l-347.359,131.857-93.298,286.869c-.03.095-.095.161-.188.191l-319.841,105.668-259.633,671.92-160.026,414.236-476.229,1232.599c-.016.044-.04.08-.07.109Z"/>
            <path class="cls-52" d="M-961.529,1232.04c-.213.202-.725.03-1.191-.414-.501-.477-.76-1.087-.58-1.364l95.294-145.589,311.327-475.484,136.864-209.064,126.293-192.87L-176.653,28.709,32.817-291.2l94.192-143.916,88.112-134.542,82.559-126.139c.024-.037.055-.066.092-.088l130.394-76.053,75.836-119.69c.025-.038.055-.068.092-.089l137.035-82.351,69.145-113.342c.024-.037.054-.067.091-.092l143.671-88.64,62.449-106.993c.023-.039.054-.07.092-.095l150.305-94.93,55.754-100.643c.023-.042.053-.075.094-.099l156.93-101.212,49.069-94.299c.023-.044.054-.079.095-.105l163.538-107.53,42.424-87.89c.024-.046.058-.083.097-.113l170.138-113.837,35.747-81.553c.023-.051.056-.092.101-.121l217.094-147.514c.27-.183.86.089,1.32.609.458.518.616,1.081.342,1.273l-217.028,147.468-35.748,81.554c-.023.052-.057.093-.102.123l-170.141,113.84-42.426,87.892c-.022.047-.057.085-.098.114l-163.542,107.531-49.069,94.299c-.023.043-.054.079-.096.107l-156.935,101.215-55.755,100.643c-.025.041-.056.076-.096.101l-150.309,94.933-62.449,106.993c-.023.039-.055.072-.094.097l-143.674,88.642-69.144,113.343c-.024.039-.055.071-.094.093l-137.038,82.352-75.839,119.692c-.024.039-.055.07-.095.092l-130.394,76.054-82.524,126.084-88.112,134.542-94.192,143.916L-174.84,30.437l-116.869,178.545-126.293,192.871-136.864,209.064-311.327,475.484-95.294,145.589c-.012.019-.026.036-.042.051Z"/>
            <path class="cls-22" d="M-1329.563,843.875c-.22.209-.754.019-1.226-.446-.493-.485-.733-1.09-.534-1.348l104.272-135.585,120.408-156.532,220.682-286.809,101.327-131.747L-688.641,6.654l91.018-118.362,392.887-510.656,68.046-88.474,82.072-53.964,64.627-85.232,85.372-57.144,61.293-82.019,88.706-60.307,57.934-78.833,92.024-63.452,54.59-75.662,95.35-66.608,51.23-72.474,98.668-69.756,47.887-69.302,101.987-72.902,44.534-66.124,105.305-76.05,41.19-62.95,108.624-79.198,37.845-59.778,111.934-82.339,34.501-56.604,115.254-85.488,61.014-104.6,116.582-87.797,65.737-118.647c.158-.296.705-.151,1.212.315.507.467.786,1.082.623,1.375l-65.813,118.734-116.585,87.803-61.016,104.601-115.257,85.492-34.501,56.605-111.937,82.343-37.846,59.779-108.626,79.203-41.191,62.95-105.307,76.054-44.535,66.123-101.988,72.905-47.888,69.304-98.67,69.757-51.231,72.475-95.352,66.61-54.591,75.663-92.025,63.455-57.934,78.833-88.708,60.309-61.295,82.02-85.372,57.146-64.629,85.234-82.073,53.965-67.979,88.412L-595.835-109.946l-91.018,118.362-95.993,124.754-101.327,131.746-220.682,286.81-120.408,156.532-104.272,135.584c-.009.012-.018.023-.029.032Z"/>
            <path class="cls-49" d="M-1411.255,757.714c-.222.21-.76.017-1.233-.452-.493-.49-.727-1.091-.524-1.346l202.38-253.921,104.509-131.154,99.29-124.531L-822.566,15.053-296.477-645.016l71.888-48.125,62.838-79.72,74.714-50.752,60.014-77.039,77.478-53.428,57.197-74.369,80.278-56.082,54.372-71.689,83.079-58.737,51.546-69.009,85.897-61.357,48.728-66.338,88.671-64.041,45.903-63.658,91.472-66.697,43.085-60.984,94.254-69.339,40.293-58.284,97.056-71.995,37.449-55.639,99.841-74.635,34.638-52.974,102.633-77.285,31.847-50.272,105.392-79.954,56.955-93.378,106.553-81.842,61.742-105.76c.164-.286.714-.139,1.219.33s.778,1.084.61,1.372l-61.813,105.84-106.556,81.848-56.957,93.379-105.395,79.958-31.847,50.273-102.636,77.288-34.639,52.974-99.843,74.639-37.45,55.639-97.058,71.998-40.293,58.285-94.257,69.34-43.086,60.986-91.474,66.698-45.903,63.659-88.672,64.044-48.73,66.339-85.897,61.359-51.547,69.01-83.08,58.739-54.373,71.69-80.28,56.083-57.198,74.371-77.48,53.429-60.015,77.04-74.715,50.754-62.84,79.721-71.889,48.125L-1005.052,248.08l-99.29,124.531-214.704,269.426-92.184,115.65c-.008.01-.016.019-.026.028Z"/>
            <path class="cls-5" d="M-1135.962,1048.066c-.217.205-.738.026-1.207-.428-.497-.482-.747-1.089-.558-1.357L108.155-715.865l72.353-102.286,106.16-67.126,67.538-97.72,110.843-71.568,62.822-93.246,115.518-76.002,58.103-88.771,120.22-80.409,53.358-84.323,124.848-84.812,48.715-79.853,129.495-89.272,43.998-75.377c.022-.035.047-.066.081-.088l134.09-93.622,39.28-70.9c.021-.039.048-.07.082-.094l138.819-98.089,146.443-103.504,31.552-65.396c.021-.045.052-.08.09-.108l131.945-94.294c.265-.189.854.077,1.316.595.461.517.63,1.083.356,1.28l-131.886,94.252-31.552,65.395c-.022.044-.053.08-.091.108l-146.503,103.547-138.768,98.055-39.278,70.9c-.021.038-.049.069-.084.094l-134.092,93.622-43.999,75.379c-.019.036-.046.067-.082.089l-129.468,89.224-48.667,79.821c-.021.034-.048.064-.081.085l-124.818,84.765-53.361,84.323-120.221,80.414-58.105,88.773-115.52,76.004-62.823,93.248-110.845,71.57-67.54,97.722-106.162,67.128-1318.158,1864.358c-.011.015-.023.029-.036.041Z"/>
            <path class="cls-55" d="M-1476.549,688.852c-.223.211-.764.014-1.236-.458-.492-.491-.723-1.092-.516-1.343l82.032-100.061,101.471-123.827,96.765-118.004,92.32-112.64L-933.14,22.026l158.106-192.904,213.861-260.83,129.032-157.44,60.945-74.313,63.7-43.919,58.537-72.083,65.999-46.098,56.238-69.851,68.297-48.28,53.922-67.655,70.571-50.487,51.606-65.458,72.897-52.64,49.28-63.254,75.196-54.821,46.938-61.084,77.487-56.994,44.656-58.867,79.779-59.166,42.339-56.671,82.052-61.375,40.015-54.465,84.379-63.529,37.704-52.275,86.645-65.731,35.38-50.068,88.97-67.886,33.07-47.877,91.263-70.06,30.753-45.681,93.53-72.261,28.442-43.489,95.84-74.401,99.434-77.224,24.748-40.61,85.371-66.625c.256-.199.842.055,1.309.57.467.514.63,1.105.383,1.291l-85.304,66.55-24.749,40.609-99.5,77.3-95.778,74.334-28.442,43.49-93.532,72.264-30.753,45.68-91.265,70.063-33.071,47.878-88.972,67.888-35.379,50.069-86.647,65.733-37.707,52.275-84.38,63.532-40.014,54.465-82.054,61.377-42.339,56.672-79.779,59.168-44.658,58.867-77.488,56.996-46.939,61.084-75.197,54.823-49.282,63.254-72.898,52.641-51.606,65.459L-2.774-1009.526l-53.922,67.656-68.3,48.28-56.24,69.852-65.999,46.099-58.537,72.085-63.702,43.92L-850.625-74.718l-80.737,98.52-172.575,210.492-92.32,112.64-96.764,118.005-101.47,123.827-82.033,100.061c-.008.009-.016.018-.024.026Z"/>
            <path class="cls-36" d="M2541.824,1647.405c-.058.055-.14.085-.243.085l-2704.584,7.39-396.912,1.078c-.407,0-1.016-.445-1.36-.996-.343-.551-.292-.998.114-.999l2398.81-6.55,702.361-1.918,34.273-699.154c.01-.189.112-.303.287-.323l794.654-90.093-169.189-1758.494c-.043-.449.352-.553.883-.233.531.32.996.942,1.039,1.392l169.225,1758.873c.023.242-.082.392-.283.417l-794.703,90.097-34.276,699.187c-.005.105-.04.187-.098.242Z"/>
            <path class="cls-33" d="M-458.314,1762.776c-.205.194-.688.045-1.147-.372-.51-.463-.797-1.081-.64-1.38l260.539-500.352L-19.151,914.23l160.202-307.716,143.271-275.083,128.836-247.43,222.322-427.032c.03-.058.076-.1.134-.127l208.811-95.557,91.391-189.489c.029-.06.074-.103.131-.132l223.082-109.138,77.002-175.788c.027-.062.071-.109.13-.14l237.3-122.721,62.64-162.11c.027-.067.072-.117.131-.151l251.658-136.295,276.735-149.863,37.323-148.323c.022-.087.07-.153.139-.191l264.516-149.06c.287-.163.884.133,1.332.66.447.525.586,1.079.288,1.247l-264.407,149-37.326,148.325c-.022.09-.072.154-.144.194l-276.845,149.923-251.567,136.246-62.641,162.112c-.028.069-.073.122-.135.154l-237.307,122.727-77.004,175.79c-.029.064-.075.112-.136.143l-223.088,109.141-91.392,189.494c-.03.062-.078.106-.138.135l-208.815,95.559L415.001,85.676l-128.836,247.43-143.271,275.083L-17.307,915.906l-180.411,346.443-260.54,500.351c-.015.03-.034.055-.056.076Z"/>
            <path class="cls-53" d="M-1262.731,914.363c-.219.208-.749.021-1.219-.44-.495-.485-.739-1.091-.543-1.352l438.349-586.557,108.514-145.255,102.322-136.875,96.575-129.279L-36.17-731.134l90.53-58.427,66.656-90.713,94.331-62.081,62.796-87.054,98.175-65.675,58.943-83.399,101.993-69.297,55.092-79.745,105.785-72.947,51.257-76.054,109.613-76.578,47.377-72.428,113.432-80.2,43.549-68.745,117.253-83.822,39.704-65.097,121.055-87.431,35.833-61.476,255.842-186.525,29.634-56.888c.021-.04.05-.072.082-.097l116.501-85.718c.262-.193.85.07,1.313.586s.636,1.097.366,1.283l-116.45,85.682-29.634,56.889c-.021.039-.051.071-.083.097l-255.818,186.478-35.834,61.476-121.058,87.436-39.705,65.098-117.255,83.826-43.551,68.746-113.434,80.204-47.378,72.428-109.615,76.58-51.258,76.055-105.787,72.951-55.092,79.746-101.996,69.299-58.945,83.399-98.177,65.678-62.798,87.054-94.332,62.084-66.658,90.715-90.532,58.428L-613.514,45.641l-102.323,136.874-108.513,145.255-438.349,586.557c-.01.013-.02.025-.031.036Z"/>
            <path class="cls-39" d="M-1529.982,632.494c-.224.212-.769.013-1.244-.463-.489-.492-.718-1.092-.509-1.34l73.434-87.515,93.994-112.083,90.009-107.257,397.796-474.251,70.542-84.04,315.973-376.688,57.153-39.906,56.675-68.071,59.12-41.825,54.666-66.164,61.139-43.688,52.664-64.265,63.125-45.571,50.652-62.359,65.11-47.453,48.652-60.459,67.077-49.372,46.666-58.525,69.064-51.255,44.636-56.654,71.076-53.11,42.626-54.745,73.069-55.002,40.623-52.846,75.028-56.913,38.648-50.919,77.014-58.797,36.644-49.019,79-60.68,34.606-47.138,81.013-62.537,32.61-45.247,82.974-64.449,30.625-43.311,84.959-66.332,28.622-41.411,86.947-68.216,26.625-39.518,180.948-142.644,23.424-37.003,78.094-61.814c.254-.201.839.052,1.307.565.468.513.659,1.091.387,1.293l-78.031,61.745-23.425,37.003-92.085,72.621-88.868,70.031-26.626,39.518-86.948,68.219-28.622,41.411-84.963,66.335-30.625,43.312-82.975,64.45-32.611,45.247-81.016,62.538-34.605,47.139-79.002,60.682-36.644,49.021-77.016,58.797-38.647,50.92-75.029,56.915-40.624,52.847-73.07,55.004-42.628,54.746-71.076,53.112-44.637,56.655-69.065,51.256-46.667,58.525-67.078,49.373-48.652,60.46-65.11,47.455-50.653,62.359-63.126,45.571-52.665,64.267-61.14,43.689-54.668,66.165-59.12,41.826-56.677,68.072-57.154,39.908-315.92,376.64-70.542,84.04-397.796,474.251-90.009,107.257-93.994,112.083-73.434,87.514c-.007.008-.014.016-.022.023Z"/>
            <path class="cls-11" d="M217.024-780.172L8.462-651.47l-96.193,59.401-91.421,56.394-464.993,286.94-129.179,79.693-60.613,37.435-716.439,442.072-138.589,154.321c-.227.247-.786.035-1.273-.462-.487-.495-.705-1.092-.489-1.334l138.65-154.37L215.301-781.989l71.287-103.211,112.084-70.807,66.298-98.48,117.03-75.499,61.309-93.747,121.968-80.183,56.354-88.995,126.806-84.889,51.449-84.276c.021-.033.047-.062.08-.085l131.662-89.489,46.469-79.55c.021-.036.05-.066.082-.089l136.599-94.17,41.486-74.825c.021-.038.049-.069.084-.094l141.526-98.842,71.116-136.599c.021-.04.051-.074.085-.099l143.428-102.474,74.586-154.688c.147-.307.682-.184,1.194.274.511.458.806,1.077.658,1.384l-74.619,154.755c-.021.044-.051.082-.089.107l-143.432,102.477-71.116,136.6c-.022.041-.052.075-.088.101l-141.531,98.845-41.486,74.824c-.021.039-.05.07-.085.094l-136.601,94.171-46.47,79.551c-.021.037-.049.067-.084.089l-131.664,89.491-51.45,84.277c-.02.035-.047.063-.082.086l-126.776,84.84-56.356,88.997-121.97,80.187-61.312,93.748-117.032,75.503-66.301,98.481-112.086,70.81-71.29,103.212Z"/>
            <path class="cls-17" d="M-1574.459,585.586c-.225.213-.772.011-1.247-.467-.489-.492-.714-1.092-.504-1.338l66.026-77.248,87.531-102.346L-963.461-132.878l67.123-78.445,64.752-75.778,123.063-143.88,58.477-68.418,56.601-66.166,51.695-36.564,54.793-64.455,53.435-38.212,53.046-62.798,55.164-39.855,51.29-61.132,56.913-41.511,49.534-59.467,58.652-43.161,47.769-57.794L-.763-1115.322l45.994-56.164,62.156-46.433,44.239-54.496,63.896-48.083,42.491-52.84,65.626-49.723,40.735-51.174,67.349-51.408,39.003-49.482,69.08-53.051,37.256-47.822,70.82-54.7,35.499-46.156,72.552-56.343,33.75-44.498,74.292-57.992,32.002-42.841,76.023-59.636,30.243-41.172,77.765-61.287,28.495-39.513,79.495-62.93,26.746-37.854,81.237-64.58,24.997-36.196,168.602-134.602,22.248-33.953,71.816-57.585c.252-.203.837.048,1.306.562.468.511.668,1.079.391,1.294l-71.756,57.522-22.25,33.953-85.7,68.45-82.905,66.157-24.997,36.196-81.238,64.584-26.746,37.854-79.497,62.932-28.496,39.513-77.765,61.289-30.244,41.172-76.025,59.638-32.003,42.839-74.292,57.995-33.75,44.498-72.553,56.344-35.498,46.157-70.822,54.702-37.255,47.823-69.081,53.052-39.005,49.481-67.35,51.41-40.734,51.175-65.628,49.725-42.491,52.84-63.897,48.083-44.24,54.497-62.157,46.434L.965-1113.501l-60.392,44.811-47.769,57.794-58.653,43.161-49.534,59.468-56.913,41.512-51.291,61.133-55.166,39.855-53.047,62.798-53.435,38.214-54.794,64.456-51.697,36.564-238.09,278.419-64.751,75.778-67.122,78.444-69.53,81.355-477.193,558.055-66.026,77.248c-.006.007-.013.015-.02.021Z"/>
            <path class="cls-10" d="M-1358.971,812.86c-.221.209-.755.019-1.228-.448-.493-.488-.731-1.091-.531-1.348l59.515-76.41,119.113-152.846,319.487-410.096,186.283-239.026,86.259-110.764,235.25-301.878,205.06-263.209,78.209-52.339,62.237-80.927,81.254-55.228,59.166-78.014,84.292-58.109,56.121-75.074,87.337-60.997,53.031-72.196,90.375-63.88,49.961-69.282,93.421-66.768,46.888-66.369,96.46-69.649,43.823-63.464,99.499-72.532,40.778-60.52,102.51-75.442,37.722-57.622,105.549-78.324,34.648-54.706,108.59-81.207,31.584-51.799,111.628-84.091,28.527-48.898,114.651-86.96,61.735-46.764c.259-.195.846.063,1.311.577.466.516.609,1.108.375,1.288l-61.736,46.764-114.579,86.878-28.527,48.899-111.631,84.096-31.585,51.8-108.592,81.211-34.649,54.707-105.552,78.328-37.722,57.623-102.513,75.445-40.779,60.522-99.501,72.534-43.824,63.464-96.462,69.653-46.889,66.369-93.423,66.77-49.961,69.283-90.376,63.882-53.033,72.196-87.339,61-56.121,75.075-84.294,58.111-59.167,78.015-81.255,55.229-62.238,80.929-78.21,52.34-358.067,459.596-82.18,105.432-86.259,110.764-186.283,239.026-319.487,410.096-119.113,152.846-59.516,76.411c-.009.011-.018.021-.028.031Z"/>
            <path class="cls-2" d="M3713.155-361.819c-.034.032-.076.057-.128.071L2625.919-66.37l-22.346,455.734c-.01.174-.099.287-.252.318l-579.243,116.333-83.076,513.747c-.025.155-.123.252-.281.268l-1317.041,149.324-821.644,93.15-209.24,23.736-185.954,21.064-268.403,30.45c-.379.044-.989-.367-1.363-.916-.373-.549-.37-1.029.01-1.072l268.402-30.452,185.953-21.064,446.48-50.636,1901.205-215.546,83.073-513.727c.023-.144.111-.234.245-.263l579.214-116.328,22.345-455.718c.008-.163.085-.275.227-.311l1087.32-295.438c.344-.093.952.272,1.359.815.346.461.435.902.245,1.082Z"/>
            <path class="cls-14" d="M-803.549,1398.658c-.211.2-.714.036-1.179-.4-.504-.473-.772-1.085-.599-1.368L403.764-585.002c.026-.044.061-.076.105-.101l153.693-83.243,82.07-140.551c.025-.044.059-.079.104-.102l162.416-91.514,73.262-132.197c.023-.047.06-.082.103-.107l171.104-99.801,64.498-123.832c.024-.047.058-.086.104-.112l179.817-108.061,55.715-115.502c.025-.049.059-.09.106-.118l188.484-116.332,46.969-107.149c.025-.054.061-.097.109-.127l197.177-124.575,38.162-98.841c.022-.059.059-.107.111-.14l254.983-164.501c.275-.178.867.101,1.323.623.456.522.606,1.096.327,1.265l-254.905,164.451-38.163,98.844c-.024.06-.062.11-.114.141l-197.184,124.578-46.97,107.151c-.024.055-.06.099-.11.129l-188.49,116.336-55.716,115.501c-.025.051-.06.092-.108.12l-179.82,108.063-64.499,123.835c-.026.047-.062.085-.107.112l-171.107,99.804-73.262,132.2c-.025.048-.061.084-.107.109l-162.419,91.513-82.07,140.553c-.028.044-.065.08-.109.105l-153.696,83.246-188.739,309.43L111.014-100.414-3.631,87.53l-124.688,204.373-285.212,467.514-389.972,639.184c-.013.022-.029.041-.046.057Z"/>
            <path class="cls-45" d="M-1434.579,733.116c-.222.211-.761.016-1.234-.455-.492-.489-.725-1.091-.522-1.345L-979.926,164.409l89.356-111.033,319.318-396.599,269.028-334.163,68.888-46.85,60.544-75.974,71.492-49.268,57.914-73.532,74.073-51.713,55.335-71.034,76.633-54.196,52.731-68.564,79.23-56.606,50.134-66.102,81.784-59.079,47.53-63.631,84.371-61.535,44.951-61.132,86.943-63.973,42.326-58.697,89.524-66.419,39.747-56.198,92.095-68.86,37.133-53.77,94.667-71.299,34.534-51.306,97.248-73.747,31.955-48.806,99.82-76.188,29.339-46.377,102.393-78.629,26.767-43.883,160.361-123.864c.257-.198.843.058,1.31.572.466.514.632,1.101.38,1.289l-160.294,123.789-26.767,43.884-102.396,78.632-29.339,46.377-99.823,76.192-31.956,48.806-97.25,73.75-34.535,51.307-94.669,71.302-37.133,53.771-92.097,68.862-39.748,56.2-89.525,66.422-42.328,58.698-86.944,63.975-44.95,61.133-84.373,61.537-47.53,63.632-81.785,59.081-50.136,66.102-79.231,56.608-52.731,68.565-76.635,54.196-55.337,71.035-74.072,51.716-57.915,73.533-71.493,49.268-60.546,75.976-68.889,46.85L-1434.553,733.089c-.008.01-.017.019-.026.028Z"/>
            <path class="cls-30" d="M1563.092-2385.821l-212.028,161.816-30.551,48.259-101.225,76.736-33.26,50.828-98.524,74.226-35.959,53.389-95.842,71.681-38.667,55.958-93.177,69.101-41.375,58.526-90.477,66.592-44.082,61.094-87.813,64.013-46.764,63.69-85.138,61.478-49.49,66.221-82.431,58.962-52.196,68.789-79.768,56.383-54.885,71.391-77.087,53.841-57.591,73.958-74.397,51.289-60.332,76.505-71.708,48.74-63.02,79.107-260.298,174.142-59.062,39.471-488.974,327.094-195.039,221.387-69.407,78.73-71.731,81.452-205.149,232.8c-.192.251-.782.04-1.27-.455-.488-.495-.709-1.092-.495-1.335L-1104.741-104.376-296.415-645.073l63.019-79.106,71.707-48.738,60.331-76.504,74.396-51.288,57.59-73.957,77.086-53.839,54.883-71.391,79.766-56.382,52.195-68.788,82.43-58.96,49.487-66.22,85.138-61.477,46.763-63.689,87.81-64.011,44.082-61.093,90.475-66.591,41.375-58.525,93.174-69.099,38.666-55.957,95.841-71.678,35.958-53.39,98.523-74.222,33.259-50.828,101.223-76.732,30.55-48.259,103.88-79.304,108.143-82.502,26.19-44.957,93.928-72.124c.257-.197.844.059,1.31.574.466.514.647,1.089.378,1.289l-93.857,72.043-26.191,44.957Z"/>
            <path class="cls-44" d="M1762.035-2419.653c-.008.007-.017.015-.025.021l-69.318,51.444-126.221,93.583-30.55,55.147c-.021.036-.047.066-.078.09l-122.619,90.21-34.188,58.557-119.063,86.852-37.829,62.065-115.448,83.368-41.515,65.56-111.806,79.914-45.181,69.037-108.164,76.461-48.831,72.551-104.523,73.006-52.523,76.001-100.891,69.561-56.197,79.487-97.25,66.108-59.872,82.971-93.603,62.647-63.527,86.49-89.979,59.161-67.21,89.982-86.332,55.7-82.308,53.141L-961.75-131.041l-385.239,248.564-325.313,364.835c-.219.257-.786.036-1.271-.459-.487-.495-.707-1.093-.492-1.335l325.37-364.883L-36.099-731.202l67.208-89.982,89.978-59.158,63.526-86.489,93.601-62.646,59.869-82.971,97.249-66.106,56.195-79.485,100.89-69.558,52.521-76,104.521-73.003,48.829-72.55,108.162-76.457,45.179-69.037,111.804-79.909,41.513-65.558,115.444-83.365,37.83-62.063,119.06-86.847,34.188-58.556,122.645-90.259,30.551-55.146c.02-.036.046-.067.078-.09l126.268-93.618,69.318-51.444c.262-.194.848.068,1.313.584.447.497.617,1.051.394,1.262Z"/>
            <path class="cls-56" d="M-1495.509,668.854c-.223.212-.766.013-1.238-.46-.491-.491-.721-1.092-.514-1.342L-432.532-621.208l61.393-42.306,58.647-71.561,63.59-44.441,56.415-69.445,65.822-46.504,54.175-67.321,68.044-48.613,51.945-65.205,70.231-50.741,49.706-63.08,72.472-52.814,47.473-60.964,74.661-54.941,45.268-58.82,76.875-57.043,43.002-56.722,79.116-59.116,40.769-54.606,81.298-61.235,38.572-52.47,83.513-63.336,36.304-50.372,85.72-65.43,34.108-48.234,87.934-67.532,31.875-46.117,90.142-69.625,29.623-44.034,92.35-71.72,27.417-41.888,94.558-73.813,25.191-39.776,146.883-115.214c.255-.199.841.054,1.307.567.468.514.662,1.116.385,1.292l-146.819,115.143-25.191,39.778-94.56,73.816-27.417,41.889-92.353,71.722-29.624,44.034-90.144,69.629-31.875,46.117-87.937,67.534-34.108,48.235-85.721,65.432-36.307,50.372-83.513,63.338-38.572,52.47-81.299,61.238-40.771,54.606-79.117,59.118-43.003,56.722-76.877,57.044-45.269,58.82-74.662,54.943-47.475,60.965-72.474,52.815-49.706,63.081-70.233,50.742L-2.719-1009.578l-68.045,48.615-54.177,67.321-65.822,46.507-56.416,69.446-63.591,44.441-58.648,71.562-61.394,42.306-124.122,150.222-65.713,79.463-213.221,258.028-157.362,190.368-83.817,101.44-179.159,216.736-241.278,291.952c-.008.009-.015.017-.024.025Z"/>
            <path class="cls-48" d="M1898.389-2275.842c-.01.01-.021.019-.033.027l-249.039,173.895-35.306,73.243c-.022.046-.052.082-.093.111l-152.916,105.353-40.881,78.535c-.023.041-.052.074-.092.102l-147.368,100.144-46.473,83.789c-.022.041-.052.072-.089.097l-141.845,94.909-52.023,89.104c-.021.038-.049.07-.087.093l-136.359,89.654-57.595,94.392c-.023.037-.053.066-.087.089l-130.8,84.436-63.171,99.681c-.023.034-.052.063-.086.086l-125.295,79.163-68.763,104.984c-.022.034-.051.063-.086.083l-119.813,73.95-74.261,110.267c-.023.034-.052.061-.087.082l-114.306,68.677-107.922,64.874-290.614,174.642-87.16,52.407L-968.814-3.673l-389.564,234.148-41.167,24.699-252.545,151.781-44.683,49.594c-.218.231-.787.034-1.273-.462-.486-.496-.705-1.093-.489-1.333l44.747-49.645L254.055-741.441l74.311-110.297,119.843-73.998,68.762-104.984c.023-.033.051-.06.084-.082l125.291-79.161,63.171-99.681c.024-.034.052-.062.084-.085l130.799-84.434,57.596-94.392c.022-.036.051-.066.084-.088l136.355-89.649,52.023-89.105c.021-.037.049-.068.085-.091l141.842-94.906,46.474-83.789c.021-.039.052-.07.087-.095l147.365-100.141,40.88-78.534c.021-.042.05-.076.09-.102l152.912-105.35,35.305-73.242c.022-.045.051-.083.092-.11l249.099-173.935c.267-.186.857.083,1.317.601.44.496.603,1.041.383,1.25Z"/>
            <path class="cls-23" d="M1541.501,602.891c-.04.038-.091.064-.154.076l-408.034,81.95-349.571,70.194-567.66,114.011-233.598,46.934-848.871,170.468-196,39.375c-.359.072-.969-.312-1.362-.859-.393-.546-.418-1.046-.063-1.12L-18.941,914.079l233.598-46.934,1325.075-266.117,101.159-401.954c.029-.116.101-.193.214-.222l450.273-122.346,58.398-361.161c.021-.127.091-.214.203-.251l492.632-162.722,15.705-320.405,13.445-274.557,11.664-237.705,7.782-159.019c.02-.406.468-.438,1-.067.532.371.948,1.002.927,1.41l-7.783,159.018-11.663,237.705-13.446,274.557-15.716,320.648c-.007.157-.08.264-.208.306l-492.659,162.731-58.4,361.171c-.022.135-.1.223-.221.256l-450.292,122.351-101.163,401.967c-.015.063-.044.114-.084.152Z"/>
            <path class="cls-19" d="M-1026.532,1163.48c-.215.203-.731.028-1.199-.42-.499-.478-.755-1.088-.572-1.361L254.021-741.39c.023-.035.051-.062.087-.082l121.138-72.82,72.93-111.392c.023-.035.05-.063.087-.084l127.043-78.366,67.01-105.776c.022-.035.05-.063.085-.087l132.881-83.952,61.085-100.158c.021-.037.051-.066.086-.089l138.751-89.518,55.198-94.522c.022-.037.052-.068.087-.092l144.605-95.067,49.257-88.939c.022-.04.053-.073.089-.097l150.466-100.624,43.371-83.3c.023-.043.053-.077.091-.104l156.363-106.251,166.07-112.805,33.562-76.605c.023-.05.055-.091.098-.12l151.585-104.493c.268-.185.858.086,1.318.605.46.519.607,1.077.347,1.275l-151.52,104.447-33.561,76.604c-.024.051-.056.092-.1.122l-166.138,112.852-156.304,106.213-43.371,83.3c-.022.042-.054.078-.091.105l-150.471,100.628-49.257,88.939c-.023.04-.051.073-.091.098l-144.609,95.07-55.198,94.522c-.022.039-.052.07-.089.094l-138.754,89.519-61.086,100.16c-.023.038-.053.068-.088.09l-132.884,83.954-67.009,105.777c-.023.036-.052.066-.089.087l-127.047,78.368-72.93,111.392c-.023.035-.053.064-.089.086l-121.138,72.82-162.699,241.437L-91.411-224.313l-101.873,151.145-352.813,523.661-480.397,712.941c-.012.017-.025.033-.039.047Z"/>
            <path class="cls-9" d="M-1545.678,615.94c-.225.213-.771.012-1.245-.464-.489-.492-.717-1.092-.508-1.34l39.355-46.625,93.093-110.182,89.155-105.612,85.538-101.242,82.064-97.213,78.867-93.346,534.198-632.556,55.228-38.553,56.683-67.606,57.146-40.371,54.74-65.764,59.045-42.226,52.832-63.902,60.971-44.051,50.881-62.051,62.896-45.878,48.947-60.217,64.814-47.696,46.978-58.402,66.766-49.496,45.043-56.567,68.657-51.342,43.125-54.698,70.576-53.159,41.198-52.871,72.494-54.979,39.256-51.027,74.42-56.805,37.321-49.192,76.338-58.625,35.351-47.375,78.256-60.445,33.451-45.521,80.174-62.264,31.507-43.677,82.093-64.084,29.579-41.848,84.004-65.896,27.643-40.013,85.93-67.724,25.708-38.175,87.815-69.564,23.779-36.347,135.365-107.587c.253-.202.839.051,1.307.564.467.512.645,1.077.388,1.293l-135.305,107.523-23.78,36.346-87.817,69.568-25.708,38.175-85.932,67.728-27.644,40.013-84.005,65.898-29.58,41.85-82.095,64.086-31.507,43.677-80.176,62.266-33.451,45.522-78.258,60.446-35.351,47.376-76.338,58.628-37.322,49.192-74.422,56.807-39.256,51.028-72.494,54.981-41.2,52.87-70.576,53.161-43.127,54.698-68.658,51.342-45.044,56.568-66.767,49.497-46.978,58.403-64.815,47.697-48.947,60.218-62.897,45.878-50.883,62.053-60.971,44.052-52.832,63.903-59.046,42.226-54.742,65.763-57.146,40.372-56.684,67.607-55.229,38.554L-1077.586,61.699l-78.866,93.347-82.064,97.213-85.539,101.241-89.155,105.612-93.092,110.182-39.355,46.624c-.006.008-.014.015-.021.022Z"/>
            <path class="cls-40" d="M-1587.7,571.621c-.225.213-.773.01-1.247-.469-.489-.493-.713-1.092-.501-1.338L-643.458-530.229l50.061-35.381,54.739-64.037,51.75-36.982,53.042-62.429,53.438-38.581,51.329-60.803,55.124-40.184,49.632-59.195,56.814-41.783,47.935-57.586,58.486-43.369,46.238-55.976,60.147-44.998,44.568-54.339,61.827-46.591,42.871-52.73,63.516-48.192,41.165-51.112,65.196-49.786,39.476-49.51,66.877-51.38,37.771-47.892,68.565-52.981,36.073-46.283,70.246-54.575,34.384-44.682,71.917-56.161,32.687-43.07,73.607-57.763,30.989-41.461,75.279-59.348,29.3-39.859,76.961-60.943,27.601-38.247,78.641-62.538,25.904-36.637,80.33-64.141,24.206-35.025,82.004-65.728,22.514-33.422,125.399-100.858c.252-.203.837.049,1.306.561.469.512.636,1.081.392,1.295l-125.343,100.797-22.515,33.422-82.006,65.732-24.205,35.025-80.334,64.144-25.903,36.637-78.643,62.54-27.602,38.249-76.962,60.945-29.3,39.859-75.28,59.35-30.99,41.461-73.609,57.764-32.686,43.072-71.92,56.162-34.384,44.682-70.246,54.577-36.074,46.284-68.567,52.981-37.771,47.894-66.877,51.38-39.478,49.511-65.197,49.787-41.166,51.112-63.516,48.194-42.872,52.731-61.828,46.591-44.569,54.339-60.148,44.999-46.24,55.976-58.485,43.37-47.936,57.586-56.815,41.784-49.633,59.195-55.127,40.183-51.33,60.804-53.438,38.583-53.044,62.429-51.75,36.982-54.739,64.038-50.063,35.381-945.943,1099.999c-.006.007-.013.015-.02.021Z"/>
            <path class="cls-27" d="M2956.239-1160.134c-.024.023-.053.042-.086.056l-282.647,119.128-428.493,180.645-43.291,267.697c-.021.122-.086.209-.189.246l-397.106,150.731-74.98,297.933c-.027.108-.094.182-.195.216l-365.672,120.775-106.705,328.19c-.033.1-.104.168-.206.197l-334.342,90.827-292.448,79.458-257.924,70.103-229.246,62.267-205.026,55.728-885.245,240.524-107.742,29.292-99.786,27.082-50.601,13.767c-.342.094-.951-.27-1.358-.813-.408-.544-.459-1.06-.116-1.153l50.6-13.768,99.787-27.081,351.412-95.505L-63.79,662.096l205.027-55.727,229.246-62.267,257.924-70.104,626.635-170.243,106.702-328.179c.031-.094.095-.161.188-.191l365.658-120.771,74.977-297.925c.027-.101.089-.176.182-.211l397.09-150.724,43.29-267.692c.017-.119.08-.203.178-.243l428.643-180.707,282.646-119.128c.313-.132.916.194,1.347.729.384.477.501.96.299,1.152Z"/>
            <path class="cls-28" d="M-1182.45,999.036c-.217.206-.742.024-1.211-.433-.497-.482-.744-1.089-.553-1.355l27.488-38.145,143.762-199.232,133.808-185.401,241.537-334.776,109.409-151.597,199.39-276.351,177.153-245.484L6.742-653.292l73.104-101.273,100.74-63.661,68.519-96.979,105.178-67.868,64.067-92.702,109.597-72.114,59.578-88.444,114.043-76.331,55.097-84.194,118.483-80.54,50.65-79.926,122.913-84.742,46.143-75.701,127.302-88.919,41.72-71.491c.019-.035.045-.063.079-.087l131.652-93.035,37.281-67.228c.022-.037.049-.069.081-.093l136.051-97.257,32.811-62.987c.021-.039.049-.073.085-.098l140.561-101.469,78.73-56.863c.264-.19.853.074,1.316.592.463.518.611,1.105.361,1.281l-78.731,56.862-140.509,101.432-32.811,62.986c-.02.041-.049.075-.085.1l-136.055,97.259-37.285,67.23c-.019.038-.044.069-.082.094l-131.654,93.036-41.72,71.492c-.021.036-.048.065-.082.087l-127.273,88.871-46.145,75.701-122.915,84.748-50.652,79.926-118.484,80.544-55.099,84.196-114.046,76.334-59.579,88.446-109.599,72.117-64.069,92.702-105.179,67.871-68.521,96.98-100.742,63.664L-1154.927,960.851l-27.488,38.145c-.01.014-.022.028-.035.04Z"/>
            <path class="cls-54" d="M1595.663-2327.241c-.008.008-.017.015-.026.022l-231.845,173.27-32.987,54.124-110.252,81.791-36.188,57.161-107.085,78.787-39.389,60.197-103.901,75.766-42.597,63.241-100.726,72.756-45.798,66.275-97.552,69.745-49.006,69.318-94.378,66.734-52.205,72.353-91.204,63.723-55.412,75.395-88.049,60.678-58.594,78.465-84.866,57.66-61.8,81.507-81.695,54.651-65.007,84.547-294.601,193.749-66.302,43.561-63.652,41.887-61.251,40.238L-1206.273-4.598l-447.825,506.152c-.188.254-.782.039-1.271-.456-.487-.494-.708-1.092-.494-1.335L-1207.983-6.436-136.623-710.9l65.006-84.546,81.693-54.649,61.798-81.505,84.865-57.659,58.593-78.464,88.048-60.675,55.411-75.395,91.202-63.721,52.204-72.353,94.376-66.732,49.005-69.318,97.55-69.742,45.796-66.275,100.725-72.753,42.596-63.24,103.9-75.763,39.388-60.196,107.082-78.783,36.188-57.161,110.248-81.787,32.987-54.123,113.416-84.792,118.452-88.52,27.848-50.283,104.15-78.469c.259-.195.847.064,1.311.579.466.516.63,1.086.372,1.287l-104.074,78.38-27.801,50.249c-.014.026-.031.048-.051.067Z"/>
            <path class="cls-38" d="M1043.578,82.987c-.031.029-.068.051-.111.065l-533.097,176.073-224.371,74.122-201.905,66.681-182.662,60.31-165.987,54.859-151.577,50.033-266.655,88.113-328.523,108.48-94.357,31.194-207.422,68.514c-.331.109-.938-.239-1.354-.779-.418-.541-.485-1.065-.157-1.176l896.959-296.301,151.576-50.033,165.988-54.858,182.661-60.311,201.905-66.681,224.37-74.121,532.967-176.029,106.73-276.239c.032-.081.089-.138.168-.169l306.404-116.301,82.249-252.908c.028-.088.085-.149.163-.183l330.652-139.39,57.776-229.633c.025-.094.079-.164.162-.203l354.893-162.426,107.161-662.661c.063-.378.54-.359,1.069.042.528.401.908,1.032.847,1.411l-73.804,456.316-33.385,206.518c-.019.115-.079.197-.17.239l-354.908,162.433-57.778,229.639c-.025.1-.084.172-.17.206l-330.663,139.395-82.251,252.915c-.029.091-.088.154-.175.187l-306.413,116.304-106.733,276.246c-.017.043-.04.079-.071.108Z"/>
            <path class="cls-46" d="M-1297.597,877.59c-.219.208-.751.02-1.222-.443-.494-.486-.736-1.09-.538-1.35l21.56-28.444,251.24-331.109,114.46-150.893,107.899-142.214,101.86-134.291L-267.806-483.841l145.376-191.662,67.745-89.234,85.864-56.51,64.135-85.866,89.368-59.783,60.633-82.543,92.837-63.074,57.119-79.21,96.326-66.382,53.614-75.887,99.796-69.674,50.102-72.554,103.248-73.001,46.624-69.203,106.72-76.293,43.117-65.878,110.201-79.593,39.612-62.553,113.664-82.88,36.114-59.234,117.136-86.172,32.617-55.915,120.534-89.461,29.184-52.595,124.047-92.783,24.67-18.422c.26-.194.848.067,1.312.582.464.516.627,1.098.37,1.285l-24.67,18.422-123.969,92.694-29.137,52.56c-.02.035-.045.063-.078.09l-120.507,89.412-32.618,55.916-117.139,86.178-36.115,59.234-113.666,82.883-39.613,62.554-110.203,79.597-43.118,65.879-106.722,76.297-46.624,69.203-103.251,73.004-50.103,72.556-99.798,69.675-53.616,75.889-96.327,66.383-57.12,79.212-92.839,63.075-60.635,82.544-89.368,59.784-64.138,85.867-85.865,56.513-67.676,89.17-904.129,1191.747-251.239,331.109-21.56,28.445c-.009.012-.019.024-.03.034Z"/>
            <path class="cls-35" d="M299.452-694.02c-.015.015-.032.027-.051.038l-237.904,138.737-108.73,63.442L-1657.484,447.271l-31.024,18.118c-.285.166-.881-.125-1.331-.651-.449-.525-.585-1.08-.298-1.251L-151.582-433.815l102.721-59.89,108.73-63.443,237.847-138.703,77.496-118.387c.023-.036.054-.064.089-.086l128.737-77.36,71.234-112.396c.022-.036.053-.065.089-.088l134.948-83.299,64.939-106.426c.021-.037.051-.068.089-.09l141.184-89.211,58.651-100.462c.023-.038.052-.07.089-.093l147.412-95.115,52.389-94.47c.022-.041.053-.073.09-.098l153.612-101.046,46.111-88.514c.021-.044.052-.078.092-.105l159.855-106.912,39.814-82.59,37.524-77.738c.021-.045.054-.08.094-.11l162.143-111.749,79.155-180.771c.138-.319.667-.203,1.182.248.514.452.819,1.073.682,1.389l-79.189,180.848c-.022.051-.055.092-.099.122l-162.149,111.752-37.49,77.669-39.849,82.661c-.022.046-.053.084-.096.113l-159.858,106.914-46.112,88.516c-.023.044-.055.079-.095.105l-153.614,101.048-52.391,94.472c-.022.04-.053.075-.092.099l-147.414,95.115-58.652,100.465c-.024.039-.054.072-.091.095l-141.186,89.211-64.94,106.428c-.022.038-.053.069-.091.092l-134.951,83.299-71.235,112.399c-.023.037-.054.067-.091.089l-128.74,77.361-77.496,118.388c-.012.018-.026.034-.041.049Z"/>
            <path class="cls-4" d="M1801.21-2378.336c-.009.008-.018.016-.027.023l-166.355,121.281-31.15,59.843c-.02.039-.049.074-.084.099l-133.472,96.38-35.395,63.873c-.021.037-.046.068-.082.092l-129.34,92.4-39.597,67.87c-.021.034-.047.063-.079.087l-125.106,88.436-43.842,71.896-121.001,84.502-48.059,75.951-116.792,80.508-52.346,79.965-112.565,76.5-56.581,84.032-108.347,72.499-60.832,88.064-104.165,68.48-65.083,92.096-99.913,64.499-69.35,96.144-273.308,172.67-161.441,102.017L-1448.673,213.986l-232.142,259.392c-.215.232-.785.036-1.272-.46-.487-.496-.707-1.093-.491-1.334l232.2-259.441L79.922-754.636l69.348-96.142,99.911-64.497,65.08-92.095,104.164-68.477,60.829-88.064,108.345-72.496,56.579-84.031,112.562-76.496,52.345-79.964,116.789-80.505,48.059-75.949,120.999-84.498,43.839-71.896,125.135-88.485,39.645-67.903,129.369-92.452,35.392-63.868c.021-.037.047-.069.081-.092l133.471-96.38,31.15-59.841c.021-.04.051-.075.083-.098l166.407-121.318c.263-.192.85.071,1.314.588.446.498.613,1.048.391,1.259Z"/>
            <path class="cls-41" d="M2549.111-1589.53c-.019.018-.041.033-.065.046l-203.243,105.089-320.67,165.789-45.88,182.376c-.023.093-.076.16-.155.199l-301.432,147.498-65.332,200.838c-.027.084-.078.144-.155.178l-282.157,129.172-84.757,219.376c-.031.077-.082.132-.158.164l-262.898,110.81-104.228,237.897c-.033.074-.087.126-.162.155L634.121,2.558l-219.272,83.253-198.393,75.279L36.146,229.526l-315.486,119.763-138.801,52.672-128.092,48.638-118.624,44.995-731.74,277.743c-.322.121-.926-.216-1.351-.753-.425-.538-.507-1.076-.186-1.193L413.311,83.865,632.583.613l243.587-92.458,104.224-237.891c.031-.07.082-.121.152-.149l262.891-110.808,84.755-219.371c.029-.074.078-.129.148-.161l282.148-129.168,65.33-200.836c.028-.08.079-.138.148-.175l301.423-147.492,45.878-182.371c.023-.091.073-.159.149-.197l320.785-165.849,203.242-105.088c.295-.154.895.151,1.337.681.405.485.539.991.331,1.19Z"/>
            <path class="cls-24" d="M-1386.133,784.212c-.221.21-.757.018-1.23-.45-.493-.488-.729-1.091-.527-1.347l16.751-21.218,334.535-424.365,100.035-126.86L-224.653-693.083l74.955-50.144,62.598-80.328,77.848-52.939,59.645-77.528,80.774-55.714,56.702-74.736,83.71-58.447,53.739-71.979,86.629-61.216,50.813-69.15,89.523-64.012,47.876-66.366,92.433-66.772,44.941-63.582,95.344-69.534,41.995-60.787,98.282-72.266,39.067-58.01,101.166-75.057,36.122-55.215,104.079-77.818,33.191-52.438,106.983-80.573,30.254-49.65,109.903-83.344,27.343-46.834,112.781-86.127,21.382-16.298c.258-.197.845.062,1.311.576.466.515.639,1.08.377,1.288l-134.092,102.344-27.344,46.835-109.906,83.35-30.255,49.65-106.985,80.577-33.193,52.438-104.08,77.823-36.123,55.215-101.169,75.06-39.067,58.011-98.284,72.27-41.997,60.787-95.345,69.536-44.942,63.582-92.434,66.774-47.878,66.367-89.524,64.014-50.815,69.151-86.63,61.218-53.741,71.979-83.711,58.449-56.703,74.737-80.775,55.716-59.648,77.529-77.848,52.941-62.599,80.329-74.956,50.145-65.509,83.14L-1386.106,784.182c-.008.011-.017.02-.027.029Z"/>
            <path class="cls-8" d="M745.516-228.251c-.024.023-.054.042-.086.056L336.742-55.894,159.066,18.99l-450.902,190.097-460.828,194.224-96.591,40.739-255.715,107.763-75.458,31.844-282.939,119.242c-.313.132-.916-.195-1.346-.73-.431-.535-.525-1.078-.213-1.208L-155.124,148.861,157.507,17.053l177.676-74.884,408.587-172.259,100.609-208.533c.029-.061.077-.106.139-.135l229.689-105.157,84.779-193.463c.029-.065.075-.113.135-.143l245.376-120.079,68.923-178.422c.027-.069.072-.121.136-.152l261.078-134.966,101.435-311.913c.024-.074.07-.131.132-.166l265.782-149.778,85.113-338.107c.091-.357.589-.303,1.112.117.525.421.878,1.05.789,1.406l-85.146,338.239c-.022.087-.068.151-.14.192l-265.792,149.785-48.278,148.428-53.156,163.489c-.026.078-.075.137-.142.171l-261.088,134.971-68.923,178.424c-.029.071-.075.124-.141.156l-245.382,120.083-84.782,193.467c-.029.067-.077.117-.142.147l-229.695,105.159-100.611,208.536c-.016.032-.035.06-.06.083Z"/>
            <path class="cls-13" d="M-1456.282,710.226c-.223.211-.763.015-1.235-.456-.491-.489-.723-1.091-.519-1.343L-368.447-632.435l66.283-45.007,60.69-75.433,68.742-47.391,58.187-73.059,71.219-49.741,55.71-70.658,73.696-52.09,53.182-68.312,76.183-54.448,50.704-65.911,78.66-56.798,48.174-63.564,81.139-59.148,45.706-61.171,83.616-61.497,43.203-58.797,86.067-63.875,40.7-56.422,88.572-66.198,38.203-54.055,91.024-68.577,35.709-51.687,93.494-70.92,33.23-49.285,95.974-73.271,30.716-46.953,98.444-75.615,28.238-44.548,100.923-77.968,25.715-42.206,122.043-94.804c.255-.199.842.057,1.309.571.467.514.613,1.087.382,1.29l-121.977,94.728-25.715,42.207-100.927,77.972-28.239,44.548-98.446,75.62-30.717,46.953-95.976,73.274-33.231,49.285-93.496,70.923-35.71,51.688-91.026,68.579-38.205,54.055-88.573,66.2-40.701,56.422-86.069,63.878-43.204,58.796-83.617,61.5-45.707,61.172-81.14,59.148-48.177,63.565-78.661,56.799-50.705,65.912-76.183,54.45-53.182,68.313-73.699,52.09-55.711,70.66-71.22,49.742-58.189,73.06-68.742,47.393-60.692,75.433-66.283,45.008-63.193,77.808-134.327,165.282-71.351,87.842-74.447,91.563-77.659,95.599-668.553,822.712c-.008.01-.016.019-.025.027Z"/>
            <path class="cls-47" d="M2294.839-1857.707c-.015.014-.032.027-.051.038l-157.107,91.631-255.68,149.086-44.048,135.473c-.023.076-.07.131-.132.166l-242.676,136.757-57.171,147.931c-.025.068-.07.118-.13.151l-229.689,124.39-70.262,160.456c-.028.063-.072.11-.13.141l-216.683,112.008-83.412,172.932c-.03.059-.073.103-.131.132l-203.649,99.653-96.564,185.406c-.031.056-.075.1-.134.127l-190.708,87.293-174.785,80.04L110.89-100.305-37.528-32.343-174.958,30.537l-127.594,58.418-118.797,54.367-110.855,50.759-103.726,47.452-814.651,372.936-67.385,30.831c-.306.141-.908-.178-1.343-.71-.437-.534-.54-1.077-.234-1.219L635.525-343.117l96.562-185.402c.029-.055.072-.097.126-.123l203.644-99.65,83.412-172.929c.028-.057.07-.101.124-.13l216.678-112.005,70.26-160.454c.025-.06.067-.107.125-.138l229.683-124.387,57.171-147.929c.024-.065.066-.115.126-.149l242.668-136.752,44.047-135.471c.024-.072.068-.127.128-.165l255.771-149.139,157.108-91.632c.285-.166.88.126,1.33.651.42.491.564,1.012.35,1.215Z"/>
            <path class="cls-7" d="M-1513.293,650.097c-.224.212-.768.012-1.242-.462-.49-.492-.719-1.092-.51-1.341l9.391-11.259,99.369-119.325,185.747-222.981L-893.867-97.543l73.645-88.394,328.541-394.516,59.205-40.806,58.706-71.042,61.333-42.825,56.552-68.997,63.453-44.888,54.388-66.947,65.608-46.879,52.242-64.911,67.747-48.908,50.078-62.858,69.859-50.963,47.957-60.796,71.988-52.982,45.776-58.779,74.154-54.983,43.62-56.735,76.257-57.03,41.491-54.664,78.395-59.059,39.318-52.653,80.553-61.053,37.162-50.61,82.656-63.1,35.041-48.545,84.787-65.121,32.892-46.508,86.918-67.142,30.711-44.489,89.057-69.171,28.588-42.425,91.18-71.186,26.44-40.386,93.311-73.207,24.266-38.375,111.794-88.117c.253-.201.839.052,1.307.566.468.512.659,1.076.386,1.293l-111.731,88.046-24.265,38.376-93.314,73.21-26.441,40.387-91.181,71.19-28.589,42.424-89.059,69.174-30.711,44.49-86.92,67.145-32.893,46.508-84.789,65.122-35.041,48.546-82.658,63.102-37.162,50.61-80.554,61.053-39.318,52.656-78.397,59.059-41.492,54.664-76.257,57.033-43.622,56.735-74.154,54.984-45.777,58.78-71.989,52.984-47.958,60.797-69.86,50.963-50.079,62.86-67.747,48.908-52.243,64.912-65.61,46.881-54.388,66.948-63.454,44.889-56.552,68.998-61.335,42.826-58.707,71.042-59.205,40.807-1023.31,1228.697c-.007.008-.015.016-.022.023Z"/>
            <path class="cls-26" d="M547.135-435.392c-.021.02-.044.036-.071.048L-66.455-135.157l-126.937,62.084-1360.648,665.747-9.415,4.638c-.3.147-.9-.163-1.34-.693-.44-.531-.558-1.087-.252-1.229l9.415-4.638L545.394-437.227l92.414-166.778c.027-.049.067-.087.116-.113l182.722-94.454,81.342-156.224c.027-.051.066-.092.115-.117l193.683-104.897,70.262-145.715c.027-.053.066-.096.116-.123l204.661-115.304,59.217-135.182c.025-.058.065-.104.116-.133l215.604-125.73,48.145-124.675,44.492-115.102c.023-.063.064-.109.116-.143l219.231-135.288,86.159-264.955c.111-.336.622-.262,1.143.173.521.434.854,1.062.744,1.4l-20.196,62.041-65.997,203.02c-.023.071-.067.125-.123.161l-219.24,135.295-44.455,115.007-48.182,124.772c-.025.065-.068.115-.122.146l-215.611,125.735-59.216,135.183c-.026.059-.066.105-.12.135l-204.667,115.309-70.262,145.716c-.027.055-.066.097-.12.127l-193.688,104.899-81.343,156.227c-.028.053-.068.094-.121.12l-182.724,94.454-92.416,166.781c-.014.026-.032.049-.052.068Z"/>
            <path class="cls-43" d="M-1560.486,600.322c-.225.213-.771.012-1.245-.464-.489-.493-.717-1.092-.506-1.34l6.517-7.696L-1055.314,2.073l72.565-85.33,69.873-82.257,314.414-369.873,53.354-37.3,56.699-67.097,55.211-39.061,54.789-65.34,57.096-40.794,52.914-63.563,58.962-42.565,51.04-61.784,60.812-44.319,49.164-60.006,62.678-46.09,47.29-58.227,64.501-47.871,45.441-56.422,66.368-49.641,43.565-54.643,68.219-51.395,41.698-52.873,70.076-53.158,39.797-51.121,71.953-54.886,37.929-49.351,73.812-56.648,36.045-47.563,75.644-58.438,34.205-45.766,77.503-60.201,32.337-43.994,79.345-61.948,30.469-42.222,81.205-63.712,28.593-40.442,83.055-65.468,26.724-38.671,84.915-67.233,24.83-36.925,86.766-68.988,22.979-35.118,88.619-70.744,14.41-11.466c.253-.202.839.051,1.306.563.468.512.641,1.076.389,1.293l-14.41,11.466-88.558,70.68-22.981,35.117-86.767,68.991-24.831,36.926-84.917,67.234-26.725,38.672-83.056,65.47-28.594,40.443-81.207,63.714-30.469,42.223-79.346,61.951-32.338,43.993-77.504,60.204-34.205,45.765-75.645,58.441-36.046,47.564-73.813,56.649-37.93,49.351-71.954,54.887-39.798,51.121-70.077,53.159-41.699,52.875-68.218,51.396-43.567,54.643-66.369,49.642-45.441,56.424-64.502,47.871-47.291,58.227-62.679,46.091-49.166,60.006-60.812,44.321-51.041,61.785-58.963,42.566-52.915,63.563-57.096,40.797-54.791,65.34-55.212,39.062-56.7,67.099-53.355,37.3-58.539,68.897-123.411,145.151-202.285,238.035L-1053.542,3.858l-506.923,596.443c-.006.008-.013.015-.021.022Z"/>
            <path class="cls-31" d="M2120.929-2041.13c-.013.012-.028.023-.043.033l-339.484,214.465-41.131,106.468c-.024.063-.065.109-.116.143l-203.023,125.25-50.556,115.466c-.025.057-.065.099-.112.131l-193.649,116.364-60.016,124.443c-.027.052-.063.094-.112.122l-184.298,107.448-69.452,133.447c-.026.049-.064.088-.111.116l-174.916,98.553-78.928,142.434c-.026.049-.065.085-.111.111l-165.557,89.627-88.371,151.443c-.028.048-.066.083-.114.108l-156.224,80.752L34.526-289.377-423.782-52.454l-189.828,98.174-87.032,44.963-901.304,466.024c-.295.154-.893-.151-1.337-.68-.443-.53-.561-1.086-.266-1.236L-862.522,171.634,167.962-361.114l145.039-75.01,156.152-80.715,88.369-151.44c.025-.046.062-.081.108-.105l165.555-89.626,78.927-142.432c.025-.046.061-.082.107-.109l174.912-98.55,69.45-133.443c.026-.048.062-.087.107-.113l184.295-107.446,60.016-124.442c.025-.05.061-.09.108-.12l193.644-116.361,50.555-115.464c.024-.055.06-.1.111-.129l203.016-125.248,41.13-106.466c.022-.062.059-.11.113-.142l339.563-214.514c.277-.175.87.107,1.325.629.429.493.581,1.024.364,1.229Z"/>
            <path class="cls-20" d="M405.541-583.233c-.017.016-.038.031-.06.042l-143.134,77.547-133.625,72.348L3.737-365.584l-117.18,63.452-110.059,59.628-103.612,56.079-945.49,512.106-362.319,196.234c-.29.16-.887-.137-1.334-.665s-.573-1.085-.283-1.245l2.649-1.466L-979.842,164.339l212.852-115.297,78.437-42.462,359.826-194.916,103.612-56.078,110.059-59.628L2.125-367.495l124.984-67.713,133.625-72.348,143.068-77.51,84.567-138.583c.027-.041.061-.075.101-.098l151.198-85.215,76.372-130.81c.025-.042.059-.076.1-.1l159.309-92.907,68.183-123.043c.025-.044.061-.079.1-.103l167.42-100.596,60.004-115.285c.025-.045.056-.083.102-.109l175.53-108.286,51.85-107.496c.024-.048.059-.088.104-.117l183.604-115.992,84.487-192.883c.023-.053.057-.094.104-.125l186.436-122.601,83.379-215.782c.122-.323.647-.229,1.165.217.517.444.834,1.068.708,1.395l-83.414,215.87c-.022.058-.06.102-.109.138l-186.444,122.606-84.486,192.885c-.024.054-.06.099-.108.127l-183.61,115.995-51.852,107.498c-.025.05-.059.092-.105.119l-175.535,108.287-60.005,115.286c-.025.048-.06.084-.104.112l-167.424,100.599-68.183,123.044c-.025.044-.059.081-.104.107l-159.312,92.907-76.374,130.811c-.025.043-.06.077-.103.103l-151.2,85.217-84.569,138.584c-.013.022-.028.041-.046.058Z"/>
            <path class="cls-29" d="M1994.473-2174.503c-.012.011-.024.021-.038.029l-106.143,70.982-181.479,121.401-38.116,87.04c-.023.053-.059.094-.104.124l-174.448,114.684-45.243,93.805c-.024.049-.058.089-.1.116l-167.365,108.019-52.371,100.568c-.023.044-.056.081-.099.107l-160.317,101.285-59.515,107.345c-.023.043-.056.077-.097.103l-153.239,94.575-66.635,114.151c-.024.041-.057.075-.097.097l-146.182,87.832-73.778,120.926c-.025.041-.057.073-.098.096l-139.096,81.114-80.905,127.737c-.025.04-.057.071-.099.094l-132.069,74.431-123.834,69.76L-513.029-156.555l-82.89,46.681-78.708,44.393-988.789,557.187c-.008.004-.12.055-.13.059-.309.137-.911-.184-1.344-.717-.434-.534-.532-1.074-.226-1.215l.104-.046L347.225-644.143l80.904-127.736c.024-.038.056-.069.094-.091l139.094-81.114,73.777-120.925c.024-.038.055-.071.094-.093l146.179-87.831,66.633-114.149c.022-.04.054-.071.094-.097l153.238-94.573,59.515-107.344c.023-.043.056-.076.095-.102l160.314-101.282,52.37-100.566c.024-.045.058-.081.096-.107l167.36-108.016,45.245-93.805c.023-.048.056-.087.098-.114l174.443-114.679,38.117-87.04c.023-.053.056-.094.101-.124l181.546-121.445,106.143-70.982c.272-.181.863.093,1.321.613.436.495.594,1.034.375,1.241Z"/>
          </g>
        </g>
      </g>
    </g>
  </g>
</svg>