<?xml version="1.0" encoding="UTF-8"?>
<svg xmlns="http://www.w3.org/2000/svg" version="1.1" xmlns:xlink="http://www.w3.org/1999/xlink" viewBox="0 0 3840 2160">
  <defs>
    <style>
      .cls-1 {
        fill: url(#Degradado_sin_nombre_69-21);
      }

      .cls-2 {
        fill: url(#Degradado_sin_nombre_69-18);
      }

      .cls-3 {
        fill: url(#Degradado_sin_nombre_69-50);
      }

      .cls-4 {
        fill: url(#Degradado_sin_nombre_69-17);
      }

      .cls-5 {
        fill: url(#Degradado_sin_nombre_69-30);
      }

      .cls-6 {
        fill: url(#Degradado_sin_nombre_69-40);
      }

      .cls-7 {
        fill: url(#Degradado_sin_nombre_69-5);
      }

      .cls-8 {
        fill: url(#Degradado_sin_nombre_69-10);
      }

      .cls-9 {
        fill: url(#Degradado_sin_nombre_69);
      }

      .cls-10 {
        fill: #fff;
      }

      .cls-11 {
        fill: url(#Degradado_sin_nombre_69-48);
      }

      .cls-12 {
        fill: url(#Degradado_sin_nombre_69-9);
      }

      .cls-13 {
        fill: url(#Degradado_sin_nombre_69-38);
      }

      .cls-14 {
        fill: none;
      }

      .cls-15 {
        fill: url(#Degradado_sin_nombre_69-23);
      }

      .cls-16 {
        fill: url(#Degradado_sin_nombre_69-54);
      }

      .cls-17 {
        fill: url(#Degradado_sin_nombre_69-31);
      }

      .cls-18 {
        fill: url(#Degradado_sin_nombre_69-16);
      }

      .cls-19 {
        fill: url(#Degradado_sin_nombre_69-35);
      }

      .cls-20 {
        fill: url(#Degradado_sin_nombre_69-32);
      }

      .cls-21 {
        fill: url(#Degradado_sin_nombre_69-24);
      }

      .cls-22 {
        fill: url(#Degradado_sin_nombre_69-33);
      }

      .cls-23 {
        fill: url(#Degradado_sin_nombre_69-37);
      }

      .cls-24 {
        fill: url(#Degradado_sin_nombre_69-49);
      }

      .cls-25 {
        fill: url(#Degradado_sin_nombre_69-11);
      }

      .cls-26 {
        fill: url(#Degradado_sin_nombre_69-42);
      }

      .cls-27 {
        fill: url(#Degradado_sin_nombre_69-34);
      }

      .cls-28 {
        fill: url(#Degradado_sin_nombre_69-25);
      }

      .cls-29 {
        fill: url(#Degradado_sin_nombre_69-45);
      }

      .cls-30 {
        fill: url(#Degradado_sin_nombre_69-41);
      }

      .cls-31 {
        fill: url(#Degradado_sin_nombre_69-51);
      }

      .cls-32 {
        fill: url(#Degradado_sin_nombre_69-36);
      }

      .cls-33 {
        fill: url(#Degradado_sin_nombre_69-44);
      }

      .cls-34 {
        fill: #284270;
      }

      .cls-35 {
        fill: url(#Degradado_sin_nombre_69-28);
      }

      .cls-36 {
        fill: url(#Degradado_sin_nombre_69-39);
      }

      .cls-37 {
        fill: url(#Degradado_sin_nombre_69-4);
      }

      .cls-38 {
        fill: url(#Degradado_sin_nombre_69-19);
      }

      .cls-39 {
        fill: url(#Degradado_sin_nombre_69-46);
      }

      .cls-40 {
        fill: url(#Degradado_sin_nombre_69-53);
      }

      .cls-41 {
        fill: url(#Degradado_sin_nombre_69-3);
      }

      .cls-42 {
        fill: url(#Degradado_sin_nombre_69-15);
      }

      .cls-43 {
        fill: url(#Degradado_sin_nombre_69-6);
      }

      .cls-44 {
        fill: url(#Degradado_sin_nombre_69-2);
      }

      .cls-45 {
        fill: url(#Degradado_sin_nombre_69-20);
      }

      .cls-46 {
        fill: url(#Degradado_sin_nombre_69-12);
      }

      .cls-47 {
        fill: url(#Degradado_sin_nombre_69-47);
      }

      .cls-48 {
        fill: url(#Degradado_sin_nombre_69-52);
      }

      .cls-49 {
        fill: url(#Degradado_sin_nombre_69-14);
      }

      .cls-50 {
        fill: url(#Degradado_sin_nombre_69-13);
      }

      .cls-51 {
        fill: url(#Degradado_sin_nombre_69-43);
      }

      .cls-52 {
        fill: url(#Degradado_sin_nombre_69-7);
      }

      .cls-53 {
        fill: url(#Degradado_sin_nombre_69-29);
      }

      .cls-54 {
        clip-path: url(#clippath);
      }

      .cls-55 {
        fill: url(#Degradado_sin_nombre_69-8);
      }

      .cls-56 {
        fill: url(#Degradado_sin_nombre_69-27);
      }

      .cls-57 {
        fill: url(#Degradado_sin_nombre_69-22);
      }

      .cls-58 {
        fill: url(#Degradado_sin_nombre_69-26);
      }
    </style>
    <clipPath id="clippath">
      <rect class="cls-14" width="3840" height="2160"/>
    </clipPath>
    <linearGradient id="Degradado_sin_nombre_69" data-name="Degradado sin nombre 69" x1="4551.2" y1="-296.6" x2="-848.8" y2="2934" gradientUnits="userSpaceOnUse">
      <stop offset="0" stop-color="#fff"/>
      <stop offset="1" stop-color="#a0a0a0"/>
    </linearGradient>
    <linearGradient id="Degradado_sin_nombre_69-2" data-name="Degradado sin nombre 69" x1="3950.8" y1="-1300.2" x2="-1449.2" y2="1930.4" xlink:href="#Degradado_sin_nombre_69"/>
    <linearGradient id="Degradado_sin_nombre_69-3" data-name="Degradado sin nombre 69" x1="4305.8" y1="-706.8" x2="-1094.2" y2="2523.8" xlink:href="#Degradado_sin_nombre_69"/>
    <linearGradient id="Degradado_sin_nombre_69-4" data-name="Degradado sin nombre 69" x1="3630.3" y1="-1835.9" x2="-1769.7" y2="1394.7" xlink:href="#Degradado_sin_nombre_69"/>
    <linearGradient id="Degradado_sin_nombre_69-5" data-name="Degradado sin nombre 69" x1="5229.6" y1="837.4" x2="-170.4" y2="4068" xlink:href="#Degradado_sin_nombre_69"/>
    <linearGradient id="Degradado_sin_nombre_69-6" data-name="Degradado sin nombre 69" x1="4947.5" y1="365.8" x2="-452.5" y2="3596.4" xlink:href="#Degradado_sin_nombre_69"/>
    <linearGradient id="Degradado_sin_nombre_69-7" data-name="Degradado sin nombre 69" x1="3814" y1="-1528.8" x2="-1586" y2="1701.8" xlink:href="#Degradado_sin_nombre_69"/>
    <linearGradient id="Degradado_sin_nombre_69-8" data-name="Degradado sin nombre 69" x1="3450.9" y1="-2135.8" x2="-1949.1" y2="1094.9" xlink:href="#Degradado_sin_nombre_69"/>
    <linearGradient id="Degradado_sin_nombre_69-9" data-name="Degradado sin nombre 69" x1="3320.6" y1="-2353.5" x2="-2079.4" y2="877.1" xlink:href="#Degradado_sin_nombre_69"/>
    <linearGradient id="Degradado_sin_nombre_69-10" data-name="Degradado sin nombre 69" x1="3567.9" y1="-1940.2" x2="-1832.1" y2="1290.4" xlink:href="#Degradado_sin_nombre_69"/>
    <linearGradient id="Degradado_sin_nombre_69-11" data-name="Degradado sin nombre 69" x1="3219.8" y1="-2522.1" x2="-2180.2" y2="708.5" xlink:href="#Degradado_sin_nombre_69"/>
    <linearGradient id="Degradado_sin_nombre_69-12" data-name="Degradado sin nombre 69" x1="4846.9" y1="197.7" x2="-553.1" y2="3428.3" xlink:href="#Degradado_sin_nombre_69"/>
    <linearGradient id="Degradado_sin_nombre_69-13" data-name="Degradado sin nombre 69" x1="4089.9" y1="-1067.6" x2="-1310.1" y2="2163" xlink:href="#Degradado_sin_nombre_69"/>
    <linearGradient id="Degradado_sin_nombre_69-14" data-name="Degradado sin nombre 69" x1="3397.5" y1="-2225" x2="-2002.5" y2="1005.6" xlink:href="#Degradado_sin_nombre_69"/>
    <linearGradient id="Degradado_sin_nombre_69-15" data-name="Degradado sin nombre 69" x1="3165.1" y1="-2613.6" x2="-2234.9" y2="617.1" xlink:href="#Degradado_sin_nombre_69"/>
    <linearGradient id="Degradado_sin_nombre_69-16" data-name="Degradado sin nombre 69" x1="3121.4" y1="-2686.6" x2="-2278.6" y2="544" xlink:href="#Degradado_sin_nombre_69"/>
    <linearGradient id="Degradado_sin_nombre_69-17" data-name="Degradado sin nombre 69" x1="3292.7" y1="-2400.3" x2="-2107.3" y2="830.3" xlink:href="#Degradado_sin_nombre_69"/>
    <linearGradient id="Degradado_sin_nombre_69-18" data-name="Degradado sin nombre 69" x1="3095.5" y1="-2729.8" x2="-2304.5" y2="500.8" xlink:href="#Degradado_sin_nombre_69"/>
    <linearGradient id="Degradado_sin_nombre_69-19" data-name="Degradado sin nombre 69" x1="4403" y1="-544.3" x2="-997" y2="2686.3" xlink:href="#Degradado_sin_nombre_69"/>
    <linearGradient id="Degradado_sin_nombre_69-20" data-name="Degradado sin nombre 69" x1="3727.5" y1="-1673.5" x2="-1672.5" y2="1557.1" xlink:href="#Degradado_sin_nombre_69"/>
    <linearGradient id="Degradado_sin_nombre_69-21" data-name="Degradado sin nombre 69" x1="3222.8" y1="-2517" x2="-2177.2" y2="713.6" xlink:href="#Degradado_sin_nombre_69"/>
    <linearGradient id="Degradado_sin_nombre_69-22" data-name="Degradado sin nombre 69" x1="3064.4" y1="-2781.8" x2="-2335.6" y2="448.8" xlink:href="#Degradado_sin_nombre_69"/>
    <linearGradient id="Degradado_sin_nombre_69-23" data-name="Degradado sin nombre 69" x1="3070.4" y1="-2771.7" x2="-2329.6" y2="458.9" xlink:href="#Degradado_sin_nombre_69"/>
    <linearGradient id="Degradado_sin_nombre_69-24" data-name="Degradado sin nombre 69" x1="3038" y1="-2825.9" x2="-2362" y2="404.7" xlink:href="#Degradado_sin_nombre_69"/>
    <linearGradient id="Degradado_sin_nombre_69-25" data-name="Degradado sin nombre 69" x1="3162.6" y1="-2617.6" x2="-2237.4" y2="613" xlink:href="#Degradado_sin_nombre_69"/>
    <linearGradient id="Degradado_sin_nombre_69-26" data-name="Degradado sin nombre 69" x1="4143.2" y1="-978.5" x2="-1256.8" y2="2252.1" xlink:href="#Degradado_sin_nombre_69"/>
    <linearGradient id="Degradado_sin_nombre_69-27" data-name="Degradado sin nombre 69" x1="3496.9" y1="-2058.8" x2="-1903.1" y2="1171.8" xlink:href="#Degradado_sin_nombre_69"/>
    <linearGradient id="Degradado_sin_nombre_69-28" data-name="Degradado sin nombre 69" x1="3119.7" y1="-2689.3" x2="-2280.3" y2="541.3" xlink:href="#Degradado_sin_nombre_69"/>
    <linearGradient id="Degradado_sin_nombre_69-29" data-name="Degradado sin nombre 69" x1="3048.2" y1="-2808.9" x2="-2351.8" y2="421.7" xlink:href="#Degradado_sin_nombre_69"/>
    <linearGradient id="Degradado_sin_nombre_69-30" data-name="Degradado sin nombre 69" x1="3066.7" y1="-2778" x2="-2333.3" y2="452.6" xlink:href="#Degradado_sin_nombre_69"/>
    <linearGradient id="Degradado_sin_nombre_69-31" data-name="Degradado sin nombre 69" x1="3084.7" y1="-2747.9" x2="-2315.3" y2="482.7" xlink:href="#Degradado_sin_nombre_69"/>
    <linearGradient id="Degradado_sin_nombre_69-32" data-name="Degradado sin nombre 69" x1="3107.5" y1="-2709.7" x2="-2292.5" y2="520.9" xlink:href="#Degradado_sin_nombre_69"/>
    <linearGradient id="Degradado_sin_nombre_69-33" data-name="Degradado sin nombre 69" x1="3855.9" y1="-1458.8" x2="-1544.1" y2="1771.8" xlink:href="#Degradado_sin_nombre_69"/>
    <linearGradient id="Degradado_sin_nombre_69-34" data-name="Degradado sin nombre 69" x1="3362.2" y1="-2284" x2="-2037.8" y2="946.6" xlink:href="#Degradado_sin_nombre_69"/>
    <linearGradient id="Degradado_sin_nombre_69-35" data-name="Degradado sin nombre 69" x1="3055.1" y1="-2797.3" x2="-2344.9" y2="433.3" xlink:href="#Degradado_sin_nombre_69"/>
    <linearGradient id="Degradado_sin_nombre_69-36" data-name="Degradado sin nombre 69" x1="3030.1" y1="-2839.2" x2="-2369.9" y2="391.5" xlink:href="#Degradado_sin_nombre_69"/>
    <linearGradient id="Degradado_sin_nombre_69-37" data-name="Degradado sin nombre 69" x1="3770.4" y1="-1601.7" x2="-1629.6" y2="1628.9" xlink:href="#Degradado_sin_nombre_69"/>
    <linearGradient id="Degradado_sin_nombre_69-38" data-name="Degradado sin nombre 69" x1="3267.3" y1="-2442.7" x2="-2132.7" y2="787.9" xlink:href="#Degradado_sin_nombre_69"/>
    <linearGradient id="Degradado_sin_nombre_69-39" data-name="Degradado sin nombre 69" x1="3060.8" y1="-2787.8" x2="-2339.2" y2="442.8" xlink:href="#Degradado_sin_nombre_69"/>
    <linearGradient id="Degradado_sin_nombre_69-40" data-name="Degradado sin nombre 69" x1="3565.3" y1="-1944.5" x2="-1834.7" y2="1286.1" xlink:href="#Degradado_sin_nombre_69"/>
    <linearGradient id="Degradado_sin_nombre_69-41" data-name="Degradado sin nombre 69" x1="3196.6" y1="-2560.8" x2="-2203.4" y2="669.8" xlink:href="#Degradado_sin_nombre_69"/>
    <linearGradient id="Degradado_sin_nombre_69-42" data-name="Degradado sin nombre 69" x1="3101.4" y1="-2719.9" x2="-2298.6" y2="510.7" xlink:href="#Degradado_sin_nombre_69"/>
    <linearGradient id="Degradado_sin_nombre_69-43" data-name="Degradado sin nombre 69" x1="3077.9" y1="-2759.2" x2="-2322.1" y2="471.4" xlink:href="#Degradado_sin_nombre_69"/>
    <linearGradient id="Degradado_sin_nombre_69-44" data-name="Degradado sin nombre 69" x1="3553.9" y1="-1963.6" x2="-1846.1" y2="1267" xlink:href="#Degradado_sin_nombre_69"/>
    <linearGradient id="Degradado_sin_nombre_69-45" data-name="Degradado sin nombre 69" x1="3147.3" y1="-2643.2" x2="-2252.7" y2="587.4" xlink:href="#Degradado_sin_nombre_69"/>
    <linearGradient id="Degradado_sin_nombre_69-46" data-name="Degradado sin nombre 69" x1="3384.2" y1="-2247.3" x2="-2015.8" y2="983.4" xlink:href="#Degradado_sin_nombre_69"/>
    <linearGradient id="Degradado_sin_nombre_69-47" data-name="Degradado sin nombre 69" x1="3107.2" y1="-2710.2" x2="-2292.8" y2="520.4" xlink:href="#Degradado_sin_nombre_69"/>
    <linearGradient id="Degradado_sin_nombre_69-48" data-name="Degradado sin nombre 69" x1="3382.3" y1="-2250.4" x2="-2017.7" y2="980.2" xlink:href="#Degradado_sin_nombre_69"/>
    <linearGradient id="Degradado_sin_nombre_69-49" data-name="Degradado sin nombre 69" x1="3074.2" y1="-2765.4" x2="-2325.8" y2="465.2" xlink:href="#Degradado_sin_nombre_69"/>
    <linearGradient id="Degradado_sin_nombre_69-50" data-name="Degradado sin nombre 69" x1="3260.3" y1="-2454.3" x2="-2139.7" y2="776.3" xlink:href="#Degradado_sin_nombre_69"/>
    <linearGradient id="Degradado_sin_nombre_69-51" data-name="Degradado sin nombre 69" x1="3046.4" y1="-2811.9" x2="-2353.6" y2="418.7" xlink:href="#Degradado_sin_nombre_69"/>
    <linearGradient id="Degradado_sin_nombre_69-52" data-name="Degradado sin nombre 69" x1="3260.2" y1="-2454.6" x2="-2139.8" y2="776.1" xlink:href="#Degradado_sin_nombre_69"/>
    <linearGradient id="Degradado_sin_nombre_69-53" data-name="Degradado sin nombre 69" x1="3170.1" y1="-2605.1" x2="-2229.9" y2="625.5" xlink:href="#Degradado_sin_nombre_69"/>
    <linearGradient id="Degradado_sin_nombre_69-54" data-name="Degradado sin nombre 69" x1="3170" y1="-2605.3" x2="-2230" y2="625.3" xlink:href="#Degradado_sin_nombre_69"/>
  </defs>
  <!-- Generator: Adobe Illustrator 28.7.1, SVG Export Plug-In . SVG Version: 1.2.0 Build 142)  -->
  <g>
    <g id="Capa_1">
      <g id="_x5F__x5F__x5F__x5F__x5F__x5F___x5F__x5F__x5F__x5F__x5F__x5F__x5F__x5F__x5F_">
        <g id="_x5F__x5F__x5F__x5F__x28_0_x29_">
          <g id="_x5F__x5F__x5F__x5F__x5F_">
            <g>
              <rect class="cls-10" width="3840" height="2160"/>
              <g class="cls-54">
                <rect class="cls-34" x="-395.6" y="-225.5" width="4609.1" height="2654.1"/>
                <g>
                  <path class="cls-9" d="M891.3,3186.2c-.2.2-.6,0-1-.3-.5-.4-.9-1.1-.8-1.4l210.1-834.8,176.3-700.6,263.7-1048c0,0,0-.2.2-.2l482.3-96.9,69.1-427.4c0,0,0-.2.2-.3l532.4-144.7,18.6-379.2c0-.2,0-.3.2-.3l582.7-192.5,170.5-56.3c.3,0,.9.2,1.4.8.4.5.5,1.1.2,1.2l-753,248.7-18.6,379.2c0,.2,0,.3-.2.3l-532.5,144.7-69.1,427.4c0,.1,0,.2-.2.3l-482.3,96.9-650.1,2583.2v.2h-.1Z"/>
                  <path class="cls-44" d="M-99.5,2141.2c-.2.2-.7,0-1.1-.3-.5-.5-.8-1.1-.7-1.4l213.4-487.2L628.2,474.2l131.3-299.7,116.6-266.2s0,0,.2-.2l272.3-103.3,94.8-245.4s0-.1.2-.2l293.9-123.9,73-224.7s0,0,.2-.2l315.4-144.4,51.3-203.9s0-.2.2-.2l337-164.9,346-169.3c.3,0,.9.2,1.3.7.4.5.6,1.1.3,1.2l-346,169.3-336.9,164.9-51.3,203.9s0,.2-.2.2l-315.4,144.4-73,224.7s0,0-.2.2l-293.9,123.9-94.8,245.4s0,.1-.2.2l-272.3,103.3-116.5,266.1-131.3,299.7-148.9,340L-99.4,2141.1h0Z"/>
                  <path class="cls-41" d="M465.9,2737.6c-.2.2-.6,0-1.1-.3-.5-.4-.9-1.1-.7-1.4L1131.7,683.1l123.3-379.2c0-.1,0-.2.2-.2l385.7-104.8,86.6-344.1c0-.1,0-.2.2-.2l422.1-139.4,50-309.2c0,0,0-.2.2-.2l950.7-360.9c.3,0,.9.2,1.4.8.4.5.5,1.1.2,1.2l-950.6,360.8-50,309.2c0,.1,0,.2-.2.3l-422.1,139.4-86.6,344.1c0,.1,0,.2-.2.2l-385.8,104.8-123.3,379.1L466,2737.5h0c0,.1-.1.1-.1.1Z"/>
                  <path class="cls-37" d="M-592.7,1621.1c-.2.2-.7,0-1.2-.4-.5-.5-.8-1.1-.6-1.4l185.6-334.9,182.1-328.5L82.4,398.1l132.3-238.8,120.3-217,109.7-198,100.6-181.4h0c0-.1,186.7-91.4,186.7-91.4l88.5-169.9h0c0,0,198.6-102.8,198.6-102.8l76.4-158.4h0c0,0,210.5-114.1,210.5-114.1l64.4-147s0,0,0,0l222.4-125.4,52.4-135.5s0,0,0,0l234.3-136.7,40.3-124.1s0,0,0-.2l246.4-148,61.3-36.9c.3-.2.9,0,1.3.6.4.5.6,1.1.3,1.3l-61.3,36.9-246.3,148-40.3,124.1s0,0,0,.2l-234.3,136.7-52.4,135.5s0,0,0,0l-222.4,125.4-64.4,147s0,0,0,0l-210.5,114.1-76.4,158.4s0,0,0,0l-198.6,102.7-88.5,169.9h0c0,0-186.7,91.4-186.7,91.4l-100.5,181.3-109.7,198-120.3,217-132.3,238.8-676.9,1221.2h-.1Z"/>
                  <path class="cls-7" d="M2438.5,3756.3c-.1,0-.3.1-.5,0l-1481.9-501.3c-.5-.2-1.1-.7-1.3-1.3s0-.8.5-.6l1481.3,501.1,59.1-1206.6c0-.2.2-.4.4-.3l1050.1,148.8-101.3-1052.8c0-.3.1-.4.3-.4l1208.9-3.3-261.2-899.3-161.1-554.5c-.1-.5.2-.7.7-.5s1,.8,1.2,1.3l161.1,554.5,261.4,899.9c.1.4,0,.6-.3.6l-1209,3.3,101.3,1052.8c0,.3-.1.5-.4.4l-1050.1-148.8-59.1,1206.7v.2h-.1Z"/>
                  <path class="cls-43" d="M1488.7,3816.3c-.2.2-.6,0-1-.2-.5-.4-.9-1-.8-1.4l452.2-2796.4c0-.2,0-.3.3-.3l634.9-72,27.3-558c0-.2,0-.3.3-.3l708.9-142.4,821.8-165.1c.4,0,1,.3,1.4.9.4.5.4,1,0,1.1l-821.8,165.1-708.6,142.3-27.3,558.1c0,.2-.1.3-.3.3l-635,72-101.7,629.1-127.5,788.6-222.9,1378.4v.2h-.2Z"/>
                  <path class="cls-52" d="M-296.9,1933c-.2.2-.7,0-1.1-.4-.5-.5-.8-1.1-.7-1.4l134.2-278.2,202.2-419.3,176.8-366.5,155.8-323L743.7-230s0-.1,0-.1l236.6-99.7,93.7-214s0,0,0,0l253.9-116.2,76.2-197.3s0,0,0-.2l271.3-132.7,58.7-180.7s0,0,0-.2l288.6-149.2,41.3-164s0-.2.1-.2l306-165.7,79.9-43.2c.3-.2.9,0,1.3.7.4.5.6,1.1.3,1.2l-79.8,43.2-305.9,165.7-41.3,164s0,.2,0,.2l-288.6,149.2-58.7,180.7s0,0,0,.2l-271.3,132.7-76.2,197.3s0,0,0,.2l-253.9,116.2-93.7,214s0,.1-.2.1l-236.6,99.7-373.4,774.2-155.8,323-176.8,366.5-336.4,697.5h0Z"/>
                  <path class="cls-55" d="M-887.8,1309.8c-.2.2-.7,0-1.2-.4-.5-.5-.8-1.1-.6-1.4l159-250.9,163.6-258.2,149.3-235.6,136.8-215.8L347.2-644.1h0l141.1-79.5,78.9-129.3h0l148.7-86.7,71.3-122h0l156.2-93.9,63.6-114.8h0c0,0,163.8-101.2,163.8-101.2l56-107.5h0c0,0,171.4-108.4,171.4-108.4l48.4-100.3h0c0,0,179-115.6,179-115.6l191.7-123.7,35.5-92s0,0,0,0l177.5-116.7c.3-.2.9,0,1.3.6.5.5.6,1.1.3,1.3l-177.4,116.6-35.5,92s0,0,0,0l-191.7,123.7-178.9,115.4-48.4,100.3h0c0,0-171.4,108.4-171.4,108.4l-56,107.5h0c0,0-163.8,101.2-163.8,101.2l-63.6,114.8h0c0,0-156.2,94-156.2,94l-71.3,122h0c0,0-148.7,86.8-148.7,86.8l-78.9,129.3h-.1l-141.1,79.5L-279.2,349.2l-136.8,215.8-149.3,235.6-163.6,258.2-159,250.9h.1Z"/>
                  <path class="cls-12" d="M-1084.3,1102.6c-.2.2-.7,0-1.2-.4-.5-.5-.8-1.1-.6-1.4l136.9-198,146.8-212.4,135.9-196.6L-25-434.4l164.7-238.4,75.5-109.2,113.2-69.9,70.1-104.1,118.4-74.8,64.9-99.1,123.6-79.8,59.6-94.1,128.8-84.8,54.4-89.1h0l134-89.6,49.1-84.1h0l139.2-94.6,43.9-79.2h0l144.4-99.5,38.6-74.1h0c0,0,149.6-104.6,149.6-104.6l33.4-69.1h0c0-.1,154.9-109.5,154.9-109.5l33.7-23.9c.3-.2.9,0,1.3.6.5.5.6,1.1.4,1.3l-33.7,23.9-154.8,109.4-33.4,69.1h0c0,.1-149.6,104.6-149.6,104.6l-38.6,74.1h0c0,0-144.4,99.6-144.4,99.6l-43.9,79.2h0l-139.2,94.6-49.1,84.1h0l-134,89.6-54.4,89.1h0l-128.8,84.7-59.6,94.1h0l-123.6,79.7-64.9,99.1h0l-118.4,74.8-70.1,104.1-113.2,69.9L-664.7,495.5l-135.9,196.6-146.8,212.4-136.9,198h0Z"/>
                  <path class="cls-8" d="M-706.2,1501.3c-.2.2-.7,0-1.2-.4-.5-.5-.8-1.1-.6-1.4l113.3-194.1L-248.5,712.4l148.2-253.9L469.1-516.8h.1c0,0,168.6-87.3,168.6-87.3l85.3-153.9h0c0,0,178.8-96.9,178.8-96.9l75.1-144.2h0c0,0,188.9-106.6,188.9-106.6l64.9-134.4h0c0,0,199-116.2,199-116.2l54.6-124.7h0c0,0,209.2-125.8,209.2-125.8l226.5-136.2,37.1-114.1s0,0,0-.2l212.9-131.4c.3-.2.9,0,1.3.6.5.5.6,1.1.3,1.3l-212.8,131.4-37.1,114.1s0,0,0,.2l-226.6,136.2-209.1,125.7-54.6,124.7s0,0,0,0l-199,116.1-64.9,134.4h0c0,0-188.9,106.6-188.9,106.6l-75.1,144.2h0c0,0-178.8,96.9-178.8,96.9l-85.3,153.9h0c0,0-168.6,87.3-168.6,87.3L-98.4,460.1l-148.2,253.9-164,280.8-182.3,312.3-113.3,194.1h0Z"/>
                  <path class="cls-25" d="M-1224.5,954.7c-.2.2-.7,0-1.2-.4-.5-.5-.7-1.1-.5-1.4L-167-488.4l77.6-105.5,73.7-100.3,70.1-95.3,95.1-61.4,65.9-91.4,99.1-65.2,61.9-87.6,103.1-69,57.9-83.7,107.1-72.8,53.8-79.9,111.1-76.6,49.8-76.1,115.1-80.4,45.7-72.2,119.1-84.2,41.7-68.4,123.1-88,37.7-64.5,127-91.8,65.7-118.6h0l128.5-94.5,70.1-134.6c.2-.3.7-.2,1.2.3s.8,1.1.6,1.4l-70.1,134.6h0l-128.6,94.5-65.7,118.6h0l-127,91.7-37.7,64.5-123.1,88-41.7,68.4-119.1,84.2-45.7,72.2-115.1,80.4-49.8,76.1-111.1,76.6-53.8,79.9-107.1,72.8-57.9,83.7-103.1,69-61.9,87.6-99.1,65.2-65.9,91.4-95.1,61.4-70,95.3-73.7,100.3-77.6,105.5L-1224.5,954.7h0Z"/>
                  <path class="cls-46" d="M4724.1,704.4h-.2l-1352.7,153.4,75.7,786.7c0,.3,0,.4-.3.4l-904.7,2.5-44.2,901.6c0,.2-.2.4-.4.3L-56,2187.5c-.4,0-1-.6-1.3-1.1s-.2-.9.3-.9l2552.9,361.8,44.2-901.5c0-.2.1-.3.3-.3l904.6-2.5-75.7-786.7c0-.2,0-.4.3-.4l1023.7-116.1,329.3-37.3c.4,0,1,.4,1.4.9.3.4.4.8.2,1h-.1Z"/>
                  <path class="cls-50" d="M147.6,2401.9c-.2.2-.6,0-1.1-.3-.5-.4-.8-1.1-.7-1.4l476.2-1232.6,160-414.2L1041.8,81.3s0,0,.2-.2l319.8-105.7,93.3-286.9s0-.2.2-.2l347.3-131.9,65.5-260.4s0-.2.2-.2l374.8-158,37.8-234c0,0,0-.2.2-.2l402.4-184.2,110.6-50.6c.3,0,.9.2,1.3.7.4.5.5,1.1.2,1.2l-110.6,50.6-402.3,184.1-37.8,234c0,0,0,.2-.2.2l-374.8,158-65.6,260.4c0,.1,0,.2-.2.2l-347.4,131.9-93.3,286.9s0,.2-.2.2l-319.8,105.7-259.6,671.9-160,414.2-476.2,1232.6h0c0,.1,0,.3,0,.3Z"/>
                  <path class="cls-49" d="M-961.5,1232c-.2.2-.7,0-1.2-.4-.5-.5-.8-1.1-.6-1.4l95.3-145.6,311.3-475.5,136.9-209.1,126.3-192.9L-176.7,28.7,32.8-291.2l94.2-143.9,88.1-134.5,82.6-126.1h0l130.4-76.1,75.8-119.7h0l137-82.4,69.1-113.3h0l143.7-88.6,62.4-107h0l150.3-94.9,55.8-100.6h0l156.9-101.2,49.1-94.3h0c0,0,163.5-107.6,163.5-107.6l42.4-87.9h0c0,0,170.1-113.9,170.1-113.9l35.7-81.6h0c0-.1,217.1-147.6,217.1-147.6.3-.2.9,0,1.3.6.5.5.6,1.1.3,1.3l-217,147.5-35.7,81.6h0c0,0-170.1,113.9-170.1,113.9l-42.4,87.9h0c0,0-163.5,107.6-163.5,107.6l-49.1,94.3h0c0,0-156.9,101.3-156.9,101.3l-55.8,100.6h0c0,0-150.3,95-150.3,95l-62.4,107h0l-143.7,88.6-69.1,113.3h0l-137,82.4-75.8,119.7h0l-130.4,76.1-82.5,126.1-88.1,134.5-94.2,143.9L-174.8,30.4l-116.9,178.5-126.3,192.9-136.9,209.1-311.3,475.5-95.3,145.6h0Z"/>
                  <path class="cls-42" d="M-1329.6,843.9c-.2.2-.8,0-1.2-.4-.5-.5-.7-1.1-.5-1.3l104.3-135.6,120.4-156.5,220.7-286.8,101.3-131.7L-688.6,6.7l91-118.4,392.9-510.7,68-88.5,82.1-54,64.6-85.2,85.4-57.1,61.3-82,88.7-60.3,57.9-78.8,92-63.5,54.6-75.7,95.4-66.6,51.2-72.5,98.7-69.8,47.9-69.3,102-72.9,44.5-66.1,105.3-76.1,41.2-62.9,108.6-79.2,37.8-59.8,111.9-82.3,34.5-56.6,115.3-85.5,61-104.6,116.6-87.8,65.7-118.6c.2-.3.7-.2,1.2.3s.8,1.1.6,1.4l-65.8,118.7-116.6,87.8-61,104.6-115.3,85.5-34.5,56.6-111.9,82.3-37.8,59.8-108.6,79.2-41.2,62.9-105.3,76.1-44.5,66.1-102,72.9-47.9,69.3-98.7,69.8-51.2,72.5-95.4,66.6-54.6,75.7-92,63.5-57.9,78.8-88.7,60.3-61.3,82-85.4,57.1-64.6,85.2-82.1,54-68,88.4L-595.8-109.9l-91,118.4-96,124.8-101.3,131.7-220.7,286.8-120.4,156.5-104.3,135.6h0Z"/>
                  <path class="cls-18" d="M-1411.3,757.7c-.2.2-.8,0-1.2-.5-.5-.5-.7-1.1-.5-1.3l202.4-253.9,104.5-131.2,99.3-124.5L-822.6,15.1-296.5-645l71.9-48.1,62.8-79.7,74.7-50.8,60-77,77.5-53.4,57.2-74.4,80.3-56.1,54.4-71.7,83.1-58.7,51.5-69,85.9-61.4,48.7-66.3,88.7-64,45.9-63.7,91.5-66.7,43.1-61,94.3-69.3,40.3-58.3,97.1-72,37.4-55.6,99.8-74.6,34.6-53,102.6-77.3,31.8-50.3,105.4-80,57-93.4,106.6-81.8,61.7-105.8c.2-.3.7-.1,1.2.3s.8,1.1.6,1.4l-61.8,105.8-106.6,81.8-57,93.4-105.4,80-31.8,50.3-102.6,77.3-34.6,53-99.8,74.6-37.5,55.6-97.1,72-40.3,58.3-94.3,69.3-43.1,61-91.5,66.7-45.9,63.7-88.7,64-48.7,66.3-85.9,61.4-51.5,69-83.1,58.7-54.4,71.7-80.3,56.1-57.2,74.4-77.5,53.4-60,77-74.7,50.8-62.8,79.7-71.9,48.1L-1005.1,248.1l-99.3,124.5-214.7,269.4-92.2,115.7h0Z"/>
                  <path class="cls-4" d="M-1136,1048.1c-.2.2-.7,0-1.2-.4-.5-.5-.7-1.1-.6-1.4L108.2-715.9l72.4-102.3,106.2-67.1,67.5-97.7,110.8-71.6,62.8-93.2,115.5-76,58.1-88.8,120.2-80.4,53.4-84.3,124.8-84.8,48.7-79.9,129.5-89.3,44-75.4h0l134.1-93.6,39.3-70.9h0l138.8-98.1,146.4-103.5,31.6-65.4h0c0-.1,131.9-94.4,131.9-94.4.3-.2.9,0,1.3.6.5.5.6,1.1.4,1.3l-131.9,94.3-31.6,65.4h0c0,.1-146.5,103.6-146.5,103.6l-138.8,98.1-39.3,70.9h0l-134.1,93.6-44,75.4h0l-129.5,89.2-48.7,79.8h0l-124.8,84.8-53.4,84.3-120.2,80.4-58.1,88.8-115.5,76-62.8,93.2-110.8,71.6-67.5,97.7-106.2,67.1-1318.2,1864.4h0v.2Z"/>
                  <path class="cls-2" d="M-1476.5,688.9c-.2.2-.8,0-1.2-.5-.5-.5-.7-1.1-.5-1.3l82-100.1,101.5-123.8,96.8-118,92.3-112.6L-933.1,22l158.1-192.9,213.9-260.8,129-157.4,60.9-74.3,63.7-43.9,58.5-72.1,66-46.1,56.2-69.9,68.3-48.3,53.9-67.7,70.6-50.5,51.6-65.5,72.9-52.6,49.3-63.3,75.2-54.8,46.9-61.1,77.5-57,44.7-58.9,79.8-59.2,42.3-56.7,82.1-61.4,40-54.5,84.4-63.5,37.7-52.3,86.6-65.7,35.4-50.1,89-67.9,33.1-47.9,91.3-70.1,30.8-45.7,93.5-72.3,28.4-43.5,95.8-74.4,99.4-77.2,24.7-40.6,85.4-66.6c.3-.2.8,0,1.3.6.5.5.6,1.1.4,1.3l-85.3,66.6-24.7,40.6-99.5,77.3-95.8,74.3-28.4,43.5-93.5,72.3-30.8,45.7-91.3,70.1-33.1,47.9-89,67.9-35.4,50.1-86.6,65.7-37.7,52.3-84.4,63.5-40,54.5-82.1,61.4-42.3,56.7-79.8,59.2-44.7,58.9-77.5,57-46.9,61.1-75.2,54.8-49.3,63.3-72.9,52.6-51.6,65.5L-2.8-1009.5l-53.9,67.7-68.3,48.3-56.2,69.9-66,46.1-58.5,72.1-63.7,43.9L-850.6-74.7l-80.7,98.5-172.6,210.5-92.3,112.6-96.8,118-101.5,123.8-82,100.1h0Z"/>
                  <path class="cls-38" d="M2541.8,1647.4h-.2l-2704.6,7.4-396.9,1.1c-.4,0-1-.4-1.4-1-.3-.6-.3-1,0-1l2398.8-6.6,702.4-1.9,34.3-699.2c0-.2.1-.3.3-.3l794.7-90.1-169.2-1758.5c0-.4.4-.6.9-.2s1,.9,1,1.4l169.2,1758.9c0,.2,0,.4-.3.4l-794.7,90.1-34.3,699.2v.2h0Z"/>
                  <path class="cls-45" d="M-458.3,1762.8c-.2.2-.7,0-1.1-.4-.5-.5-.8-1.1-.6-1.4l260.5-500.4L-19.2,914.2l160.2-307.7,143.3-275.1,128.8-247.4,222.3-427s0-.1,0-.1l208.8-95.6,91.4-189.5s0,0,0,0l223.1-109.1,77-175.8s0,0,0,0l237.3-122.7,62.6-162.1s0,0,0-.2l251.7-136.3,276.7-149.9,37.3-148.3s0-.2.1-.2l264.5-149.1c.3-.2.9,0,1.3.7.4.5.6,1.1.3,1.2l-264.4,149-37.3,148.3s0,.2-.1.2l-276.8,149.9-251.6,136.2-62.6,162.1s0,0,0,.2l-237.3,122.7-77,175.8s0,0,0,0l-223.1,109.1-91.4,189.5s0,.1,0,.1l-208.8,95.6L415,85.7l-128.8,247.4-143.3,275.1L-17.3,915.9l-180.4,346.4-260.5,500.4h0Z"/>
                  <path class="cls-1" d="M-1262.7,914.4c-.2.2-.7,0-1.2-.4-.5-.5-.7-1.1-.5-1.4l438.3-586.6,108.5-145.3,102.3-136.9,96.6-129.3L-36.2-731.1l90.5-58.4,66.7-90.7,94.3-62.1,62.8-87.1,98.2-65.7,58.9-83.4,102-69.3,55.1-79.7,105.8-72.9,51.3-76.1,109.6-76.6,47.4-72.4,113.4-80.2,43.5-68.7,117.3-83.8,39.7-65.1,121.1-87.4,35.8-61.5,255.8-186.5,29.6-56.9h0l116.5-85.7c.3-.2.8,0,1.3.6s.6,1.1.4,1.3l-116.4,85.7-29.6,56.9h0l-255.8,186.5-35.8,61.5-121.1,87.4-39.7,65.1-117.3,83.8-43.6,68.7-113.4,80.2-47.4,72.4-109.6,76.6-51.3,76.1-105.8,73-55.1,79.7-102,69.3-58.9,83.4-98.2,65.7-62.8,87.1-94.3,62.1-66.7,90.7-90.5,58.4L-613.5,45.6l-102.3,136.9-108.5,145.3-438.3,586.6h0Z"/>
                  <path class="cls-57" d="M-1530,632.5c-.2.2-.8,0-1.2-.5-.5-.5-.7-1.1-.5-1.3l73.4-87.5,94-112.1,90-107.3,397.8-474.3,70.5-84,316-376.7,57.2-39.9,56.7-68.1,59.1-41.8,54.7-66.2,61.1-43.7,52.7-64.3,63.1-45.6,50.7-62.4,65.1-47.5,48.7-60.5,67.1-49.4,46.7-58.5,69.1-51.3,44.6-56.7,71.1-53.1,42.6-54.7,73.1-55,40.6-52.8,75-56.9,38.6-50.9,77-58.8,36.6-49,79-60.7,34.6-47.1,81-62.5,32.6-45.2,83-64.4,30.6-43.3,85-66.3,28.6-41.4,86.9-68.2,26.6-39.5,180.9-142.6,23.4-37,78.1-61.8c.3-.2.8,0,1.3.6s.7,1.1.4,1.3l-78,61.7-23.4,37-92.1,72.6-88.9,70-26.6,39.5-86.9,68.2-28.6,41.4-85,66.3-30.6,43.3-83,64.4-32.6,45.2-81,62.5-34.6,47.1-79,60.7-36.6,49-77,58.8-38.6,50.9-75,56.9-40.6,52.8-73.1,55-42.6,54.7-71.1,53.1-44.6,56.7-69.1,51.3-46.7,58.5-67.1,49.4-48.7,60.5-65.1,47.5-50.7,62.4-63.1,45.6-52.7,64.3-61.1,43.7-54.7,66.2-59.1,41.8-56.7,68.1-57.2,39.9-315.9,376.6-70.5,84-397.8,474.3-90,107.3-94,112.1-73.4,87.5h-.1Z"/>
                  <path class="cls-15" d="M217-780.2L8.5-651.5l-96.2,59.4-91.4,56.4-465,286.9-129.2,79.7-60.6,37.4-716.4,442.1-138.6,154.3c-.2.2-.8,0-1.3-.5s-.7-1.1-.5-1.3l138.7-154.4L215.3-782l71.3-103.2,112.1-70.8,66.3-98.5,117-75.5,61.3-93.7,122-80.2,56.4-89,126.8-84.9,51.4-84.3h0l131.7-89.5,46.5-79.6h0l136.6-94.2,41.5-74.8h0l141.5-98.8,71.1-136.6h0l143.4-102.5,74.6-154.7c0-.3.7-.2,1.2.3s.8,1.1.7,1.4l-74.6,154.8h0c0,.1-143.4,102.6-143.4,102.6l-71.1,136.6h0c0,0-141.5,98.9-141.5,98.9l-41.5,74.8h0l-136.6,94.2-46.5,79.6h0l-131.7,89.5-51.5,84.3h0l-126.8,84.8-56.4,89-122,80.2-61.3,93.7-117,75.5-66.3,98.5-112.1,70.8-71.3,103.2h0Z"/>
                  <path class="cls-21" d="M-1574.5,585.6c-.2.2-.8,0-1.2-.5-.5-.5-.7-1.1-.5-1.3l66-77.2,87.5-102.3L-963.5-132.9l67.1-78.4,64.8-75.8,123.1-143.9,58.5-68.4,56.6-66.2,51.7-36.6,54.8-64.5,53.4-38.2,53-62.8,55.2-39.9,51.3-61.1,56.9-41.5,49.5-59.5,58.7-43.2,47.8-57.8L-.8-1115.3l46-56.2,62.2-46.4,44.2-54.5,63.9-48.1,42.5-52.8,65.6-49.7,40.7-51.2,67.3-51.4,39-49.5,69.1-53.1,37.3-47.8,70.8-54.7,35.5-46.2,72.6-56.3,33.8-44.5,74.3-58,32-42.8,76-59.6,30.2-41.2,77.8-61.3,28.5-39.5,79.5-62.9,26.7-37.9,81.2-64.6,25-36.2,168.6-134.6,22.2-34,71.8-57.6c.3-.2.8,0,1.3.6.5.5.7,1.1.4,1.3l-71.8,57.5-22.2,34-85.7,68.4-82.9,66.2-25,36.2-81.2,64.6-26.7,37.9-79.5,62.9-28.5,39.5-77.8,61.3-30.2,41.2-76,59.6-32,42.8-74.3,58-33.8,44.5-72.6,56.3-35.5,46.2-70.8,54.7-37.3,47.8-69.1,53.1-39,49.5-67.4,51.4-40.7,51.2-65.6,49.7-42.5,52.8-63.9,48.1-44.2,54.5-62.2,46.4-45.8,56.2-60.4,44.8-47.8,57.8-58.7,43.2-49.5,59.5-56.9,41.5-51.3,61.1-55.2,39.9-53,62.8-53.4,38.2-54.8,64.5-51.7,36.6-238.1,278.4-64.8,75.8-67.1,78.4-69.5,81.4-477.2,558.1-66,77.2h-.1Z"/>
                  <path class="cls-28" d="M-1359,812.9c-.2.2-.8,0-1.2-.4-.5-.5-.7-1.1-.5-1.3l59.5-76.4,119.1-152.8,319.5-410.1,186.3-239,86.3-110.8,235.2-301.9,205.1-263.2,78.2-52.3,62.2-80.9,81.3-55.2,59.2-78,84.3-58.1,56.1-75.1,87.3-61,53-72.2,90.4-63.9,50-69.3,93.4-66.8,46.9-66.4,96.5-69.6,43.8-63.5,99.5-72.5,40.8-60.5,102.5-75.4,37.7-57.6,105.5-78.3,34.6-54.7,108.6-81.2,31.6-51.8,111.6-84.1,28.5-48.9,114.7-87,61.7-46.8c.3-.2.8,0,1.3.6.5.5.6,1.1.4,1.3l-61.7,46.8-114.6,86.9-28.5,48.9-111.6,84.1-31.6,51.8-108.6,81.2-34.6,54.7-105.6,78.3-37.7,57.6-102.5,75.4-40.8,60.5-99.5,72.5-43.8,63.5-96.5,69.7-46.9,66.4-93.4,66.8-50,69.3-90.4,63.9-53,72.2-87.3,61-56.1,75.1-84.3,58.1-59.2,78-81.3,55.2-62.2,80.9-78.2,52.3-358.1,459.6-82.2,105.4-86.3,110.8-186.3,239-319.5,410.1-119.1,152.8-59.5,76.4h0Z"/>
                  <path class="cls-58" d="M3713.2-361.8h-.1L2625.9-66.4l-22.3,455.7c0,.2,0,.3-.3.3l-579.2,116.3-83.1,513.7c0,.2,0,.3-.3.3l-1317,149.3-821.6,93.2-209.2,23.7-186,21.1-268.4,30.4c-.4,0-1-.4-1.4-.9s-.4-1,0-1.1l268.4-30.5,186-21.1,446.5-50.6,1901.2-215.5,83.1-513.7c0-.1,0-.2.2-.3l579.2-116.3,22.3-455.7c0-.2,0-.3.2-.3l1087.3-295.4c.3,0,1,.3,1.4.8.3.5.4.9.2,1.1h.1Z"/>
                  <path class="cls-56" d="M-803.5,1398.7c-.2.2-.7,0-1.2-.4-.5-.5-.8-1.1-.6-1.4L403.8-585h.1c0,0,153.7-83.3,153.7-83.3l82.1-140.6h0c0,0,162.4-91.6,162.4-91.6l73.3-132.2h0c0,0,171.1-99.9,171.1-99.9l64.5-123.8h0c0,0,179.8-108.2,179.8-108.2l55.7-115.5h0c0,0,188.5-116.4,188.5-116.4l47-107.1h0c0,0,197.2-124.7,197.2-124.7l38.2-98.8s0,0,0,0l255-164.5c.3-.2.9.1,1.3.6s.6,1.1.3,1.3l-254.9,164.5-38.2,98.8s0,0,0,0l-197.2,124.6-47,107.2h0c0,0-188.5,116.4-188.5,116.4l-55.7,115.5h0c0,0-179.8,108.2-179.8,108.2l-64.5,123.8h0c0,0-171.1,99.9-171.1,99.9l-73.3,132.2h0c0,0-162.4,91.6-162.4,91.6l-82.1,140.6h0c0,0-153.7,83.3-153.7,83.3l-188.7,309.4L111-100.4-3.6,87.5l-124.7,204.4-285.2,467.5-390,639.2h0Z"/>
                  <path class="cls-35" d="M-1434.6,733.1c-.2.2-.8,0-1.2-.5-.5-.5-.7-1.1-.5-1.3L-979.9,164.4l89.4-111,319.3-396.6,269-334.2,68.9-46.8,60.5-76,71.5-49.3,57.9-73.5,74.1-51.7,55.3-71,76.6-54.2,52.7-68.6,79.2-56.6,50.1-66.1,81.8-59.1,47.5-63.6,84.4-61.5,45-61.1,86.9-64,42.3-58.7,89.5-66.4,39.7-56.2,92.1-68.9,37.1-53.8,94.7-71.3,34.5-51.3,97.2-73.7,32-48.8,99.8-76.2,29.3-46.4,102.4-78.6,26.8-43.9,160.4-123.9c.3-.2.8,0,1.3.6.5.5.6,1.1.4,1.3l-160.3,123.8-26.8,43.9-102.4,78.6-29.3,46.4-99.8,76.2-32,48.8-97.2,73.8-34.5,51.3-94.7,71.3-37.1,53.8-92.1,68.9-39.7,56.2-89.5,66.4-42.3,58.7-86.9,64-45,61.1-84.4,61.5-47.5,63.6-81.8,59.1-50.1,66.1-79.2,56.6-52.7,68.6-76.6,54.2-55.3,71-74.1,51.7-57.9,73.5-71.5,49.3-60.5,76-68.9,46.8L-1434.6,733.1h0Z"/>
                  <path class="cls-53" d="M1563.1-2385.8l-212,161.8-30.6,48.3-101.2,76.7-33.3,50.8-98.5,74.2-36,53.4-95.8,71.7-38.7,56-93.2,69.1-41.4,58.5-90.5,66.6-44.1,61.1-87.8,64-46.8,63.7-85.1,61.5-49.5,66.2-82.4,59-52.2,68.8-79.8,56.4-54.9,71.4-77.1,53.8-57.6,74-74.4,51.3-60.3,76.5-71.7,48.7-63,79.1-260.3,174.1-59.1,39.5-489,327.1-195,221.4-69.4,78.7-71.7,81.5-205.1,232.8c-.2.3-.8,0-1.3-.5s-.7-1.1-.5-1.3L-1104.7-104.4-296.4-645.1l63-79.1,71.7-48.7,60.3-76.5,74.4-51.3,57.6-74,77.1-53.8,54.9-71.4,79.8-56.4,52.2-68.8,82.4-59,49.5-66.2,85.1-61.5,46.8-63.7,87.8-64,44.1-61.1,90.5-66.6,41.4-58.5,93.2-69.1,38.7-56,95.8-71.7,36-53.4,98.5-74.2,33.3-50.8,101.2-76.7,30.6-48.3,103.9-79.3,108.1-82.5,26.2-45,93.9-72.1c.3-.2.8,0,1.3.6.5.5.6,1.1.4,1.3l-93.9,72-26.2,45h-.1Z"/>
                  <path class="cls-5" d="M1762-2419.7h0l-69.3,51.4-126.2,93.6-30.6,55.1h0l-122.6,90.2-34.2,58.6-119.1,86.9-37.8,62.1-115.4,83.4-41.5,65.6-111.8,79.9-45.2,69-108.2,76.5-48.8,72.6-104.5,73-52.5,76-100.9,69.6-56.2,79.5-97.2,66.1-59.9,83-93.6,62.6-63.5,86.5-90,59.2-67.2,90-86.3,55.7-82.3,53.1L-961.8-131l-385.2,248.6-325.3,364.8c-.2.3-.8,0-1.3-.5s-.7-1.1-.5-1.3l325.4-364.9L-36.1-731.2l67.2-90,90-59.2,63.5-86.5,93.6-62.6,59.9-83,97.2-66.1,56.2-79.5,100.9-69.6,52.5-76,104.5-73,48.8-72.6,108.2-76.5,45.2-69,111.8-79.9,41.5-65.6,115.4-83.4,37.8-62.1,119.1-86.8,34.2-58.6,122.6-90.3,30.6-55.1h0l126.3-93.6,69.3-51.4c.3-.2.8,0,1.3.6.4.5.6,1.1.4,1.3h0Z"/>
                  <path class="cls-17" d="M-1495.5,668.9c-.2.2-.8,0-1.2-.5-.5-.5-.7-1.1-.5-1.3L-432.5-621.2l61.4-42.3,58.6-71.6,63.6-44.4,56.4-69.4,65.8-46.5,54.2-67.3,68-48.6,51.9-65.2,70.2-50.7,49.7-63.1,72.5-52.8,47.5-61,74.7-54.9,45.3-58.8,76.9-57,43-56.7,79.1-59.1,40.8-54.6,81.3-61.2,38.6-52.5,83.5-63.3,36.3-50.4,85.7-65.4,34.1-48.2,87.9-67.5,31.9-46.1,90.1-69.6,29.6-44,92.3-71.7,27.4-41.9,94.6-73.8,25.2-39.8,146.9-115.2c.3-.2.8,0,1.3.6.5.5.7,1.1.4,1.3l-146.8,115.1-25.2,39.8-94.6,73.8-27.4,41.9-92.4,71.7-29.6,44-90.1,69.6-31.9,46.1-87.9,67.5-34.1,48.2-85.7,65.4-36.3,50.4-83.5,63.3-38.6,52.5-81.3,61.2-40.8,54.6-79.1,59.1-43,56.7-76.9,57-45.3,58.8-74.7,54.9-47.5,61-72.5,52.8-49.7,63.1-70.2,50.7L-2.7-1009.6l-68,48.6-54.2,67.3-65.8,46.5-56.4,69.4-63.6,44.4-58.6,71.6-61.4,42.3-124.1,150.2-65.7,79.5-213.2,258-157.4,190.4-83.8,101.4-179.2,216.7-241.3,292h0v.2Z"/>
                  <path class="cls-20" d="M1898.4-2275.8h0l-249,173.9-35.3,73.2h0c0,0-152.9,105.5-152.9,105.5l-40.9,78.5h0c0,0-147.4,100.2-147.4,100.2l-46.5,83.8h0l-141.8,94.9-52,89.1h0l-136.4,89.7-57.6,94.4h0l-130.8,84.4-63.2,99.7h0l-125.3,79.2-68.8,105h0l-119.8,74-74.3,110.3h0l-114.3,68.7-107.9,64.9-290.6,174.6-87.2,52.4L-968.8-3.7l-389.6,234.1-41.2,24.7-252.5,151.8-44.7,49.6c-.2.2-.8,0-1.3-.5s-.7-1.1-.5-1.3l44.7-49.6L254.1-741.4l74.3-110.3,119.8-74,68.8-105h0l125.3-79.2,63.2-99.7h0l130.8-84.4,57.6-94.4h0l136.4-89.6,52-89.1h0l141.8-94.9,46.5-83.8h0l147.4-100.1,40.9-78.5h0c0,0,152.9-105.4,152.9-105.4l35.3-73.2h0c0-.1,249.1-174,249.1-174,.3-.2.9,0,1.3.6.4.5.6,1,.4,1.2h0l.5-.6Z"/>
                  <path class="cls-22" d="M1541.5,602.9h-.2l-408,82-349.6,70.2-567.7,114-233.6,46.9-848.9,170.5-196,39.4c-.4,0-1-.3-1.4-.9-.4-.5-.4-1,0-1.1L-18.9,914.1l233.6-46.9,1325.1-266.1,101.2-402c0-.1,0-.2.2-.2l450.3-122.3,58.4-361.2c0-.1,0-.2.2-.3l492.6-162.7,15.7-320.4,13.4-274.6,11.7-237.7,7.8-159c0-.4.5-.4,1,0s.9,1,.9,1.4l-7.8,159-11.7,237.7-13.4,274.6-15.7,320.6c0,.2,0,.3-.2.3l-492.7,162.7-58.4,361.2c0,0-.1.2-.2.3l-450.3,122.4-101.2,402v.2h0v-.2Z"/>
                  <path class="cls-27" d="M-1026.5,1163.5c-.2.2-.7,0-1.2-.4-.5-.5-.8-1.1-.6-1.4L254-741.4h0l121.1-72.8,72.9-111.4h0l127-78.4,67-105.8h0l132.9-84,61.1-100.2h0l138.8-89.5,55.2-94.5h0l144.6-95.1,49.3-88.9h0l150.5-100.6,43.4-83.3h0c0,0,156.4-106.4,156.4-106.4l166.1-112.8,33.6-76.6h0c0-.1,151.6-104.6,151.6-104.6.3-.2.9,0,1.3.6s.6,1.1.3,1.3l-151.5,104.4-33.6,76.6h0c0,.1-166.1,113-166.1,113l-156.3,106.2-43.4,83.3h0c0,0-150.5,100.7-150.5,100.7l-49.3,88.9h0l-144.6,95.1-55.2,94.5h0l-138.8,89.5-61.1,100.2h0l-132.9,84-67,105.8h0l-127,78.4-72.9,111.4h0l-121.1,72.8-162.7,241.4L-91.4-224.3l-101.9,151.1-352.8,523.7-480.4,712.9h0Z"/>
                  <path class="cls-19" d="M-1545.7,615.9c-.2.2-.8,0-1.2-.5-.5-.5-.7-1.1-.5-1.3l39.4-46.6,93.1-110.2,89.2-105.6,85.5-101.2,82.1-97.2,78.9-93.3,534.2-632.6,55.2-38.6,56.7-67.6,57.1-40.4,54.7-65.8,59-42.2,52.8-63.9,61-44.1,50.9-62.1,62.9-45.9,48.9-60.2,64.8-47.7,47-58.4,66.8-49.5,45-56.6,68.7-51.3,43.1-54.7,70.6-53.2,41.2-52.9,72.5-55,39.3-51,74.4-56.8,37.3-49.2,76.3-58.6,35.4-47.4,78.3-60.4,33.5-45.5,80.2-62.3,31.5-43.7,82.1-64.1,29.6-41.8,84-65.9,27.6-40,85.9-67.7,25.7-38.2,87.8-69.6,23.8-36.3,135.4-107.6c.3-.2.8,0,1.3.6.5.5.6,1.1.4,1.3l-135.3,107.5-23.8,36.3-87.8,69.6-25.7,38.2-85.9,67.7-27.6,40-84,65.9-29.6,41.9-82.1,64.1-31.5,43.7-80.2,62.3-33.5,45.5-78.3,60.4-35.4,47.4-76.3,58.6-37.3,49.2-74.4,56.8-39.3,51-72.5,55-41.2,52.9-70.6,53.2-43.1,54.7-68.7,51.3-45,56.6-66.8,49.5-47,58.4-64.8,47.7-48.9,60.2-62.9,45.9-50.9,62.1-61,44.1-52.8,63.9-59,42.2-54.7,65.8-57.1,40.4-56.7,67.6-55.2,38.6L-1077.6,61.7l-78.9,93.3-82.1,97.2-85.5,101.2-89.2,105.6-93.1,110.2-39.4,46.6h0Z"/>
                  <path class="cls-32" d="M-1587.7,571.6c-.2.2-.8,0-1.2-.5-.5-.5-.7-1.1-.5-1.3L-643.5-530.2l50.1-35.4,54.7-64,51.8-37,53-62.4,53.4-38.6,51.3-60.8,55.1-40.2,49.6-59.2,56.8-41.8,47.9-57.6,58.5-43.4,46.2-56,60.1-45,44.6-54.3,61.8-46.6,42.9-52.7,63.5-48.2,41.2-51.1,65.2-49.8,39.5-49.5,66.9-51.4,37.8-47.9,68.6-53,36.1-46.3,70.2-54.6,34.4-44.7,71.9-56.2,32.7-43.1,73.6-57.8,31-41.5,75.3-59.3,29.3-39.9,77-60.9,27.6-38.2,78.6-62.5,25.9-36.6,80.3-64.1,24.2-35,82-65.7,22.5-33.4,125.4-100.9c.3-.2.8,0,1.3.6s.6,1.1.4,1.3l-125.3,100.8-22.5,33.4-82,65.7-24.2,35-80.3,64.1-25.9,36.6-78.6,62.5-27.6,38.2-77,60.9-29.3,39.9-75.3,59.3-31,41.5-73.6,57.8-32.7,43.1-71.9,56.2-34.4,44.7-70.2,54.6-36.1,46.3-68.6,53-37.8,47.9-66.9,51.4-39.5,49.5-65.2,49.8-41.2,51.1-63.5,48.2-42.9,52.7-61.8,46.6-44.6,54.3-60.1,45-46.2,56-58.5,43.4-47.9,57.6-56.8,41.8-49.6,59.2-55.1,40.2-51.3,60.8-53.4,38.6-53,62.4-51.8,37-54.7,64-50.1,35.4-945.9,1100h0Z"/>
                  <path class="cls-23" d="M2956.2-1160.1h0l-282.6,119.1-428.5,180.6-43.3,267.7c0,0,0,.2-.2.2l-397.1,150.7-75,297.9c0,.1,0,.2-.2.2l-365.7,120.8-106.7,328.2c0,.1,0,.2-.2.2l-334.3,90.8-292.4,79.5-257.9,70.1-229.2,62.3-205,55.7-885.2,240.5-107.7,29.3-99.8,27.1-50.6,13.8c-.3,0-1-.3-1.4-.8s-.5-1.1,0-1.2l50.6-13.8,99.8-27.1,351.4-95.5L-63.8,662.1l205-55.7,229.2-62.3,257.9-70.1,626.6-170.2,106.7-328.2s0-.2.2-.2l365.7-120.8,75-297.9c0-.1,0-.2.2-.2l397.1-150.7,43.3-267.7c0,0,0-.2.2-.2l428.6-180.7,282.6-119.1c.3,0,.9.2,1.3.7.4.5.5,1,.3,1.2h0Z"/>
                  <path class="cls-13" d="M-1182.4,999c-.2.2-.7,0-1.2-.4-.5-.5-.7-1.1-.6-1.4l27.5-38.1,143.8-199.2,133.8-185.4,241.5-334.8,109.4-151.6,199.4-276.4,177.2-245.5L6.7-653.3l73.1-101.3,100.7-63.7,68.5-97,105.2-67.9,64.1-92.7,109.6-72.1,59.6-88.4,114-76.3,55.1-84.2,118.5-80.5,50.7-79.9,122.9-84.7,46.1-75.7,127.3-88.9,41.7-71.5h0l131.7-93,37.3-67.2h0l136.1-97.3,32.8-63h0l140.6-101.5,78.7-56.9c.3-.2.9,0,1.3.6s.6,1.1.4,1.3l-78.7,56.9-140.5,101.4-32.8,63h0c0,.1-136.1,97.4-136.1,97.4l-37.3,67.2h0l-131.7,93-41.7,71.5h0l-127.3,88.9-46.1,75.7-122.9,84.7-50.7,79.9-118.5,80.5-55.1,84.2-114,76.3-59.6,88.4-109.6,72.1-64.1,92.7-105.2,67.9-68.5,97-100.7,63.7L-1154.9,960.9l-27.5,38.1h0Z"/>
                  <path class="cls-36" d="M1595.7-2327.2h0l-231.8,173.3-33,54.1-110.3,81.8-36.2,57.2-107.1,78.8-39.4,60.2-103.9,75.8-42.6,63.2-100.7,72.8-45.8,66.3-97.6,69.7-49,69.3-94.4,66.7-52.2,72.4-91.2,63.7-55.4,75.4-88,60.7-58.6,78.5-84.9,57.7-61.8,81.5-81.7,54.7-65,84.5-294.6,193.7-66.3,43.6-63.7,41.9-61.3,40.2L-1206.3-4.6l-447.8,506.2c-.2.3-.8,0-1.3-.5s-.7-1.1-.5-1.3L-1208-6.4-136.6-710.9l65-84.5,81.7-54.6,61.8-81.5,84.9-57.7,58.6-78.5,88-60.7,55.4-75.4,91.2-63.7,52.2-72.4,94.4-66.7,49-69.3,97.5-69.7,45.8-66.3,100.7-72.8,42.6-63.2,103.9-75.8,39.4-60.2,107.1-78.8,36.2-57.2,110.2-81.8,33-54.1,113.4-84.8,118.5-88.5,27.8-50.3,104.2-78.5c.3-.2.8,0,1.3.6.5.5.6,1.1.4,1.3l-104.1,78.4-27.8,50.2h0v.2Z"/>
                  <path class="cls-6" d="M1043.6,83h0l-533.1,176.1-224.4,74.1-201.9,66.7-182.7,60.3-166,54.9-151.6,50-266.7,88.1-328.5,108.5-94.4,31.2-207.4,68.5c-.3,0-.9-.2-1.4-.8-.4-.5-.5-1.1-.2-1.2l897-296.3,151.6-50,166-54.9,182.7-60.3,201.9-66.7,224.4-74.1,533-176,106.7-276.2s0-.1.2-.2l306.4-116.3,82.2-252.9s0,0,.2-.2l330.7-139.4,57.8-229.6s0-.2.2-.2l354.9-162.4,107.2-662.7c0-.4.5-.4,1.1,0,.5.4.9,1,.8,1.4l-73.8,456.3-33.4,206.5c0,0,0,.2-.2.2l-354.9,162.4-57.8,229.6s0,.2-.2.2l-330.7,139.4-82.3,252.9s0,.2-.2.2l-306.4,116.3-106.7,276.2h0c0,0,0,.4,0,.4Z"/>
                  <path class="cls-30" d="M-1297.6,877.6c-.2.2-.8,0-1.2-.4-.5-.5-.7-1.1-.5-1.3l21.6-28.4,251.2-331.1,114.5-150.9,107.9-142.2,101.9-134.3L-267.8-483.8l145.4-191.7,67.7-89.2,85.9-56.5,64.1-85.9,89.4-59.8,60.6-82.5,92.8-63.1,57.1-79.2,96.3-66.4,53.6-75.9,99.8-69.7,50.1-72.6,103.2-73,46.6-69.2,106.7-76.3,43.1-65.9,110.2-79.6,39.6-62.6,113.7-82.9,36.1-59.2,117.1-86.2,32.6-55.9,120.5-89.5,29.2-52.6,124-92.8,24.7-18.4c.3-.2.8,0,1.3.6.5.5.6,1.1.4,1.3l-24.7,18.4-124,92.7-29.1,52.6h0l-120.5,89.4-32.6,55.9-117.1,86.2-36.1,59.2-113.7,82.9-39.6,62.6-110.2,79.6-43.1,65.9-106.7,76.3-46.6,69.2-103.3,73-50.1,72.6-99.8,69.7-53.6,75.9-96.3,66.4-57.1,79.2-92.8,63.1-60.6,82.5-89.4,59.8-64.1,85.9-85.9,56.5-67.7,89.2-904.1,1191.7-251.2,331.1-21.6,28.4h0v.2Z"/>
                  <path class="cls-26" d="M299.5-694h0l-237.9,138.7-108.7,63.4L-1657.5,447.3l-31,18.1c-.3.2-.9-.1-1.3-.7-.4-.5-.6-1.1-.3-1.3L-151.6-433.8l102.7-59.9,108.7-63.4,237.8-138.7,77.5-118.4h0l128.7-77.4,71.2-112.4h0l134.9-83.3,64.9-106.4h0l141.2-89.2,58.7-100.5h0l147.4-95.1,52.4-94.5h0l153.6-101,46.1-88.5h0c0,0,159.9-107,159.9-107l39.8-82.6,37.5-77.7h0c0,0,162.1-111.8,162.1-111.8l79.2-180.8c0-.3.7-.2,1.2.2.5.5.8,1.1.7,1.4l-79.2,180.8h0c0,.1-162.1,111.9-162.1,111.9l-37.5,77.7-39.8,82.7h0c0,0-159.9,107-159.9,107l-46.1,88.5h0c0,0-153.6,101.1-153.6,101.1l-52.4,94.5h0l-147.4,95.1-58.7,100.5h0l-141.2,89.2-64.9,106.4h0l-135,83.3-71.2,112.4h0l-128.7,77.4-77.5,118.4h.1Z"/>
                  <path class="cls-51" d="M1801.2-2378.3h0l-166.4,121.3-31.2,59.8h0l-133.5,96.4-35.4,63.9h0l-129.3,92.4-39.6,67.9h0l-125.1,88.4-43.8,71.9-121,84.5-48.1,76-116.8,80.5-52.3,80-112.6,76.5-56.6,84-108.3,72.5-60.8,88.1-104.2,68.5-65.1,92.1-99.9,64.5-69.3,96.1-273.3,172.7-161.4,102L-1448.7,214l-232.1,259.4c-.2.2-.8,0-1.3-.5s-.7-1.1-.5-1.3l232.2-259.4L79.9-754.6l69.3-96.1,99.9-64.5,65.1-92.1,104.2-68.5,60.8-88.1,108.3-72.5,56.6-84,112.6-76.5,52.3-80,116.8-80.5,48.1-75.9,121-84.5,43.8-71.9,125.1-88.5,39.6-67.9,129.4-92.5,35.4-63.9h0l133.5-96.4,31.2-59.8h0l166.4-121.3c.3-.2.8,0,1.3.6.4.5.6,1,.4,1.3h0l.2-.2Z"/>
                  <path class="cls-33" d="M2549.1-1589.5h0l-203.2,105.1-320.7,165.8-45.9,182.4s0,.2-.2.2l-301.4,147.5-65.3,200.8s0,0-.2.2l-282.2,129.2-84.8,219.4s0,.1-.2.2l-262.9,110.8-104.2,237.9s0,0-.2.2L634.1,2.6l-219.3,83.3-198.4,75.3L36.1,229.5l-315.5,119.8-138.8,52.7-128.1,48.6-118.6,45-731.7,277.7c-.3,0-.9-.2-1.4-.8-.4-.5-.5-1.1-.2-1.2L413.3,83.9,632.6.6l243.6-92.5,104.2-237.9s0-.1.2-.1l262.9-110.8,84.8-219.4s0,0,0-.2l282.1-129.2,65.3-200.8s0,0,0-.2l301.4-147.5,45.9-182.4s0-.2,0-.2l320.8-165.8,203.2-105.1c.3-.2.9.2,1.3.7.4.5.5,1,.3,1.2h.2Z"/>
                  <path class="cls-29" d="M-1386.1,784.2c-.2.2-.8,0-1.2-.5-.5-.5-.7-1.1-.5-1.3l16.8-21.2,334.5-424.4,100-126.9L-224.7-693.1l75-50.1,62.6-80.3,77.8-52.9,59.6-77.5,80.8-55.7,56.7-74.7,83.7-58.4,53.7-72,86.6-61.2,50.8-69.2,89.5-64,47.9-66.4,92.4-66.8,44.9-63.6,95.3-69.5,42-60.8,98.3-72.3,39.1-58,101.2-75.1,36.1-55.2,104.1-77.8,33.2-52.4,107-80.6,30.3-49.6,109.9-83.3,27.3-46.8,112.8-86.1,21.4-16.3c.3-.2.8,0,1.3.6.5.5.6,1.1.4,1.3l-134.1,102.3-27.3,46.8-109.9,83.4-30.3,49.6-107,80.6-33.2,52.4-104.1,77.8-36.1,55.2-101.2,75.1-39.1,58-98.3,72.3-42,60.8-95.3,69.5-44.9,63.6-92.4,66.8-47.9,66.4-89.5,64-50.8,69.2-86.6,61.2-53.7,72-83.7,58.4-56.7,74.7-80.8,55.7-59.6,77.5-77.8,52.9-62.6,80.3-75,50.1-65.5,83.1L-1386.1,784.2h0Z"/>
                  <path class="cls-39" d="M745.5-228.3h0L336.7-55.9,159.1,19l-450.9,190.1-460.8,194.2-96.6,40.7-255.7,107.8-75.5,31.8-282.9,119.2c-.3,0-.9-.2-1.3-.7s-.5-1.1-.2-1.2L-155.1,148.9,157.5,17.1l177.7-74.9,408.6-172.3,100.6-208.5s0-.1,0-.1l229.7-105.2,84.8-193.5s0,0,0,0l245.4-120.1,68.9-178.4s0,0,0-.2l261.1-135,101.4-311.9s0,0,0-.2l265.8-149.8,85.1-338.1c0-.4.6-.3,1.1,0s.9,1.1.8,1.4l-85.1,338.2s0,.2-.1.2l-265.8,149.8-48.3,148.4-53.2,163.5s0,0,0,.2l-261.1,135-68.9,178.4s0,0,0,.2l-245.4,120.1-84.8,193.5s0,0,0,0l-229.7,105.2-100.6,208.5h0Z"/>
                  <path class="cls-47" d="M-1456.3,710.2c-.2.2-.8,0-1.2-.5-.5-.5-.7-1.1-.5-1.3L-368.4-632.4l66.3-45,60.7-75.4,68.7-47.4,58.2-73.1,71.2-49.7,55.7-70.7,73.7-52.1,53.2-68.3,76.2-54.4,50.7-65.9,78.7-56.8,48.2-63.6,81.1-59.1,45.7-61.2,83.6-61.5,43.2-58.8,86.1-63.9,40.7-56.4,88.6-66.2,38.2-54.1,91-68.6,35.7-51.7,93.5-70.9,33.2-49.3,96-73.3,30.7-47,98.4-75.6,28.2-44.5,100.9-78,25.7-42.2,122-94.8c.3-.2.8,0,1.3.6.5.5.6,1.1.4,1.3l-122,94.7-25.7,42.2-100.9,78-28.2,44.5-98.4,75.6-30.7,47-96,73.3-33.2,49.3-93.5,70.9-35.7,51.7-91,68.6-38.2,54.1-88.6,66.2-40.7,56.4-86.1,63.9-43.2,58.8-83.6,61.5-45.7,61.2-81.1,59.1-48.2,63.6-78.7,56.8-50.7,65.9-76.2,54.4-53.2,68.3-73.7,52.1-55.7,70.7-71.2,49.7-58.2,73.1-68.7,47.4-60.7,75.4-66.3,45-63.2,77.8-134.3,165.3-71.4,87.8-74.4,91.6-77.7,95.6-668.6,822.7h0Z"/>
                  <path class="cls-11" d="M2294.8-1857.7h0l-157.1,91.6-255.7,149.1-44,135.5s0,0,0,.2l-242.7,136.8-57.2,147.9s0,0,0,.2l-229.7,124.4-70.3,160.5s0,0,0,0l-216.7,112-83.4,172.9s0,0,0,0l-203.6,99.7-96.6,185.4s0,.1,0,.1l-190.7,87.3-174.8,80L110.9-100.3-37.5-32.3-175,30.5l-127.6,58.4-118.8,54.4-110.9,50.8-103.7,47.5-814.7,372.9-67.4,30.8c-.3,0-.9-.2-1.3-.7s-.5-1.1-.2-1.2L635.5-343.1l96.6-185.4h0c0,0,203.6-99.8,203.6-99.8l83.4-172.9s0,0,0,0l216.7-112,70.3-160.5s0,0,0,0l229.7-124.4,57.2-147.9s0,0,0,0l242.7-136.8,44-135.5s0,0,0-.2l255.8-149.1,157.1-91.6c.3-.2.9,0,1.3.7.4.5.6,1,.4,1.2h0Z"/>
                  <path class="cls-24" d="M-1513.3,650.1c-.2.2-.8,0-1.2-.5-.5-.5-.7-1.1-.5-1.3l9.4-11.3,99.4-119.3,185.7-223L-893.9-97.5l73.6-88.4,328.5-394.5,59.2-40.8,58.7-71,61.3-42.8,56.6-69,63.5-44.9,54.4-66.9,65.6-46.9,52.2-64.9,67.7-48.9,50.1-62.9,69.9-51,48-60.8,72-53,45.8-58.8,74.2-55,43.6-56.7,76.3-57,41.5-54.7,78.4-59.1,39.3-52.7,80.6-61.1,37.2-50.6,82.7-63.1,35-48.5,84.8-65.1,32.9-46.5,86.9-67.1,30.7-44.5,89.1-69.2,28.6-42.4,91.2-71.2,26.4-40.4,93.3-73.2,24.3-38.4,111.8-88.1c.3-.2.8,0,1.3.6.5.5.7,1.1.4,1.3l-111.7,88-24.3,38.4-93.3,73.2-26.4,40.4-91.2,71.2-28.6,42.4-89.1,69.2-30.7,44.5-86.9,67.1-32.9,46.5-84.8,65.1-35,48.5-82.7,63.1-37.2,50.6-80.6,61.1-39.3,52.7-78.4,59.1-41.5,54.7-76.3,57-43.6,56.7-74.2,55-45.8,58.8-72,53-48,60.8-69.9,51-50.1,62.9-67.7,48.9-52.2,64.9-65.6,46.9-54.4,66.9-63.5,44.9-56.6,69-61.3,42.8-58.7,71-59.2,40.8-1023.3,1228.7h0Z"/>
                  <path class="cls-3" d="M547.1-435.4h0L-66.5-135.2l-126.9,62.1-1360.6,665.7-9.4,4.6c-.3,0-.9-.2-1.3-.7s-.6-1.1-.3-1.2l9.4-4.6L545.4-437.2l92.4-166.8h0c0,0,182.7-94.6,182.7-94.6l81.3-156.2h0c0,0,193.7-105,193.7-105l70.3-145.7h0c0,0,204.7-115.4,204.7-115.4l59.2-135.2s0,0,0,0l215.6-125.7,48.1-124.7,44.5-115.1s0,0,0,0l219.2-135.3,86.2-265c0-.3.6-.3,1.1.2.5.4.9,1.1.7,1.4l-20.2,62-66,203s0,0,0,.2l-219.2,135.3-44.5,115-48.2,124.8s0,0,0,0l-215.6,125.7-59.2,135.2s0,0,0,0l-204.7,115.3-70.3,145.7h0c0,0-193.7,105-193.7,105l-81.3,156.2h0c0,0-182.7,94.6-182.7,94.6l-92.4,166.8h0Z"/>
                  <path class="cls-31" d="M-1560.5,600.3c-.2.2-.8,0-1.2-.5-.5-.5-.7-1.1-.5-1.3l6.5-7.7L-1055.3,2.1l72.6-85.3,69.9-82.3,314.4-369.9,53.4-37.3,56.7-67.1,55.2-39.1,54.8-65.3,57.1-40.8,52.9-63.6,59-42.6,51-61.8,60.8-44.3,49.2-60,62.7-46.1,47.3-58.2,64.5-47.9,45.4-56.4,66.4-49.6,43.6-54.6,68.2-51.4,41.7-52.9,70.1-53.2,39.8-51.1,72-54.9,37.9-49.4,73.8-56.6,36-47.6,75.6-58.4,34.2-45.8,77.5-60.2,32.3-44,79.3-61.9,30.5-42.2,81.2-63.7,28.6-40.4,83.1-65.5,26.7-38.7,84.9-67.2,24.8-36.9,86.8-69,23-35.1,88.6-70.7,14.4-11.5c.3-.2.8,0,1.3.6.5.5.6,1.1.4,1.3l-14.4,11.5-88.6,70.7-23,35.1-86.8,69-24.8,36.9-84.9,67.2-26.7,38.7-83.1,65.5-28.6,40.4-81.2,63.7-30.5,42.2-79.3,62-32.3,44-77.5,60.2-34.2,45.8-75.6,58.4-36,47.6-73.8,56.6-37.9,49.4-72,54.9-39.8,51.1-70.1,53.2-41.7,52.9-68.2,51.4-43.6,54.6-66.4,49.6-45.4,56.4-64.5,47.9-47.3,58.2-62.7,46.1-49.2,60-60.8,44.3-51,61.8-59,42.6-52.9,63.6-57.1,40.8-54.8,65.3-55.2,39.1-56.7,67.1-53.4,37.3-58.5,68.9-123.4,145.2-202.3,238L-1053.5,3.9l-506.9,596.4h0Z"/>
                  <path class="cls-48" d="M2120.9-2041.1h0l-339.5,214.5-41.1,106.5s0,0,0,0l-203,125.2-50.6,115.5h0c0,0-193.6,116.5-193.6,116.5l-60,124.4h0c0,0-184.3,107.5-184.3,107.5l-69.5,133.4h0c0,0-174.9,98.7-174.9,98.7l-78.9,142.4h0c0,0-165.6,89.7-165.6,89.7l-88.4,151.4h-.1c0,0-156.2,80.9-156.2,80.9L34.5-289.4-423.8-52.5l-189.8,98.2-87,45-901.3,466c-.3.2-.9-.2-1.3-.7s-.6-1.1-.3-1.2L-862.5,171.6,168-361.1l145-75,156.2-80.7,88.4-151.4h0c0,0,165.6-89.7,165.6-89.7l78.9-142.4h0c0,0,174.9-98.6,174.9-98.6l69.4-133.4h0c0,0,184.3-107.5,184.3-107.5l60-124.4h0c0,0,193.6-116.5,193.6-116.5l50.6-115.5h0c0,0,203-125.3,203-125.3l41.1-106.5s0,0,0,0l339.6-214.5c.3-.2.9,0,1.3.6.4.5.6,1,.4,1.2h0v-.3Z"/>
                  <path class="cls-40" d="M405.5-583.2h0l-143.1,77.5-133.6,72.3L3.7-365.6l-117.2,63.5-110.1,59.6-103.6,56.1-945.5,512.1-362.3,196.2c-.3.2-.9,0-1.3-.7s-.6-1.1-.3-1.2l2.6-1.5L-979.8,164.3l212.9-115.3,78.4-42.5,359.8-194.9,103.6-56.1,110.1-59.6L2.1-367.5l125-67.7,133.6-72.3,143.1-77.5,84.6-138.6h.1l151.2-85.2,76.4-130.8h0l159.3-92.9,68.2-123h0c0,0,167.4-100.7,167.4-100.7l60-115.3h0c0,0,175.5-108.4,175.5-108.4l51.8-107.5h0c0,0,183.6-116.1,183.6-116.1l84.5-192.9h0c0,0,186.4-122.7,186.4-122.7l83.4-215.8c0-.3.6-.2,1.2.2.5.4.8,1.1.7,1.4l-83.4,215.9s0,0,0,0l-186.4,122.6-84.5,192.9h0c0,0-183.6,116.1-183.6,116.1l-51.9,107.5h0c0,0-175.5,108.4-175.5,108.4l-60,115.3h0c0,0-167.4,100.7-167.4,100.7l-68.2,123h0c0,0-159.3,93-159.3,93l-76.4,130.8h0c0,0-151.2,85.3-151.2,85.3l-84.6,138.6h.1Z"/>
                  <path class="cls-16" d="M1994.5-2174.5h0l-106.1,71-181.5,121.4-38.1,87h0c0,0-174.4,114.8-174.4,114.8l-45.2,93.8h0c0,0-167.4,108.1-167.4,108.1l-52.4,100.6h0c0,0-160.3,101.4-160.3,101.4l-59.5,107.3h0c0,0-153.2,94.7-153.2,94.7l-66.6,114.2h0l-146.2,87.8-73.8,120.9h0l-139.1,81.1-80.9,127.7h0l-132.1,74.4-123.8,69.8L-513-156.6l-82.9,46.7-78.7,44.4-988.8,557.2h0c-.3.1-.9-.2-1.3-.7s-.5-1.1-.2-1.2h0L347.2-644.1l80.9-127.7h0l139.1-81.1,73.8-120.9h0l146.2-87.8,66.6-114.1h0l153.2-94.6,59.5-107.3h0c0,0,160.3-101.4,160.3-101.4l52.4-100.6h0c0,0,167.4-108.1,167.4-108.1l45.2-93.8h0c0,0,174.4-114.8,174.4-114.8l38.1-87h0c0,0,181.5-121.5,181.5-121.5l106.1-71c.3-.2.9,0,1.3.6.4.5.6,1,.4,1.2h0l.8-.5Z"/>
                </g>
              </g>
            </g>
          </g>
        </g>
      </g>
    </g>
  </g>
</svg>