<?xml version="1.0" encoding="UTF-8"?>
<svg xmlns="http://www.w3.org/2000/svg" version="1.1" xmlns:xlink="http://www.w3.org/1999/xlink" viewBox="0 0 3840 2160">
  <defs>
    <style>
      .cls-1 {
        stroke: url(#Degradado_sin_nombre_51-14);
      }

      .cls-1, .cls-2, .cls-3, .cls-4, .cls-5, .cls-6, .cls-7, .cls-8, .cls-9, .cls-10, .cls-11, .cls-12, .cls-13, .cls-14, .cls-15, .cls-16, .cls-17, .cls-18, .cls-19, .cls-20, .cls-21, .cls-22, .cls-23, .cls-24, .cls-25, .cls-26, .cls-27, .cls-28, .cls-29, .cls-30, .cls-31, .cls-32, .cls-33, .cls-34, .cls-35, .cls-36, .cls-37, .cls-38, .cls-39, .cls-40, .cls-41, .cls-42, .cls-43, .cls-44, .cls-45, .cls-46 {
        stroke-miterlimit: 10;
      }

      .cls-1, .cls-2, .cls-3, .cls-4, .cls-5, .cls-6, .cls-7, .cls-9, .cls-10, .cls-11, .cls-12, .cls-13, .cls-14, .cls-15, .cls-16, .cls-47, .cls-17, .cls-18, .cls-19, .cls-20, .cls-21, .cls-22, .cls-23, .cls-24, .cls-25, .cls-26, .cls-27, .cls-28, .cls-29, .cls-30, .cls-31, .cls-32, .cls-33, .cls-34, .cls-35, .cls-36, .cls-37, .cls-38, .cls-39, .cls-40, .cls-41, .cls-42, .cls-43, .cls-44, .cls-45, .cls-46 {
        fill: none;
      }

      .cls-2 {
        stroke: url(#Degradado_sin_nombre_51-26);
      }

      .cls-3 {
        stroke: url(#Degradado_sin_nombre_51-18);
      }

      .cls-4 {
        stroke: url(#Degradado_sin_nombre_51-31);
      }

      .cls-5 {
        stroke: url(#Degradado_sin_nombre_51-15);
      }

      .cls-6 {
        stroke: url(#Degradado_sin_nombre_51-24);
      }

      .cls-7 {
        stroke: url(#Degradado_sin_nombre_51-3);
      }

      .cls-8 {
        fill: #1e3a6a;
        stroke: url(#Degradado_sin_nombre_51);
      }

      .cls-9 {
        stroke: url(#Degradado_sin_nombre_51-9);
      }

      .cls-10 {
        stroke: url(#Degradado_sin_nombre_51-34);
      }

      .cls-48 {
        fill: #fff;
      }

      .cls-11 {
        stroke: url(#Degradado_sin_nombre_51-44);
      }

      .cls-12 {
        stroke: url(#Degradado_sin_nombre_51-5);
      }

      .cls-13 {
        stroke: url(#Degradado_sin_nombre_51-16);
      }

      .cls-14 {
        stroke: url(#Degradado_sin_nombre_51-22);
      }

      .cls-15 {
        stroke: url(#Degradado_sin_nombre_51-46);
      }

      .cls-16 {
        stroke: url(#Degradado_sin_nombre_51-43);
      }

      .cls-17 {
        stroke: url(#Degradado_sin_nombre_51-45);
      }

      .cls-18 {
        stroke: url(#Degradado_sin_nombre_51-13);
      }

      .cls-19 {
        stroke: url(#Degradado_sin_nombre_51-39);
      }

      .cls-20 {
        stroke: url(#Degradado_sin_nombre_51-12);
      }

      .cls-21 {
        stroke: url(#Degradado_sin_nombre_51-25);
      }

      .cls-22 {
        stroke: url(#Degradado_sin_nombre_51-17);
      }

      .cls-23 {
        stroke: url(#Degradado_sin_nombre_51-36);
      }

      .cls-24 {
        stroke: url(#Degradado_sin_nombre_51-33);
      }

      .cls-25 {
        stroke: url(#Degradado_sin_nombre_51-35);
      }

      .cls-26 {
        stroke: url(#Degradado_sin_nombre_51-21);
      }

      .cls-27 {
        stroke: url(#Degradado_sin_nombre_51-19);
      }

      .cls-28 {
        stroke: url(#Degradado_sin_nombre_51-8);
      }

      .cls-29 {
        stroke: url(#Degradado_sin_nombre_51-41);
      }

      .cls-30 {
        stroke: url(#Degradado_sin_nombre_51-27);
      }

      .cls-31 {
        stroke: url(#Degradado_sin_nombre_51-10);
      }

      .cls-32 {
        stroke: url(#Degradado_sin_nombre_51-30);
      }

      .cls-33 {
        stroke: url(#Degradado_sin_nombre_51-32);
      }

      .cls-34 {
        stroke: url(#Degradado_sin_nombre_51-7);
      }

      .cls-35 {
        stroke: url(#Degradado_sin_nombre_51-42);
      }

      .cls-36 {
        stroke: url(#Degradado_sin_nombre_51-6);
      }

      .cls-37 {
        stroke: url(#Degradado_sin_nombre_51-29);
      }

      .cls-38 {
        stroke: url(#Degradado_sin_nombre_51-20);
      }

      .cls-39 {
        stroke: url(#Degradado_sin_nombre_51-4);
      }

      .cls-40 {
        stroke: url(#Degradado_sin_nombre_51-2);
      }

      .cls-41 {
        stroke: url(#Degradado_sin_nombre_51-11);
      }

      .cls-42 {
        stroke: url(#Degradado_sin_nombre_51-23);
      }

      .cls-43 {
        stroke: url(#Degradado_sin_nombre_51-38);
      }

      .cls-49 {
        clip-path: url(#clippath);
      }

      .cls-44 {
        stroke: url(#Degradado_sin_nombre_51-40);
      }

      .cls-45 {
        stroke: url(#Degradado_sin_nombre_51-28);
      }

      .cls-46 {
        stroke: url(#Degradado_sin_nombre_51-37);
      }
    </style>
    <clipPath id="clippath">
      <rect class="cls-47" width="3840" height="2160"/>
    </clipPath>
    <linearGradient id="Degradado_sin_nombre_51" data-name="Degradado sin nombre 51" x1="-618.2" y1="1047.9" x2="4360.2" y2="1047.9" gradientUnits="userSpaceOnUse">
      <stop offset="0" stop-color="#fff"/>
      <stop offset="1" stop-color="#9b9b9b"/>
    </linearGradient>
    <linearGradient id="Degradado_sin_nombre_51-2" data-name="Degradado sin nombre 51" x1="-233.2" y1="1080.8" x2="4116" y2="1080.8" xlink:href="#Degradado_sin_nombre_51"/>
    <linearGradient id="Degradado_sin_nombre_51-3" data-name="Degradado sin nombre 51" x1="-.5" y1="1071.1" x2="3840.5" y2="1071.1" xlink:href="#Degradado_sin_nombre_51"/>
    <linearGradient id="Degradado_sin_nombre_51-4" data-name="Degradado sin nombre 51" x1="135" y1="2051.3" x2="873.2" y2="2051.3" xlink:href="#Degradado_sin_nombre_51"/>
    <linearGradient id="Degradado_sin_nombre_51-5" data-name="Degradado sin nombre 51" x1="-.5" y1="594.5" x2="3840.5" y2="594.5" xlink:href="#Degradado_sin_nombre_51"/>
    <linearGradient id="Degradado_sin_nombre_51-6" data-name="Degradado sin nombre 51" x1="1567.4" y1="2050.5" x2="2312" y2="2050.5" xlink:href="#Degradado_sin_nombre_51"/>
    <linearGradient id="Degradado_sin_nombre_51-7" data-name="Degradado sin nombre 51" x1="-.5" y1="866.6" x2="3840.5" y2="866.6" xlink:href="#Degradado_sin_nombre_51"/>
    <linearGradient id="Degradado_sin_nombre_51-8" data-name="Degradado sin nombre 51" x1="-.5" y1="357" x2="3840.5" y2="357" xlink:href="#Degradado_sin_nombre_51"/>
    <linearGradient id="Degradado_sin_nombre_51-9" data-name="Degradado sin nombre 51" x1="-.5" y1="1667.7" x2="3840.5" y2="1667.7" xlink:href="#Degradado_sin_nombre_51"/>
    <linearGradient id="Degradado_sin_nombre_51-10" data-name="Degradado sin nombre 51" x1="2999.8" y1="2049.6" x2="3750.8" y2="2049.6" xlink:href="#Degradado_sin_nombre_51"/>
    <linearGradient id="Degradado_sin_nombre_51-11" data-name="Degradado sin nombre 51" x1="-.5" y1="1358.5" x2="3840.5" y2="1358.5" xlink:href="#Degradado_sin_nombre_51"/>
    <linearGradient id="Degradado_sin_nombre_51-12" data-name="Degradado sin nombre 51" x1="-.5" y1="499.4" x2="3840.5" y2="499.4" xlink:href="#Degradado_sin_nombre_51"/>
    <linearGradient id="Degradado_sin_nombre_51-13" data-name="Degradado sin nombre 51" x1="-.5" y1="214.9" x2="3840.5" y2="214.9" xlink:href="#Degradado_sin_nombre_51"/>
    <linearGradient id="Degradado_sin_nombre_51-14" data-name="Degradado sin nombre 51" x1="-.5" y1="120.3" x2="3840.5" y2="120.3" xlink:href="#Degradado_sin_nombre_51"/>
    <linearGradient id="Degradado_sin_nombre_51-15" data-name="Degradado sin nombre 51" x1="-.5" y1="302.4" x2="3840.5" y2="302.4" xlink:href="#Degradado_sin_nombre_51"/>
    <linearGradient id="Degradado_sin_nombre_51-16" data-name="Degradado sin nombre 51" x1="-.5" y1="46.9" x2="3840.5" y2="46.9" xlink:href="#Degradado_sin_nombre_51"/>
    <linearGradient id="Degradado_sin_nombre_51-17" data-name="Degradado sin nombre 51" x1="-.5" y1="1247.8" x2="3840.5" y2="1247.8" xlink:href="#Degradado_sin_nombre_51"/>
    <linearGradient id="Degradado_sin_nombre_51-18" data-name="Degradado sin nombre 51" x1="-.5" y1="713.4" x2="3840.5" y2="713.4" xlink:href="#Degradado_sin_nombre_51"/>
    <linearGradient id="Degradado_sin_nombre_51-19" data-name="Degradado sin nombre 51" x1="-.5" y1="179.4" x2="3840.5" y2="179.4" xlink:href="#Degradado_sin_nombre_51"/>
    <linearGradient id="Degradado_sin_nombre_51-20" data-name="Degradado sin nombre 51" x1="-.5" y1="3.5" x2="3840.5" y2="3.5" xlink:href="#Degradado_sin_nombre_51"/>
    <linearGradient id="Degradado_sin_nombre_51-21" data-name="Degradado sin nombre 51" x1="-.5" y1="-31.2" x2="3840.5" y2="-31.2" xlink:href="#Degradado_sin_nombre_51"/>
    <linearGradient id="Degradado_sin_nombre_51-22" data-name="Degradado sin nombre 51" x1="-.5" y1="95.4" x2="3840.5" y2="95.4" xlink:href="#Degradado_sin_nombre_51"/>
    <linearGradient id="Degradado_sin_nombre_51-23" data-name="Degradado sin nombre 51" x1="-.5" y1="939.9" x2="3840.5" y2="939.9" xlink:href="#Degradado_sin_nombre_51"/>
    <linearGradient id="Degradado_sin_nombre_51-24" data-name="Degradado sin nombre 51" x1="-.5" y1="421.8" x2="3840.5" y2="421.8" xlink:href="#Degradado_sin_nombre_51"/>
    <linearGradient id="Degradado_sin_nombre_51-25" data-name="Degradado sin nombre 51" x1="-.5" y1="41.7" x2="3840.5" y2="41.7" xlink:href="#Degradado_sin_nombre_51"/>
    <linearGradient id="Degradado_sin_nombre_51-26" data-name="Degradado sin nombre 51" x1="-.5" y1="-57.5" x2="3840.5" y2="-57.5" xlink:href="#Degradado_sin_nombre_51"/>
    <linearGradient id="Degradado_sin_nombre_51-27" data-name="Degradado sin nombre 51" x1="-.5" y1="-3.3" x2="3840.5" y2="-3.3" xlink:href="#Degradado_sin_nombre_51"/>
    <linearGradient id="Degradado_sin_nombre_51-28" data-name="Degradado sin nombre 51" x1="-.5" y1="723.2" x2="3840.5" y2="723.2" xlink:href="#Degradado_sin_nombre_51"/>
    <linearGradient id="Degradado_sin_nombre_51-29" data-name="Degradado sin nombre 51" x1="-.5" y1="255.5" x2="3840.5" y2="255.5" xlink:href="#Degradado_sin_nombre_51"/>
    <linearGradient id="Degradado_sin_nombre_51-30" data-name="Degradado sin nombre 51" x1="-.5" y1="-36.5" x2="3840.5" y2="-36.5" xlink:href="#Degradado_sin_nombre_51"/>
    <linearGradient id="Degradado_sin_nombre_51-31" data-name="Degradado sin nombre 51" x1="-.5" y1="-43.3" x2="3840.5" y2="-43.3" xlink:href="#Degradado_sin_nombre_51"/>
    <linearGradient id="Degradado_sin_nombre_51-32" data-name="Degradado sin nombre 51" x1="-.5" y1="507.3" x2="3840.5" y2="507.3" xlink:href="#Degradado_sin_nombre_51"/>
    <linearGradient id="Degradado_sin_nombre_51-33" data-name="Degradado sin nombre 51" x1="-.5" y1="148.1" x2="3840.5" y2="148.1" xlink:href="#Degradado_sin_nombre_51"/>
    <linearGradient id="Degradado_sin_nombre_51-34" data-name="Degradado sin nombre 51" x1="-.5" y1="405.2" x2="3840.5" y2="405.2" xlink:href="#Degradado_sin_nombre_51"/>
    <linearGradient id="Degradado_sin_nombre_51-35" data-name="Degradado sin nombre 51" x1="-.5" y1="77.4" x2="3840.5" y2="77.4" xlink:href="#Degradado_sin_nombre_51"/>
    <linearGradient id="Degradado_sin_nombre_51-36" data-name="Degradado sin nombre 51" x1="-.5" y1="291.9" x2="3840.5" y2="291.9" xlink:href="#Degradado_sin_nombre_51"/>
    <linearGradient id="Degradado_sin_nombre_51-37" data-name="Degradado sin nombre 51" x1="-.5" y1="24.3" x2="3840.5" y2="24.3" xlink:href="#Degradado_sin_nombre_51"/>
    <linearGradient id="Degradado_sin_nombre_51-38" data-name="Degradado sin nombre 51" x1="-.5" y1="-30.3" x2="3840.5" y2="-30.3" xlink:href="#Degradado_sin_nombre_51"/>
    <linearGradient id="Degradado_sin_nombre_51-39" data-name="Degradado sin nombre 51" x1="-.5" y1="232.4" x2="3840.5" y2="232.4" xlink:href="#Degradado_sin_nombre_51"/>
    <linearGradient id="Degradado_sin_nombre_51-40" data-name="Degradado sin nombre 51" x1="-.5" y1="-14.2" x2="3840.5" y2="-14.2" xlink:href="#Degradado_sin_nombre_51"/>
    <linearGradient id="Degradado_sin_nombre_51-41" data-name="Degradado sin nombre 51" x1="-.5" y1="162.8" x2="3840.5" y2="162.8" xlink:href="#Degradado_sin_nombre_51"/>
    <linearGradient id="Degradado_sin_nombre_51-42" data-name="Degradado sin nombre 51" x1="-.5" y1="123.9" x2="3840.5" y2="123.9" xlink:href="#Degradado_sin_nombre_51"/>
    <linearGradient id="Degradado_sin_nombre_51-43" data-name="Degradado sin nombre 51" x1="-.5" y1="76.9" x2="3840.5" y2="76.9" xlink:href="#Degradado_sin_nombre_51"/>
    <linearGradient id="Degradado_sin_nombre_51-44" data-name="Degradado sin nombre 51" x1="-.5" y1="49.5" x2="3840.5" y2="49.5" xlink:href="#Degradado_sin_nombre_51"/>
    <linearGradient id="Degradado_sin_nombre_51-45" data-name="Degradado sin nombre 51" x1="-.5" y1="15.6" x2="3840.5" y2="15.6" xlink:href="#Degradado_sin_nombre_51"/>
    <linearGradient id="Degradado_sin_nombre_51-46" data-name="Degradado sin nombre 51" x1="-.5" y1="-4.9" x2="3840.5" y2="-4.9" xlink:href="#Degradado_sin_nombre_51"/>
  </defs>
  <!-- Generator: Adobe Illustrator 28.7.1, SVG Export Plug-In . SVG Version: 1.2.0 Build 142)  -->
  <g>
    <g id="_x5F__x5F__x5F__x5F__x5F__x5F___x5F__x5F__x5F__x5F__x5F__x5F__x5F__x5F__x5F_">
      <g id="_x5F__x5F__x5F__x5F__x28_0_x29_">
        <g id="_x5F__x5F__x5F__x5F__x5F_">
          <g>
            <rect class="cls-48" width="3840" height="2160"/>
            <g class="cls-49">
              <rect class="cls-8" x="-617.7" y="-234" width="4977.4" height="2563.8"/>
              <g>
                <rect class="cls-40" x="-232.7" y="-201.1" width="4348.2" height="2563.8"/>
                <g>
                  <path class="cls-7" d="M.5,1355.7c-.2,0-.4-.1-.5-.4,0-.3,0-.5.3-.6l621.6-183.3,521.7-153.8,780.3-230.1c0,0,.2,0,.3,0l356.3,103.9,294.4-104.4c0,0,.2,0,.3,0l415.6,103.9,234.6-104.3c0,0,.2,0,.3,0l474.9,103.8,138.9,30.4c.3,0,.4.3.4.6,0,.3-.3.4-.6.4l-613.7-134.2-234.6,104.3c-.1,0-.2,0-.3,0l-415.6-103.9-294.4,104.4c0,0-.2,0-.3,0l-356.3-104L.6,1355.6s0,0-.1,0Z"/>
                  <path class="cls-39" d="M136,2160.5c-.2,0-.4-.1-.5-.3-.1-.3,0-.5.3-.7l489.2-217.4c.2,0,.4,0,.5,0l247,217.4c.2.2.2.5,0,.7s-.5.2-.7,0l-246.7-217.2-488.9,217.2c0,0-.1,0-.2,0h0Z"/>
                  <path class="cls-12" d="M.5,783.4c-.2,0-.4-.2-.5-.4,0-.3.1-.5.4-.6l419.1-82.1,1013.5-198.7,257.8-50.5,229-44.9c0,0,.1,0,.2,0l229.8,44.7,203.2-44.8c0,0,.1,0,.2,0l255.3,44.6,177.5-44.8c0,0,.1,0,.2,0l280.7,44.6,151.9-44.8c0,0,.1,0,.2,0l306.2,44.6,314.3,45.8c.3,0,.5.3.4.6,0,.3-.3.5-.6.4l-314.3-45.8-306.1-44.6-151.9,44.8c0,0-.1,0-.2,0l-280.7-44.6-177.5,44.8c0,0-.1,0-.2,0l-255.3-44.6-203.2,44.8c0,0-.1,0-.2,0l-229.8-44.7-228.9,44.9-257.8,50.5-292.5,57.3L.6,783.3s0,0,0,0Z"/>
                  <path class="cls-36" d="M1568.4,2160.5c-.2,0-.3,0-.4-.2-.1-.2,0-.5.2-.7l368.1-219.1c.2,0,.4,0,.5,0l374.5,219.1c.2.1.3.4.2.7-.1.2-.4.3-.7.2l-374.2-218.9-367.8,218.9c0,0-.2,0-.3,0h0Z"/>
                  <path class="cls-34" d="M.5,1110c-.2,0-.4-.2-.5-.4,0-.3,0-.5.4-.6l1622.2-409.5,299.7-75.6c0,0,.2,0,.2,0l301.1,75.2,256.2-75.6c0,0,.2,0,.2,0l344,75.2,213-75.5c0,0,.2,0,.3,0l802.4,155.9c.3,0,.4.3.4.6,0,.3-.3.4-.6.4l-802.2-155.9-213,75.5c0,0-.2,0-.3,0l-344-75.2-256.2,75.6c0,0-.2,0-.3,0l-301.1-75.3-299.6,75.6L.6,1109.9s0,0-.1,0h0Z"/>
                  <path class="cls-28" d="M.5,498.5c-.2,0-.5-.2-.5-.4,0-.3.1-.5.4-.6l312.3-45.8,306.3-45,520.1-76.3,222.7-32.7,202.3-29.7,184.6-27.1,169.2-24.8s0,0,.1,0l169.6,24.7,154.9-24.8s0,0,.1,0l183.7,24.7,140.7-24.8c0,0,.1,0,.1,0l197.8,24.7,126.5-24.8c0,0,.1,0,.2,0l211.8,24.7,112.3-24.8c0,0,.1,0,.2,0l225.9,24.7,98.1-24.8c0,0,.1,0,.2,0l240,24.7,59.8,6.1c.3,0,.5.3.4.5,0,.3-.3.5-.5.4l-59.8-6.1-239.9-24.7-98.1,24.8c0,0-.1,0-.2,0l-225.9-24.7-112.3,24.8c0,0-.1,0-.2,0l-211.8-24.7-126.5,24.8c0,0-.1,0-.2,0l-197.8-24.7-140.7,24.8c0,0-.1,0-.2,0l-183.7-24.7-154.9,24.8c0,0-.1,0-.2,0l-169.6-24.7-169.1,24.8-184.6,27.1-202.3,29.7-222.7,32.7L.6,498.5s0,0,0,0h0Z"/>
                  <path class="cls-9" d="M625.2,1943.1c-.1,0-.2,0-.3-.1L.2,1393.2c-.2-.2-.2-.5,0-.7.2-.2.5-.2.7,0l624.4,549.6,746.7-331.8c.1,0,.3,0,.5,0l564.1,330,556.6-331.3c.1,0,.3,0,.5,0l752.2,329.6,367.1-330.8,226.3-203.9c.2-.2.5-.2.7,0,.2.2.2.5,0,.7l-226.3,204-367.3,331c-.1.1-.4.2-.5,0l-752.3-329.6-556.7,331.3c-.2,0-.4,0-.5,0l-564.1-330.1-746.7,331.8c0,0-.1,0-.2,0h0Z"/>
                  <path class="cls-31" d="M3749.8,2160.5c0,0-.1,0-.2,0l-503.6-220.7-244.8,220.6c-.2.2-.5.2-.7,0-.2-.2-.2-.5,0-.7l245-220.8c.1-.1.4-.2.5,0l503.9,220.8c.3.1.4.4.3.7,0,.2-.3.3-.5.3h0Z"/>
                  <path class="cls-41" d="M.5,1700.7c-.2,0-.4-.1-.5-.3,0-.3,0-.5.3-.6l1926.1-682.8c.1,0,.2,0,.3,0l436.4,152.9,345.3-153.5c.1,0,.2,0,.3,0l523.7,152.8,607.1,177.1c.3,0,.4.4.3.6,0,.3-.4.4-.6.3l-607.1-177.1-523.5-152.7-345.3,153.5c-.1,0-.2,0-.4,0l-436.4-152.9-433.3,153.6-543.2,192.6L.7,1700.7c0,0-.1,0-.2,0h0Z"/>
                  <path class="cls-20" d="M.5,669.3c-.2,0-.4-.2-.5-.4,0-.3.1-.5.4-.6l247-43.5,372.2-65.6,325.3-57.4,286.8-50.6,687.3-121.2c0,0,.1,0,.2,0l205.5,35.9,184.1-36.1c0,0,.1,0,.2,0l226,35.9,163.4-36.1c0,0,.1,0,.2,0l246.4,35.9,142.8-36c0,0,.1,0,.2,0l266.9,35.9,122.1-36c0,0,.1,0,.2,0l287.4,35.9,75,9.4c.3,0,.5.3.4.6,0,.3-.3.5-.6.4l-75-9.4-287.3-35.9-122.1,36c0,0-.1,0-.2,0l-266.9-35.9-142.8,36c0,0-.1,0-.2,0l-246.4-35.9-163.4,36.1c0,0-.1,0-.2,0l-226-35.9-184.1,36.1c0,0-.1,0-.2,0l-205.5-35.9-687.3,121.2-286.8,50.6-325.3,57.4L.6,669.3s0,0,0,0Z"/>
                  <path class="cls-18" d="M.5,328c-.2,0-.5-.2-.5-.4,0-.3.2-.5.4-.6l246.3-28.9,253.4-29.7,231.3-27.1,211.9-24.8,973.3-114.2s0,0,.1,0l134.4,15.7,125-15.7s0,0,.1,0l143.3,15.7,116-15.7s0,0,.1,0l152.2,15.6,107-15.7s0,0,.1,0l161.1,15.6,98-15.7s0,0,.1,0l170,15.6,89.1-15.7s0,0,.1,0l179,15.6,191.7,16.7,76.2-16.8s0,0,.1,0l178.8,14.9c.3,0,.5.3.5.5,0,.3-.3.5-.5.5l-178.7-14.9-76.2,16.8s-.1,0-.2,0l-191.8-16.7-179-15.6-89.1,15.7s0,0-.1,0l-170-15.6-98,15.7s0,0-.1,0l-161.1-15.6-107,15.7s0,0-.1,0l-152.2-15.6-116,15.7s0,0-.1,0l-143.3-15.7-125,15.7s0,0-.1,0l-134.4-15.7-973.3,114.2-211.9,24.8-231.3,27.1-253.4,29.7L.6,328s0,0,0,0h0Z"/>
                  <path class="cls-1" d="M.5,214.5c-.3,0-.5-.2-.5-.5,0-.3.2-.5.4-.5l201.5-19.7,216.1-21.1,200-19.6,944.2-92.2,242.5-23.7,111.1-10.8,111.4,10.8,104.8-10.8,117.5,10.8,98.6-10.8,123.7,10.8,92.4-10.8,129.8,10.8,86.2-10.8s0,0,.1,0l135.9,10.8,80-10.8s0,0,.1,0l142,10.8,73.8-10.8s0,0,.1,0l148.2,10.8,67.6-10.8s0,0,.1,0l154.3,10.8,61.4-10.8s0,0,.1,0l160.5,10.8,35,2.3c.3,0,.5.3.5.5,0,.3-.3.5-.5.5l-35-2.3-160.5-10.8-61.4,10.8s0,0-.1,0l-154.3-10.8-67.6,10.8s0,0-.1,0l-148.2-10.8-73.8,10.8s0,0-.1,0l-142-10.8-80,10.8s0,0-.1,0l-135.9-10.8-86.2,10.8s0,0-.1,0l-129.8-10.8-92.4,10.8s0,0-.1,0l-123.6-10.8-98.6,10.8s0,0-.1,0l-117.5-10.8-104.8,10.8-111.4-10.8-1297.8,126.8-200,19.6-216.1,21.1L.5,214.5s0,0,0,0Z"/>
                  <path class="cls-5" d="M.5,432.9c-.2,0-.5-.2-.5-.4,0-.3.2-.5.4-.6l184.5-25,563.9-76.4,241.4-32.7,927.2-125.6s0,0,.1,0l156,21,143.5-21s0,0,.1,0l167.9,21,131.4-21s0,0,.1,0l179.9,20.9,119.3-21s0,0,.1,0l191.8,20.9,107.3-21s0,0,.1,0l203.8,20.9,220.7,22.7,90.2-22.8c0,0,.1,0,.2,0l209.5,20.3c.3,0,.5.3.4.5,0,.3-.3.5-.5.4l-209.4-20.3-90.2,22.8c0,0-.1,0-.2,0l-220.8-22.7-203.7-20.9-107.3,21s-.1,0-.1,0l-191.8-20.9-119.3,21s0,0-.1,0l-179.9-20.9-131.4,21s0,0-.1,0l-167.9-21-143.5,21s0,0-.1,0l-156-21-927.1,125.5-241.4,32.7-267,36.2-296.9,40.2L.6,432.9s0,0,0,0h0Z"/>
                  <path class="cls-13" d="M.5,133.5c-.3,0-.5-.2-.5-.5,0-.3.2-.5.5-.5L1505.9,6.5l110.3-9.2,104.7-8.8,99.6-8.3,95.1,8.3,94.7-8.3,99.8,8.3,90-8.3,104.6,8.3,85.2-8.3,109.3,8.3,80.4-8.3,114,8.3,75.6-8.3,118.7,8.3,70.9-8.3,123.5,8.3,66.1-8.3,128.2,8.3,61.3-8.3,132.8,8.3,110.6-16.2s0,0,.1,0l135.4,7.9,122.7-19.6c.3,0,.5.1.6.4,0,.3-.1.5-.4.6l-122.7,19.7s0,0-.1,0l-135.4-7.9-110.6,16.2s0,0-.1,0l-132.8-8.3-61.3,8.3-128.2-8.3-66.1,8.3-123.5-8.3-70.9,8.3-118.7-8.3-75.6,8.3-114-8.3-80.4,8.3-109.3-8.3-85.2,8.3-104.6-8.3-90,8.3-99.8-8.3-94.7,8.3-95.1-8.3-99.5,8.3-104.7,8.8-110.2,9.2L.5,133.5s0,0,0,0h0Z"/>
                  <path class="cls-22" d="M3839.5,1687.9c0,0-.1,0-.2,0l-929.7-325.6-416,247.6c-.1,0-.3,0-.5,0l-562.9-246.7-557.9,247.9c-.1,0-.3,0-.5,0L.2,808.6c-.2-.1-.3-.4-.2-.7.1-.2.4-.3.7-.2l1371.4,802.4,557.9-247.9c.1,0,.3,0,.4,0l562.9,246.6,415.9-247.6c.1,0,.3,0,.4,0l703.6,246.5,226.3,79.3c.3,0,.4.4.3.6,0,.2-.3.3-.5.3h0Z"/>
                  <path class="cls-3" d="M.5,926.1c-.2,0-.4-.2-.5-.4,0-.3.1-.5.4-.6l1020.8-225.3,343.1-75.7,556.6-122.8c0,0,.1,0,.2,0l260.7,57,226.7-57.2c0,0,.1,0,.2,0l293.2,57,193.9-57.2c0,0,.2,0,.2,0l325.6,56.9,161.2-57.1c0,0,.2,0,.2,0l358.1,56.9,98.4,15.6c.3,0,.5.3.4.6,0,.3-.3.5-.6.4l-98.4-15.6-358-56.9-161.2,57.1c0,0-.2,0-.3,0l-325.6-56.9-193.9,57.2c0,0-.2,0-.2,0l-293.2-57-226.7,57.2c0,0-.2,0-.2,0l-260.7-57-556.5,122.8-343.1,75.7L.6,926.1s0,0-.1,0h0Z"/>
                  <path class="cls-27" d="M.5,285.4c-.3,0-.5-.2-.5-.4,0-.3.2-.5.4-.6l144.8-15.9,473-52,208-22.9,191.9-21.1,177.6-19.5,318.2-35,143.1-15.7,133.8-14.7,125.5-13.8s0,0,.1,0l125.7,13.7,117.5-13.8s0,0,.1,0l133.5,13.7,109.6-13.8s0,0,.1,0l141.3,13.7,101.7-13.8s0,0,.1,0l149.1,13.7,93.8-13.8s0,0,.1,0l156.9,13.7,85.9-13.8s0,0,.1,0l164.8,13.7,78-13.7s0,0,.1,0l172.6,13.7,70.2-13.7s0,0,.1,0l221.5,16.8c.3,0,.5.3.5.5,0,.3-.3.5-.5.5l-221.5-16.8-70.2,13.7s0,0-.1,0l-172.6-13.7-78,13.7s0,0-.1,0l-164.8-13.7-85.9,13.8s0,0-.1,0l-157-13.7-93.8,13.8s0,0-.1,0l-149.1-13.7-101.7,13.8s0,0-.1,0l-141.3-13.7-109.6,13.8s0,0-.1,0l-133.5-13.7-117.5,13.8s0,0-.1,0l-125.7-13.7-125.4,13.8-133.8,14.7-143.1,15.7-318.2,35-177.6,19.5-191.9,21.1-208,22.9-473,52L.6,285.4s0,0,0,0h0Z"/>
                  <path class="cls-38" d="M.5,72.9c-.3,0-.5-.2-.5-.5,0-.3.2-.5.5-.5l144.5-10.6,166.8-12.2,305.7-22.4,140.4-10.3,133-9.7,126.1-9.2,544.3-39.8,94.3-6.9,82.7,6.9,90.3-6.9,86.6,6.9,86.3-6.9,90.5,6.9,82.3-6.9,94.4,6.9,78.4-6.9,98.4,6.9,74.4-6.9,102.3,6.9,70.5-6.9,106.2,6.9,66.5-6.9,110.1,6.9,62.6-6.9,114,6.9,58.7-6.9,117.9,6.9,54.7-6.9,121.8,6.9,99.4-13.5,124,6.6,110.6-16.2c.3,0,.5.1.6.4,0,.3-.1.5-.4.6l-110.7,16.2-124-6.6-99.4,13.5-121.8-6.9-54.7,6.9-117.9-6.9-58.7,6.9-114-6.9-62.6,6.9-110.1-6.9-66.5,6.9-106.2-6.9-70.5,6.9-102.3-6.9-74.4,6.9-98.4-6.9-78.4,6.9-94.4-6.9-82.3,6.9-90.5-6.9-86.3,6.9-86.6-6.9-90.3,6.9-82.7-6.9-94.2,6.9L1017.1-1.6l-126.1,9.2-133,9.7-140.4,10.3-305.7,22.4-166.8,12.2L.5,72.9s0,0,0,0h0Z"/>
                  <path class="cls-26" d="M.5,25.7c-.3,0-.5-.2-.5-.5,0-.3.2-.5.5-.5L275.5,6.8,417.5-2.5l134.9-8.8,250.4-16.3,714.9-46.5,72.9,5.8,85.9-5.8,76.2,5.8,82.6-5.8,79.5,5.8,79.3-5.8,82.8,5.8,75.9-5.8,86.1,5.8,72.6-5.8,89.4,5.8,69.3-5.8,92.7,5.8,65.9-5.8,96,5.8,62.6-5.8,99.3,5.8,59.3-5.8,102.6,5.8,56-5.8,105.9,5.8,52.7-5.8,109.2,5.8,49.3-5.8,112.5,5.8,90.3-11.4,114.3,5.5,100.5-13.6c.3,0,.5.2.6.4s-.2.5-.4.6l-100.6,13.6-114.3-5.5-90.3,11.4-112.5-5.8-49.3,5.8-109.2-5.8-52.7,5.8-105.9-5.8-56,5.8-102.6-5.8-59.3,5.8-99.3-5.8-62.6,5.8-96-5.8-65.9,5.8-92.7-5.8-69.3,5.8-89.4-5.8-72.6,5.8-86.1-5.8-75.9,5.8-82.8-5.8-79.3,5.8-79.5-5.8-82.6,5.8-76.2-5.8-85.9,5.8-72.9-5.8L552.5-10.2,417.6-1.5,125.8,17.5.5,25.7s0,0,0,0Z"/>
                  <path class="cls-14" d="M.5,184.7c-.3,0-.5-.2-.5-.5,0-.3.2-.5.5-.5L1810.5,16.2l105.1-9.7,105.4,9.7,99.4-9.7,110.9,9.7,93.9-9.7,116.4,9.7,88.3-9.7,121.9,9.7,82.7-9.7,127.4,9.7,77.2-9.7,132.9,9.7,71.7-9.7s0,0,.1,0l138.3,9.7,66.1-9.7s0,0,.1,0l143.9,9.7,151.8,10.2,58.1-10.2s0,0,.1,0l137.4,8.9c.3,0,.5.3.5.5,0,.3-.2.5-.5.5l-137.3-8.9-58.1,10.2s0,0-.1,0l-151.9-10.2-143.8-9.7-66.1,9.7s0,0-.1,0l-138.3-9.7-71.7,9.7s0,0-.1,0l-132.9-9.7-77.2,9.7s0,0-.1,0l-127.3-9.7-82.7,9.7-121.9-9.7-88.3,9.7-116.4-9.7-93.9,9.7-110.9-9.7-99.4,9.7-105.4-9.7L.5,184.7s0,0,0,0Z"/>
                  <path class="cls-42" d="M1930.3,1363.2c0,0-.1,0-.2,0L247.3,625.7.3,517.5c-.3-.1-.4-.4-.3-.7s.4-.4.7-.3l1492.6,654,437,191.5,432.7-192.3c.1,0,.2,0,.4,0l546.2,191.3,929.7-553.4c.2-.1.5,0,.7.2.1.2,0,.5-.2.7l-929.9,553.5c-.1,0-.3,0-.4,0l-546.2-191.3-432.7,192.3c0,0-.1,0-.2,0h0Z"/>
                  <path class="cls-6" d="M.5,576.1c-.2,0-.5-.2-.5-.4,0-.3.1-.5.4-.6l456.1-73.1,315.8-50.6,280.5-44.9,250.8-40.2,225.6-36.1,389.2-62.4c0,0,.1,0,.2,0l185.8,29.5,168.2-29.7c0,0,.1,0,.2,0l202.7,29.5,151.2-29.6c0,0,.1,0,.2,0l219.5,29.5,134.3-29.6c0,0,.1,0,.2,0l236.4,29.5,259.9,32.5,110.4-32.6c0,0,.1,0,.2,0l251.9,29.3c.3,0,.5.3.4.6,0,.3-.3.5-.6.4l-251.8-29.3-110.4,32.6c0,0-.1,0-.2,0l-260-32.5-236.3-29.5-134.3,29.6c0,0-.1,0-.2,0l-219.5-29.5-151.2,29.6c0,0-.1,0-.2,0l-202.7-29.5-168.2,29.7c0,0-.1,0-.2,0l-185.8-29.5-389.2,62.4-225.6,36.1-250.8,40.2-280.5,44.9-315.8,50.6L.6,576.1s0,0,0,0h0Z"/>
                  <path class="cls-21" d="M.5,111.5c-.3,0-.5-.2-.5-.5,0-.3.2-.5.5-.5l617.2-49.3,152.8-12.2,144-11.5,136-10.9,679.4-54.3,90.6,7.9,94.7-7.9,95.1,7.9,90.2-7.9,99.6,7.9,85.7-7.9,104.1,7.9,81.1-7.9,108.6,7.9,76.6-7.9,113.1,7.9,72-7.9,117.6,7.9,67.5-7.9,122.1,7.9,62.9-7.9,126.6,7.9,58.4-7.9,268.5,16.2,51.9-8.3s0,0,.1,0l122.7,7.1c.3,0,.5.3.5.5s-.3.5-.5.5l-122.7-7.1-51.9,8.3s0,0-.1,0l-268.5-16.2-58.4,7.9-126.6-7.9-62.9,7.9-122.1-7.9-67.5,7.9-117.6-7.9-72,7.9-113.1-7.9-76.6,7.9-108.6-7.9-81.1,7.9-104.1-7.9-85.7,7.9-99.6-7.9-90.2,7.9-95.1-7.9-94.7,7.9-90.6-7.9L914.6,38.4l-144,11.5-152.8,12.2L.5,111.5s0,0,0,0h0Z"/>
                  <path class="cls-2" d="M1915.9,27.4l-205.2-19.9-94.7-9.2-89.9-8.7-457.4-44.4-127.1-12.3-59.6-5.8L177.3-141.4.5-134.7c-.3,0-.5-.2-.5-.5,0-.3.2-.5.5-.5l176.9-6.6L1915.9,26.4l105-10.3,111.2,10.2,99.1-10.3,117.1,10.2,93.2-10.3,122.9,10.2,87.3-10.3,128.6,10.2,81.5-10.2s0,0,.1,0l134.4,10.2,75.6-10.2s0,0,.1,0l140.2,10.2,69.8-10.2s0,0,.1,0l146,10.2,124.5-19.9s0,0,.1,0l149.3,9.7,137.3-24.2c.3,0,.5.1.6.4,0,.3-.1.5-.4.6l-137.4,24.2s0,0-.1,0l-149.3-9.7-124.5,19.9s0,0-.1,0l-146-10.2-69.8,10.2s0,0-.1,0l-140.2-10.2-75.6,10.2s0,0-.1,0l-134.4-10.2-81.5,10.2s0,0-.1,0l-128.6-10.2-87.3,10.3-122.9-10.2-93.2,10.3-117.1-10.2-99.1,10.3-111.2-10.2-105,10.3h0Z"/>
                  <path class="cls-30" d="M.5,55.9c-.3,0-.5-.2-.5-.5,0-.3.2-.5.5-.5l81.9-5.8,163.9-11.5L685.8,6.7l256.3-18,118.7-8.4,323.6-22.7,282.1-19.8,79.3,6.3,86.2-6.3,82.9,6.3,82.6-6.3,86.5,6.3,79-6.3,90.1,6.3,75.4-6.3,93.7,6.3,71.8-6.3,97.3,6.3,68.2-6.3,100.8,6.3,64.5-6.3,104.4,6.3,60.9-6.3,108,6.3,57.3-6.3,111.6,6.3,53.7-6.3,115.2,6.3,50.1-6.3,118.8,6.3,46.5-6.3,122.3,6.3,65.8,3.4c.3,0,.5.2.5.5,0,.3-.3.5-.5.5l-65.8-3.4-122.2-6.3-46.5,6.3-118.8-6.3-50.1,6.3-115.2-6.3-53.7,6.3-111.6-6.3-57.3,6.3-108-6.3-60.9,6.3-104.4-6.3-64.5,6.3-100.9-6.3-68.2,6.3-97.3-6.3-71.8,6.3-93.7-6.3-75.4,6.3-90.1-6.3-79,6.3-86.5-6.3-82.6,6.3-82.9-6.3-86.2,6.3-79.3-6.3-492.7,34.6-113,7.9-118.7,8.4L685.9,7.7l-439.6,30.9-163.9,11.5L.5,55.9s0,0,0,0Z"/>
                  <path class="cls-45" d="M3839.5,1104s0,0-.1,0l-848.5-212.1-282,125.3c-.1,0-.2,0-.3,0l-427.9-124.8-353.9,125.4c-.1,0-.2,0-.3,0l-905.2-317.1-564.7-197.8-143.8-50.4-127.8-44.8L.3,343.3c-.3,0-.4-.4-.3-.6,0-.3.4-.4.6-.3l184.5,64.6,127.8,44.8,306.9,107.5,1306.7,457.7,353.8-125.4c0,0,.2,0,.3,0l427.9,124.8,282-125.3c.1,0,.2,0,.3,0l848.6,212.1c.3,0,.4.3.4.6,0,.2-.3.4-.5.4h0Z"/>
                  <path class="cls-37" d="M.5,376.7c-.2,0-.5-.2-.5-.4,0-.3.2-.5.4-.6l1916.6-241s0,0,.1,0l144.4,18,133.6-18.1s0,0,.1,0l154.6,18,123.3-18.1s0,0,.1,0l164.9,18,112.9-18.1s0,0,.1,0l175.2,18,102.5-18.1s0,0,.1,0l185.4,18,92.2-18.1s0,0,.1,0l195.7,18,81.8-18.1s.1,0,.2,0l255,22.3c.3,0,.5.3.5.5,0,.3-.3.5-.5.5l-255-22.3-81.8,18.1c0,0-.1,0-.2,0l-195.7-18-92.2,18.1s0,0-.1,0l-185.4-18-102.5,18.1s0,0-.1,0l-175.2-18-112.9,18.1s0,0-.1,0l-164.9-18-123.3,18.1s0,0-.1,0l-154.6-18-133.6,18.1s0,0-.1,0l-144.4-18-299.2,37.6-167.7,21.1-181.7,22.9-197.6,24.8-452.1,56.8L.6,376.7s0,0,0,0Z"/>
                  <path class="cls-32" d="M.5,12.2c-.3,0-.5-.2-.5-.5,0-.3.2-.5.5-.5L617.3-27.5l120.8-7.6,431.5-27.1,363.6-22.8,70.3,5.3,82.3-5.4,73.4,5.3,79.2-5.4,76.4,5.3,76.1-5.4,79.4,5.3,73.1-5.4,82.5,5.3,70-5.4,85.5,5.3,66.9-5.4,88.6,5.3,63.9-5.3,91.6,5.3,60.8-5.4,94.6,5.3,57.7-5.3,97.7,5.3,54.7-5.4,100.7,5.3,51.6-5.4,103.7,5.3,48.6-5.3,106.8,5.3,45.5-5.4,109.8,5.3,42.4-5.3,172.4,8.1c.3,0,.5.2.5.5s-.3.5-.5.5l-172.3-8.1-42.4,5.3-109.8-5.3-45.5,5.4-106.8-5.3-48.6,5.3-103.8-5.3-51.6,5.4-100.7-5.3-54.7,5.4-97.7-5.3-57.7,5.3-94.6-5.3-60.8,5.4-91.6-5.3-63.9,5.3-88.6-5.3-66.9,5.4-85.5-5.3-70,5.4-82.5-5.3-73.1,5.4-79.4-5.3-76.1,5.4-76.4-5.3-79.2,5.4-73.4-5.3-82.3,5.4-70.3-5.3L.5,12.2h0Z"/>
                  <path class="cls-4" d="M3839.5,55.8s0,0,0,0l-256.9-17.9-65,11.5s0,0-.1,0l-156.9-11.4-71.6,11.5s0,0-.1,0l-150.4-11.4-78.1,11.5s0,0-.1,0l-143.9-11.4-84.7,11.5s0,0-.1,0l-137.4-11.4-91.3,11.5s0,0-.1,0l-130.9-11.4-97.9,11.5s0,0-.1,0l-124.3-11.4-104.4,11.5s0,0-.1,0l-117.9-11.4-111,11.5s0,0-.1,0l-111.3-11.5-105.2-10.8L1416.5-1.7l-84.9-8.7-608.4-62.5-379.5-39-40.1-4.1-246-25.3-56.9,2.1c-.3,0-.5-.2-.5-.5,0-.3.2-.5.5-.5l57-2.1L1916.1,48.7l111-11.5,117.9,11.4,104.4-11.5s0,0,.1,0l124.3,11.4,97.9-11.5s0,0,.1,0l130.9,11.4,91.3-11.5s0,0,.1,0l137.4,11.4,84.7-11.5s0,0,.1,0l143.9,11.4,78.1-11.5s0,0,.1,0l150.4,11.4,71.6-11.5s0,0,.1,0l156.9,11.4,65-11.5s0,0,.1,0l256.9,18c.3,0,.5.3.5.5,0,.3-.2.5-.5.5h0Z"/>
                  <path class="cls-33" d="M1924.1,788.4s0,0-.1,0l-301.4-87.9-258.2-75.3-419.4-122.3-172.6-50.3L145.2,269.5.4,227.3c-.3,0-.4-.4-.3-.6,0-.3.4-.4.6-.3l771.9,225.2,172.6,50.3,978.9,285.6,299.3-88.3c0,0,.2,0,.3,0l351.4,87.8,248.8-88.2c0,0,.2,0,.3,0l401.5,87.8,198.3-88.1,169.9-75.5,147.1-65.4,98.4-43.7c.3-.1.5,0,.7.3.1.3,0,.5-.3.7l-98.4,43.7-147.1,65.4-169.9,75.5-198.4,88.2c0,0-.2,0-.3,0l-401.5-87.8-248.8,88.2c0,0-.2,0-.3,0l-351.4-87.8-299.3,88.3s0,0-.1,0h0Z"/>
                  <path class="cls-24" d="M.5,247.9c-.3,0-.5-.2-.5-.4,0-.3.2-.5.4-.5L1916.1,48.7s0,0,.1,0l118,12.1,110.8-12.2s0,0,.1,0l125,12.1,103.8-12.2s0,0,.1,0l131.9,12.1,96.8-12.2s0,0,.1,0l138.8,12.1,89.9-12.2s0,0,.1,0l145.7,12.1,82.9-12.2s0,0,.1,0l152.6,12.1,75.9-12.2s0,0,.1,0l159.6,12.1,169.4,12.9,65.9-12.9s0,0,.1,0l155.6,11.3c.3,0,.5.3.5.5,0,.3-.3.5-.5.5l-155.5-11.3-65.9,12.9s0,0-.1,0l-169.5-12.9-159.5-12.1-75.9,12.2s0,0-.1,0l-152.6-12.1-82.9,12.2s0,0-.1,0l-145.7-12.1-89.9,12.2s0,0-.1,0l-138.8-12.1-96.8,12.2s0,0-.1,0l-131.9-12.1-103.8,12.2s0,0-.1,0l-125-12.1-110.8,12.2s0,0-.1,0l-118-12.1-243,25.1-275.7,28.5-152.2,15.7-527.1,54.5L.6,247.9s0,0,0,0Z"/>
                  <path class="cls-10" d="M3839.5,666.8s0,0,0,0l-245.5-42.9-372.2-65.1-184.4,65.4c0,0-.2,0-.3,0l-335.1-65.1-221.8,65.4c0,0-.2,0-.2,0l-298-65.2-259.3,65.5c0,0-.2,0-.2,0l-260.9-65.2-228.2-57.1-201.3-50.3-178.9-44.7-160-40L201.8,194.8l-84.1-21-77.9-19.5L.4,144.5c-.3,0-.4-.3-.4-.6s.3-.4.6-.4l39.5,9.9,77.9,19.5,274.3,68.5,500.7,125.2,160,40,178.9,44.7,201.3,50.3,489.1,122.2,259.3-65.5c0,0,.2,0,.2,0l298,65.2,221.8-65.4c0,0,.2,0,.2,0l335.1,65.1,184.4-65.4c0,0,.2,0,.3,0l372.4,65.1,245.5,42.9c.3,0,.5.3.4.6,0,.2-.3.4-.5.4h0Z"/>
                  <path class="cls-25" d="M.5,157.8c-.3,0-.5-.2-.5-.5,0-.3.2-.5.5-.5l39.5-3.5,206.5-18.1,192.1-16.9,346.9-30.5,157.1-13.8,286.4-25.2,254.4-22.4,227.5-20,105-9.2,100,9.2,99.6-9.2,105.2,9.2,94.3-9.2,110.4,9.2,89-9.2,115.7,9.2,83.7-9.2,120.9,9.2,78.5-9.2,126.1,9.2,73.2-9.2,131.3,9.2,68-9.2s0,0,.1,0l136.4,9.2,62.7-9.2s0,0,.1,0l141.7,9.2,57.4-9.2s0,0,.1,0l146.9,9.2,82.3,5.1c.3,0,.5.3.5.5,0,.3-.3.5-.5.5l-82.3-5.1-146.9-9.2-57.4,9.2s0,0-.1,0l-141.7-9.2-62.7,9.2s0,0-.1,0l-136.4-9.2-68,9.2s0,0-.1,0l-131.3-9.2-73.2,9.2-126.1-9.2-78.5,9.2-120.9-9.2-83.7,9.2-115.7-9.2-89,9.2-110.5-9.2-94.3,9.2-105.2-9.2-99.6,9.2-100-9.2L40,154.3l-39.5,3.5s0,0,0,0h0Z"/>
                  <path class="cls-23" d="M1921,502.3s0,0-.1,0l-434.4-95-182.9-40-164.5-36-148.8-32.6-135.3-29.6-123.5-27-217.3-47.5-267.7-58.5-76.9-16.8L.4,82.4c-.3,0-.4-.3-.4-.6,0-.3.3-.4.6-.4l731,159.8,123.5,27,135.3,29.6,148.8,32.6,164.5,36,182.9,40,434.3,95,228.8-50.5c0,0,.1,0,.2,0l258.6,50.2,199.9-50.4c0,0,.1,0,.2,0l287.2,50.2,171-50.4c0,0,.1,0,.2,0l315.8,50.2,456.4-161.8c.3,0,.5,0,.6.3,0,.3,0,.5-.3.6l-314.3,111.4-142.2,50.4c0,0-.2,0-.2,0l-315.8-50.2-171,50.4c0,0-.2,0-.2,0l-287.2-50.2-199.9,50.4c0,0-.1,0-.2,0l-258.6-50.2-228.8,50.5s0,0-.1,0h0Z"/>
                  <path class="cls-46" d="M.5,91.3c-.3,0-.5-.2-.5-.5,0-.3.2-.5.5-.5l30.1-2.3,350.8-26.8,159.8-12.2,150.6-11.5,142.2-10.9,606.7-46.3,203-15.5,94.6-7.2,86.5,7.2,90.3-7.2,90.6,7.2,86.2-7.2,94.7,7.2,82.1-7.2,98.8,7.2,77.9-7.2,102.9,7.2,73.8-7.2,107,7.2,69.7-7.2,111.1,7.2,65.5-7.2,115.2,7.2,61.4-7.2,119.3,7.2,57.3-7.2,123.4,7.2,53.1-7.2,127.4,7.2,49.1-7.2,131.6,7.2,26.1,1.4c.3,0,.5.3.5.5,0,.3-.3.5-.5.5l-26.1-1.4-131.5-7.2-49,7.2s0,0-.1,0l-127.4-7.2-53.1,7.2-123.4-7.2-57.3,7.2-119.3-7.2-61.4,7.2-115.2-7.2-65.5,7.2-111.1-7.2-69.7,7.2-107-7.2-73.8,7.2-102.9-7.2-77.9,7.2-98.8-7.2-82.1,7.2-94.7-7.2-86.2,7.2-90.6-7.2-90.3,7.2-86.5-7.2-94.5,7.2L381.4,62.2,30.7,89l-30.1,2.3s0,0,0,0h0Z"/>
                  <path class="cls-43" d="M1916.4,74.8s0,0,0,0l-229.3-25-104.8-11.4L30.4-131.2l-29.9-3.3c-.3,0-.5-.3-.4-.6,0-.3.3-.5.6-.4L1483.4,26.5l99,10.8,104.8,11.4,229.2,25,117.8-13s0,0,.1,0l125.4,12.9,110.3-12.9s0,0,.1,0l132.8,12.9,102.9-12.9s0,0,.1,0l140.1,12.9,95.5-12.9s0,0,.1,0l147.5,12.9,88.1-12.9s0,0,.1,0l154.8,12.9,80.7-12.9s0,0,.1,0l162.1,12.9,73.3-12.9,69-12.2s0,0,.1,0l166.4,12.1,155.5-30.5c.3,0,.5.1.6.4s-.1.5-.4.6l-155.6,30.5s0,0-.1,0l-166.4-12.1-69,12.1-73.4,12.9s0,0-.1,0l-162.1-12.9-80.7,12.9s0,0-.1,0l-154.8-12.9-88.1,12.9s0,0-.1,0l-147.5-12.9-95.5,12.9s0,0-.1,0l-140.1-12.9-102.9,12.9s0,0-.1,0l-132.8-12.9-110.3,12.9s0,0-.1,0l-125.4-12.9-117.8,13s0,0,0,0h0Z"/>
                  <path class="cls-19" d="M3839.5,431.7s0,0,0,0l-188-25.3-296.6-39.9-135.8,40.1c0,0-.1,0-.2,0l-273.9-39.9-158.7,40.1c0,0-.1,0-.2,0l-251.1-39.9-181.7,40.1c0,0-.1,0-.2,0l-228.4-39.9-204.7,40.1c0,0-.1,0-.2,0l-205.7-40-185.1-35.9-167.4-32.5-152.2-29.6-266.3-51.7-117.1-22.8-108.1-21-100.1-19.5L.4,34.2c-.3,0-.4-.3-.4-.6,0-.3.3-.4.6-.4l1528.7,297,185.1,35.9,205.6,39.9,204.7-40.1c0,0,.1,0,.2,0l228.4,39.9,181.7-40.1c0,0,.1,0,.2,0l251.1,39.9,158.7-40.1c0,0,.1,0,.2,0l273.9,39.9,135.8-40c0,0,.1,0,.2,0l296.7,39.9,188,25.3c.3,0,.5.3.4.6,0,.3-.2.4-.5.4h0Z"/>
                  <path class="cls-44" d="M.5,40.2c-.3,0-.5-.2-.5-.5,0-.3.2-.5.5-.5l22.9-1.5L480.7,6.7l136.7-9.2,973.2-65.8,76,6,86.1-6,79.5,6,82.6-6,82.9,6,79.2-6,86.3,6,75.7-6.1,89.8,6,72.2-6,93.2,6,68.8-6,96.7,6,65.3-6,100.1,6,61.8-6,103.5,6,58.4-6,106.9,6,54.9-6,110.4,6,51.5-6,113.8,6,48-6,117.2,6,44.5-6,120.7,6,22.9,1.1c.3,0,.5.2.5.5,0,.3-.2.5-.5.5l-143.4-7.2-44.5,6-117.3-6-48,6-113.8-6-51.5,6-110.4-6-54.9,6-107-6-58.4,6-103.5-6-61.8,6-100.1-6-65.3,6-96.7-6-68.8,6-93.2-6-72.2,6-89.8-6-75.7,6.1-86.3-6-79.2,6-82.9-6-82.6,6-79.5-6-86.1,6-76-6-89.6,6.1L.5,40.2s0,0,0,0h0Z"/>
                  <path class="cls-29" d="M1919.2,331.1s0,0,0,0l-355-62.1-154.3-27-391.7-68.5-400.3-70-83.9-14.7-222.1-38.8-65.6-11.4L.4-4.4c-.3,0-.5-.3-.4-.6,0-.3.3-.5.6-.4l1137.7,198.9,271.6,47.5,154.3,27,354.9,62,185.1-32.6c0,0,.1,0,.2,0l204.4,32.5,166.5-32.6c0,0,.1,0,.2,0l222.9,32.5,147.8-32.6c0,0,.1,0,.2,0l241.4,32.5,246.5-62.2c0,0,.1,0,.2,0l253.1,29.5,251.8-74.2c.3,0,.5,0,.6.3,0,.3,0,.5-.3.6l-251.9,74.3c0,0-.1,0-.2,0l-253.1-29.5-117.3,29.6-129.2,32.6c0,0-.1,0-.2,0l-241.5-32.5-147.8,32.6c0,0-.1,0-.2,0l-222.9-32.5-166.5,32.6c0,0-.1,0-.2,0l-204.4-32.5-185.1,32.6s0,0,0,0h0Z"/>
                  <path class="cls-35" d="M3839.5,284.8s0,0,0,0l-151.4-16.5-246.4-26.9-107.1,27c0,0-.1,0-.2,0l-231.1-26.9-122.5,27c0,0-.1,0-.2,0l-215.7-26.9-138,27.1c0,0-.1,0-.2,0l-200.4-26.9-153.5,27.1c0,0-.1,0-.2,0l-185-26.9-169,27.1c0,0-.1,0-.2,0l-169.7-27-155.6-24.7-143.1-22.7-132.1-21-122.3-19.4-113.6-18-105.7-16.8-98.7-15.7-92.3-14.7L60.4-26.4.4-35.9c-.3,0-.5-.3-.4-.6,0-.3.3-.5.6-.4l1917.9,304.8,169-27.1c0,0,.1,0,.2,0l185,26.9,153.5-27.1c0,0,.1,0,.2,0l200.4,26.9,138-27.1c0,0,.1,0,.2,0l215.7,26.9,122.5-27c0,0,.1,0,.2,0l231.1,26.9,107.1-27c0,0,.1,0,.2,0l246.5,26.9,151.4,16.5c.3,0,.5.3.4.6,0,.3-.2.4-.5.4h0Z"/>
                  <path class="cls-16" d="M1917.9,217.1s0,0,0,0l-557.4-81.2-115.3-16.8L9-61l-8.6-1.2c-.3,0-.5-.3-.4-.6,0-.3.3-.5.6-.4l8.6,1.2L1917.9,216.1l155.5-22.8s0,0,.1,0l169,22.7,142.4-22.8s0,0,.1,0l181.9,22.7,129.3-22.8s0,0,.1,0l194.9,22.7,116.3-22.8c0,0,.1,0,.1,0l207.8,22.7,103.2-22.8,95.3-21c0,0,.1,0,.2,0l215.7,20.9,209.4-52.9c.3,0,.5,0,.6.4,0,.3,0,.5-.4.6l-49,12.4-160.4,40.5c0,0-.1,0-.2,0l-215.7-20.9-95.3,21-103.3,22.8c0,0-.1,0-.2,0l-207.8-22.7-116.3,22.8c0,0-.1,0-.2,0l-194.9-22.7-129.3,22.8s0,0-.1,0l-181.9-22.7-142.4,22.8s0,0-.1,0l-169-22.7-155.5,22.8s0,0,0,0h0Z"/>
                  <path class="cls-11" d="M3839.5,184.3s0,0,0,0l-336.9-31-88.2,19.5c0,0-.1,0-.2,0l-199.7-19.4-99.3,19.5s0,0-.1,0l-188.7-19.4-110.5,19.5s0,0-.1,0l-177.6-19.4-121.6,19.5s0,0-.1,0l-166.5-19.4-132.8,19.5s0,0-.1,0l-155.5-19.4-144,19.5s0,0-.1,0l-144.5-19.4-259-34.8-423.8-57-175.6-23.6-80.5-10.8L.4-84.4c-.3,0-.5-.3-.4-.6,0-.3.3-.5.6-.4L685.9,6.7l953,128.1,134.2,18,144.4,19.4,144-19.5s0,0,.1,0l155.5,19.4,132.8-19.5s0,0,.1,0l166.5,19.4,121.6-19.5s0,0,.1,0l177.6,19.4,110.5-19.5s0,0,.1,0l188.6,19.4,99.3-19.5s0,0,.1,0l199.7,19.4,88.2-19.5c0,0,.1,0,.2,0l337,31c.3,0,.5.3.5.5,0,.3-.2.5-.5.5h0Z"/>
                  <path class="cls-17" d="M1917.1,135.7s0,0,0,0l-134.5-16.8-125.5-15.7-117.4-14.6-110.1-13.7-103.4-12.9-97.3-12.2L340.8-61,.4-103.5c-.3,0-.5-.3-.4-.6s.3-.5.6-.4l2.5.3L617.4-27.5,817.3-2.5l73.7,9.2,338,42.2,97.3,12.2,103.4,12.9,110.1,13.7,117.4,14.6,125.5,15.7,134.4,16.8,134-16.8s0,0,.1,0l144,16.8,124.4-16.8s0,0,.1,0l153.5,16.8,114.7-16.8s0,0,.1,0l163.1,16.8,105.1-16.8s0,0,.1,0l172.7,16.8,95.4-16.8s0,0,.1,0l182.2,16.8,165.9-32.5s0,0,.1,0l187.8,15.6,178.7-39.4c.3,0,.5.1.6.4,0,.3-.1.5-.4.6l-178.8,39.4s0,0-.1,0l-187.9-15.6-165.9,32.5s0,0-.1,0l-182.2-16.8-95.4,16.8s0,0-.1,0l-172.7-16.8-105.1,16.8s0,0-.1,0l-163.1-16.8-114.7,16.8s0,0-.1,0l-153.5-16.8-124.4,16.8s0,0-.1,0l-144-16.8-134,16.8s0,0,0,0h0Z"/>
                  <path class="cls-15" d="M3839.5,111.3s0,0,0,0l-107.6-8.6-184.1-14.6-74.9,14.7s0,0-.1,0l-175.7-14.6-83.3,14.7s0,0-.1,0l-167.4-14.6-91.7,14.7s0,0-.1,0l-159.1-14.6-100.1,14.7s0,0-.1,0l-150.8-14.6-108.5,14.7s0,0-.1,0l-142.4-14.6-116.9,14.7s0,0-.1,0l-134.1-14.6-125.4,14.7s0,0-.1,0l-125.8-14.6-117.9-13.7L1095.9,7.6l-78.9-9.2-75-8.7L.5-120s-.1,0-.1,0c-.3,0-.5-.3-.4-.6,0-.3.3-.5.6-.4h0S1916.7,102.2,1916.7,102.2l125.4-14.7s0,0,.1,0l134.1,14.6,116.9-14.7s0,0,.1,0l142.4,14.6,108.5-14.7s0,0,.1,0l150.7,14.6,100.1-14.7s0,0,.1,0l159.1,14.6,91.7-14.7s0,0,.1,0l167.4,14.6,83.3-14.7s0,0,.1,0l175.7,14.6,74.9-14.7s0,0,.1,0l184.1,14.6,107.6,8.6c.3,0,.5.3.5.5,0,.3-.2.5-.5.5h0Z"/>
                </g>
              </g>
            </g>
          </g>
        </g>
      </g>
    </g>
  </g>
</svg>